<svg id="visual" viewBox="0 0 960 540" width="960" height="540" xmlns="http://www.w3.org/2000/svg" xmlns:xlink="http://www.w3.org/1999/xlink" version="1.1"><path d="M0 39L87 82L175 39L262 77L349 60L436 55L524 77L611 39L698 39L785 50L873 77L960 33L960 0L873 0L785 0L698 0L611 0L524 0L436 0L349 0L262 0L175 0L87 0L0 0Z" fill="#00cc8e"></path><path d="M0 168L87 195L175 141L262 174L349 168L436 136L524 168L611 98L698 185L785 114L873 131L960 163L960 31L873 75L785 48L698 37L611 37L524 75L436 53L349 58L262 75L175 37L87 80L0 37Z" fill="#00b98a"></path><path d="M0 320L87 314L175 293L262 309L349 255L436 352L524 352L611 201L698 282L785 201L873 298L960 266L960 161L873 129L785 112L698 183L611 96L524 166L436 134L349 166L262 172L175 139L87 193L0 166Z" fill="#00a784"></path><path d="M0 428L87 357L175 368L262 417L349 336L436 455L524 395L611 282L698 352L785 314L873 363L960 352L960 264L873 296L785 199L698 280L611 199L524 350L436 350L349 253L262 307L175 291L87 312L0 318Z" fill="#00957c"></path><path d="M0 541L87 541L175 541L262 541L349 541L436 541L524 541L611 541L698 541L785 541L873 541L960 541L960 350L873 361L785 312L698 350L611 280L524 393L436 453L349 334L262 415L175 366L87 355L0 426Z" fill="#038373"></path></svg>