<svg id="visual" viewBox="0 0 960 150" width="960" height="150" xmlns="http://www.w3.org/2000/svg" xmlns:xlink="http://www.w3.org/1999/xlink" version="1.1"><rect x="0" y="0" width="960" height="150" fill="#075D2C"></rect><path d="M0 50L22.8 51.8C45.7 53.7 91.3 57.3 137 58.7C182.7 60 228.3 59 274 59C319.7 59 365.3 60 411.2 57.8C457 55.7 503 50.3 548.8 50.3C594.7 50.3 640.3 55.7 686 54.3C731.7 53 777.3 45 823 43.8C868.7 42.7 914.3 48.3 937.2 51.2L960 54L960 0L937.2 0C914.3 0 868.7 0 823 0C777.3 0 731.7 0 686 0C640.3 0 594.7 0 548.8 0C503 0 457 0 411.2 0C365.3 0 319.7 0 274 0C228.3 0 182.7 0 137 0C91.3 0 45.7 0 22.8 0L0 0Z" fill="#008037"></path><path d="M0 47L22.8 47C45.7 47 91.3 47 137 45.7C182.7 44.3 228.3 41.7 274 41.5C319.7 41.3 365.3 43.7 411.2 44.7C457 45.7 503 45.3 548.8 46C594.7 46.7 640.3 48.3 686 47.8C731.7 47.3 777.3 44.7 823 42.3C868.7 40 914.3 38 937.2 37L960 36L960 0L937.2 0C914.3 0 868.7 0 823 0C777.3 0 731.7 0 686 0C640.3 0 594.7 0 548.8 0C503 0 457 0 411.2 0C365.3 0 319.7 0 274 0C228.3 0 182.7 0 137 0C91.3 0 45.7 0 22.8 0L0 0Z" fill="#58a066"></path><path d="M0 32L22.8 31.8C45.7 31.7 91.3 31.3 137 31.3C182.7 31.3 228.3 31.7 274 33.2C319.7 34.7 365.3 37.3 411.2 37.3C457 37.3 503 34.7 548.8 33.8C594.7 33 640.3 34 686 34.2C731.7 34.3 777.3 33.7 823 31.5C868.7 29.3 914.3 25.7 937.2 23.8L960 22L960 0L937.2 0C914.3 0 868.7 0 823 0C777.3 0 731.7 0 686 0C640.3 0 594.7 0 548.8 0C503 0 457 0 411.2 0C365.3 0 319.7 0 274 0C228.3 0 182.7 0 137 0C91.3 0 45.7 0 22.8 0L0 0Z" fill="#91bf97"></path><path d="M0 16L22.8 17.3C45.7 18.7 91.3 21.3 137 23C182.7 24.7 228.3 25.3 274 25.8C319.7 26.3 365.3 26.7 411.2 25.7C457 24.7 503 22.3 548.8 21.3C594.7 20.3 640.3 20.7 686 20.7C731.7 20.7 777.3 20.3 823 20.7C868.7 21 914.3 22 937.2 22.5L960 23L960 0L937.2 0C914.3 0 868.7 0 823 0C777.3 0 731.7 0 686 0C640.3 0 594.7 0 548.8 0C503 0 457 0 411.2 0C365.3 0 319.7 0 274 0C228.3 0 182.7 0 137 0C91.3 0 45.7 0 22.8 0L0 0Z" fill="#c8dfca"></path><path d="M0 9L22.8 9.3C45.7 9.7 91.3 10.3 137 10.8C182.7 11.3 228.3 11.7 274 11.3C319.7 11 365.3 10 411.2 10C457 10 503 11 548.8 10.7C594.7 10.3 640.3 8.7 686 8.7C731.7 8.7 777.3 10.3 823 10.5C868.7 10.7 914.3 9.3 937.2 8.7L960 8L960 0L937.2 0C914.3 0 868.7 0 823 0C777.3 0 731.7 0 686 0C640.3 0 594.7 0 548.8 0C503 0 457 0 411.2 0C365.3 0 319.7 0 274 0C228.3 0 182.7 0 137 0C91.3 0 45.7 0 22.8 0L0 0Z" fill="#ffffff"></path></svg>