<svg id="visual" viewBox="0 0 900 100" width="900" height="100" xmlns="http://www.w3.org/2000/svg" xmlns:xlink="http://www.w3.org/1999/xlink" version="1.1"><rect x="0" y="0" width="900" height="100" fill="#ffffff"></rect><path d="M0 19L10 20.8C20 22.7 40 26.3 60 28.2C80 30 100 30 120 27.7C140 25.3 160 20.7 180 20.2C200 19.7 220 23.3 240 25.5C260 27.7 280 28.3 300 31.5C320 34.7 340 40.3 360 41C380 41.7 400 37.3 420 32.3C440 27.3 460 21.7 480 19C500 16.3 520 16.7 540 21.8C560 27 580 37 600 37.8C620 38.7 640 30.3 660 29.7C680 29 700 36 720 38.7C740 41.3 760 39.7 780 39.2C800 38.7 820 39.3 840 38.5C860 37.7 880 35.3 890 34.2L900 33L900 101L890 101C880 101 860 101 840 101C820 101 800 101 780 101C760 101 740 101 720 101C700 101 680 101 660 101C640 101 620 101 600 101C580 101 560 101 540 101C520 101 500 101 480 101C460 101 440 101 420 101C400 101 380 101 360 101C340 101 320 101 300 101C280 101 260 101 240 101C220 101 200 101 180 101C160 101 140 101 120 101C100 101 80 101 60 101C40 101 20 101 10 101L0 101Z" fill="#198754"></path><path d="M0 50L10 48.8C20 47.7 40 45.3 60 43.3C80 41.3 100 39.7 120 38.7C140 37.7 160 37.3 180 37.3C200 37.3 220 37.7 240 39C260 40.3 280 42.7 300 45.8C320 49 340 53 360 54.7C380 56.3 400 55.7 420 54.8C440 54 460 53 480 50.2C500 47.3 520 42.7 540 40.7C560 38.7 580 39.3 600 41.8C620 44.3 640 48.7 660 51.2C680 53.7 700 54.3 720 53.5C740 52.7 760 50.3 780 49.3C800 48.3 820 48.7 840 49.5C860 50.3 880 51.7 890 52.3L900 53L900 101L890 101C880 101 860 101 840 101C820 101 800 101 780 101C760 101 740 101 720 101C700 101 680 101 660 101C640 101 620 101 600 101C580 101 560 101 540 101C520 101 500 101 480 101C460 101 440 101 420 101C400 101 380 101 360 101C340 101 320 101 300 101C280 101 260 101 240 101C220 101 200 101 180 101C160 101 140 101 120 101C100 101 80 101 60 101C40 101 20 101 10 101L0 101Z" fill="#16804e"></path><path d="M0 52L10 53.3C20 54.7 40 57.3 60 57.8C80 58.3 100 56.7 120 56.5C140 56.3 160 57.7 180 56.7C200 55.7 220 52.3 240 50.3C260 48.3 280 47.7 300 49C320 50.3 340 53.7 360 56.8C380 60 400 63 420 63.5C440 64 460 62 480 59.2C500 56.3 520 52.7 540 54.2C560 55.7 580 62.3 600 63.3C620 64.3 640 59.7 660 56.2C680 52.7 700 50.3 720 50.2C740 50 760 52 780 51.5C800 51 820 48 840 48.5C860 49 880 53 890 55L900 57L900 101L890 101C880 101 860 101 840 101C820 101 800 101 780 101C760 101 740 101 720 101C700 101 680 101 660 101C640 101 620 101 600 101C580 101 560 101 540 101C520 101 500 101 480 101C460 101 440 101 420 101C400 101 380 101 360 101C340 101 320 101 300 101C280 101 260 101 240 101C220 101 200 101 180 101C160 101 140 101 120 101C100 101 80 101 60 101C40 101 20 101 10 101L0 101Z" fill="#137a49"></path><path d="M0 64L10 65.2C20 66.3 40 68.7 60 71C80 73.3 100 75.7 120 74.7C140 73.7 160 69.3 180 68.7C200 68 220 71 240 73.3C260 75.7 280 77.3 300 76C320 74.7 340 70.3 360 67.5C380 64.7 400 63.3 420 65.5C440 67.7 460 73.3 480 76.2C500 79 520 79 540 76.8C560 74.7 580 70.3 600 67.2C620 64 640 62 660 63.3C680 64.7 700 69.3 720 71.8C740 74.3 760 74.7 780 73.2C800 71.7 820 68.3 840 68.8C860 69.3 880 73.7 890 75.8L900 78L900 101L890 101C880 101 860 101 840 101C820 101 800 101 780 101C760 101 740 101 720 101C700 101 680 101 660 101C640 101 620 101 600 101C580 101 560 101 540 101C520 101 500 101 480 101C460 101 440 101 420 101C400 101 380 101 360 101C340 101 320 101 300 101C280 101 260 101 240 101C220 101 200 101 180 101C160 101 140 101 120 101C100 101 80 101 60 101C40 101 20 101 10 101L0 101Z" fill="#107444"></path><path d="M0 84L10 82.3C20 80.7 40 77.3 60 75.8C80 74.3 100 74.7 120 76C140 77.3 160 79.7 180 82.2C200 84.7 220 87.3 240 86C260 84.7 280 79.3 300 77.2C320 75 340 76 360 78.5C380 81 400 85 420 86.8C440 88.7 460 88.3 480 86.8C500 85.3 520 82.7 540 82.3C560 82 580 84 600 85.7C620 87.3 640 88.7 660 88.2C680 87.7 700 85.3 720 84.5C740 83.7 760 84.3 780 83.3C800 82.3 820 79.7 840 80.3C860 81 880 85 890 87L900 89L900 101L890 101C880 101 860 101 840 101C820 101 800 101 780 101C760 101 740 101 720 101C700 101 680 101 660 101C640 101 620 101 600 101C580 101 560 101 540 101C520 101 500 101 480 101C460 101 440 101 420 101C400 101 380 101 360 101C340 101 320 101 300 101C280 101 260 101 240 101C220 101 200 101 180 101C160 101 140 101 120 101C100 101 80 101 60 101C40 101 20 101 10 101L0 101Z" fill="#0d6e3f"></path></svg>