<svg id="visual" viewBox="0 0 900 200" width="900" height="200" xmlns="http://www.w3.org/2000/svg" xmlns:xlink="http://www.w3.org/1999/xlink" version="1.1"><rect x="0" y="0" width="900" height="200" fill="#ffffff"></rect><path d="M0 28L18.8 36.2C37.7 44.3 75.3 60.7 112.8 71.8C150.3 83 187.7 89 225.2 87C262.7 85 300.3 75 337.8 66.3C375.3 57.7 412.7 50.3 450.2 51.7C487.7 53 525.3 63 562.8 68.8C600.3 74.7 637.7 76.3 675.2 70.5C712.7 64.7 750.3 51.3 787.8 46.8C825.3 42.3 862.7 46.7 881.3 48.8L900 51L900 201L881.3 201C862.7 201 825.3 201 787.8 201C750.3 201 712.7 201 675.2 201C637.7 201 600.3 201 562.8 201C525.3 201 487.7 201 450.2 201C412.7 201 375.3 201 337.8 201C300.3 201 262.7 201 225.2 201C187.7 201 150.3 201 112.8 201C75.3 201 37.7 201 18.8 201L0 201Z" fill="#198754"></path><path d="M0 84L18.8 87.3C37.7 90.7 75.3 97.3 112.8 104.8C150.3 112.3 187.7 120.7 225.2 120.8C262.7 121 300.3 113 337.8 105.5C375.3 98 412.7 91 450.2 93C487.7 95 525.3 106 562.8 102.8C600.3 99.7 637.7 82.3 675.2 84C712.7 85.7 750.3 106.3 787.8 115.8C825.3 125.3 862.7 123.7 881.3 122.8L900 122L900 201L881.3 201C862.7 201 825.3 201 787.8 201C750.3 201 712.7 201 675.2 201C637.7 201 600.3 201 562.8 201C525.3 201 487.7 201 450.2 201C412.7 201 375.3 201 337.8 201C300.3 201 262.7 201 225.2 201C187.7 201 150.3 201 112.8 201C75.3 201 37.7 201 18.8 201L0 201Z" fill="#157e4d"></path><path d="M0 134L18.8 135.5C37.7 137 75.3 140 112.8 137.7C150.3 135.3 187.7 127.7 225.2 123.5C262.7 119.3 300.3 118.7 337.8 118.5C375.3 118.3 412.7 118.7 450.2 118.3C487.7 118 525.3 117 562.8 120.7C600.3 124.3 637.7 132.7 675.2 130C712.7 127.3 750.3 113.7 787.8 115.2C825.3 116.7 862.7 133.3 881.3 141.7L900 150L900 201L881.3 201C862.7 201 825.3 201 787.8 201C750.3 201 712.7 201 675.2 201C637.7 201 600.3 201 562.8 201C525.3 201 487.7 201 450.2 201C412.7 201 375.3 201 337.8 201C300.3 201 262.7 201 225.2 201C187.7 201 150.3 201 112.8 201C75.3 201 37.7 201 18.8 201L0 201Z" fill="#117646"></path><path d="M0 159L18.8 161.2C37.7 163.3 75.3 167.7 112.8 166.5C150.3 165.3 187.7 158.7 225.2 154.3C262.7 150 300.3 148 337.8 149.7C375.3 151.3 412.7 156.7 450.2 157.7C487.7 158.7 525.3 155.3 562.8 158.5C600.3 161.7 637.7 171.3 675.2 174C712.7 176.7 750.3 172.3 787.8 172C825.3 171.7 862.7 175.3 881.3 177.2L900 179L900 201L881.3 201C862.7 201 825.3 201 787.8 201C750.3 201 712.7 201 675.2 201C637.7 201 600.3 201 562.8 201C525.3 201 487.7 201 450.2 201C412.7 201 375.3 201 337.8 201C300.3 201 262.7 201 225.2 201C187.7 201 150.3 201 112.8 201C75.3 201 37.7 201 18.8 201L0 201Z" fill="#0d6e3f"></path></svg>