<svg id="visual" viewBox="0 0 900 200" width="900" height="200" xmlns="http://www.w3.org/2000/svg" xmlns:xlink="http://www.w3.org/1999/xlink" version="1.1"><rect x="0" y="0" width="900" height="200" fill="#212529"></rect><path d="M0 137L15 138.8C30 140.7 60 144.3 90 143.7C120 143 150 138 180 135.2C210 132.3 240 131.7 270 134.7C300 137.7 330 144.3 360 147.8C390 151.3 420 151.7 450 149.5C480 147.3 510 142.7 540 137.8C570 133 600 128 630 126.8C660 125.7 690 128.3 720 129.7C750 131 780 131 810 134.7C840 138.3 870 145.7 885 149.3L900 153L900 0L885 0C870 0 840 0 810 0C780 0 750 0 720 0C690 0 660 0 630 0C600 0 570 0 540 0C510 0 480 0 450 0C420 0 390 0 360 0C330 0 300 0 270 0C240 0 210 0 180 0C150 0 120 0 90 0C60 0 30 0 15 0L0 0Z" fill="#198754"></path><path d="M0 110L15 110.8C30 111.7 60 113.3 90 115.7C120 118 150 121 180 119.7C210 118.3 240 112.7 270 109.5C300 106.3 330 105.7 360 104.7C390 103.7 420 102.3 450 103.8C480 105.3 510 109.7 540 113.8C570 118 600 122 630 123.2C660 124.3 690 122.7 720 120C750 117.3 780 113.7 810 110.5C840 107.3 870 104.7 885 103.3L900 102L900 0L885 0C870 0 840 0 810 0C780 0 750 0 720 0C690 0 660 0 630 0C600 0 570 0 540 0C510 0 480 0 450 0C420 0 390 0 360 0C330 0 300 0 270 0C240 0 210 0 180 0C150 0 120 0 90 0C60 0 30 0 15 0L0 0Z" fill="#16804e"></path><path d="M0 78L15 77.7C30 77.3 60 76.7 90 77.2C120 77.7 150 79.3 180 81.5C210 83.7 240 86.3 270 85.3C300 84.3 330 79.7 360 77.7C390 75.7 420 76.3 450 76.8C480 77.3 510 77.7 540 78.2C570 78.7 600 79.3 630 80.5C660 81.7 690 83.3 720 86.5C750 89.7 780 94.3 810 95.2C840 96 870 93 885 91.5L900 90L900 0L885 0C870 0 840 0 810 0C780 0 750 0 720 0C690 0 660 0 630 0C600 0 570 0 540 0C510 0 480 0 450 0C420 0 390 0 360 0C330 0 300 0 270 0C240 0 210 0 180 0C150 0 120 0 90 0C60 0 30 0 15 0L0 0Z" fill="#137a49"></path><path d="M0 65L15 65.7C30 66.3 60 67.7 90 66.5C120 65.3 150 61.7 180 59C210 56.3 240 54.7 270 55C300 55.3 330 57.7 360 57.8C390 58 420 56 450 54C480 52 510 50 540 52.2C570 54.3 600 60.7 630 61C660 61.3 690 55.7 720 54.5C750 53.3 780 56.7 810 57C840 57.3 870 54.7 885 53.3L900 52L900 0L885 0C870 0 840 0 810 0C780 0 750 0 720 0C690 0 660 0 630 0C600 0 570 0 540 0C510 0 480 0 450 0C420 0 390 0 360 0C330 0 300 0 270 0C240 0 210 0 180 0C150 0 120 0 90 0C60 0 30 0 15 0L0 0Z" fill="#107444"></path><path d="M0 26L15 27.5C30 29 60 32 90 32.3C120 32.7 150 30.3 180 31.3C210 32.3 240 36.7 270 37.8C300 39 330 37 360 35.8C390 34.7 420 34.3 450 35C480 35.7 510 37.3 540 35.7C570 34 600 29 630 29.3C660 29.7 690 35.3 720 36.3C750 37.3 780 33.7 810 32C840 30.3 870 30.7 885 30.8L900 31L900 0L885 0C870 0 840 0 810 0C780 0 750 0 720 0C690 0 660 0 630 0C600 0 570 0 540 0C510 0 480 0 450 0C420 0 390 0 360 0C330 0 300 0 270 0C240 0 210 0 180 0C150 0 120 0 90 0C60 0 30 0 15 0L0 0Z" fill="#0d6e3f"></path></svg>