<?xml version="1.0" standalone="no"?>
<!DOCTYPE svg PUBLIC "-//W3C//DTD SVG 20010904//EN"
 "http://www.w3.org/TR/2001/REC-SVG-20010904/DTD/svg10.dtd">
<svg version="1.0" xmlns="http://www.w3.org/2000/svg"
 width="352.000000pt" height="144.000000pt" viewBox="0 0 352.000000 144.000000"
 preserveAspectRatio="xMidYMid meet">

<g transform="translate(0.000000,144.000000) scale(0.100000,-0.100000)"
fill="#000000" stroke="none">
<path d="M240 1376 l-185 -11 -7 -50 c-3 -27 -7 -124 -8 -215 -2 -178 14 -279
65 -431 74 -218 245 -438 433 -558 l52 -33 67 43 c88 57 227 195 285 284 91
139 152 288 184 449 16 84 19 359 6 461 l-7 50 -185 11 c-226 14 -455 14 -700
0z m615 -12 c138 -9 251 -17 252 -18 7 -6 23 -200 23 -273 0 -232 -73 -476
-201 -664 -55 -82 -176 -201 -267 -263 l-72 -49 -72 49 c-215 147 -380 391
-439 652 -25 109 -34 317 -21 446 6 54 12 100 14 101 3 3 407 31 488 34 25 0
158 -6 295 -15z"/>
<path d="M287 1345 c-104 -7 -191 -16 -195 -19 -20 -21 -28 -305 -12 -421 35
-247 149 -476 315 -634 40 -37 100 -87 134 -110 l61 -42 61 42 c292 198 460
537 458 923 0 127 -9 230 -21 241 -9 10 -223 24 -423 29 -111 3 -268 -1 -378
-9z m575 -66 l168 -12 7 -36 c5 -20 8 -108 7 -196 0 -141 -4 -172 -27 -260
-46 -172 -126 -313 -239 -425 -59 -57 -169 -140 -187 -140 -18 0 -96 55 -160
114 -168 151 -275 373 -296 613 -8 84 2 301 13 320 17 27 456 40 714 22z"/>
<path d="M363 1266 c-106 -7 -196 -16 -200 -20 -5 -4 -8 -92 -8 -194 0 -173 2
-194 28 -285 51 -184 154 -346 292 -460 89 -73 109 -83 138 -68 48 26 154 120
208 184 68 81 139 218 176 342 25 84 27 103 28 282 0 105 -3 195 -8 199 -7 7
-140 17 -362 27 -55 2 -187 -1 -292 -7z m10 -87 c36 -19 49 -49 22 -49 -8 0
-24 5 -34 12 -36 22 -69 -9 -57 -56 8 -34 37 -42 58 -17 19 24 48 28 48 6 0
-25 -38 -55 -70 -55 -82 0 -112 130 -37 160 30 12 45 12 70 -1z m187 -9 c34
-34 4 -56 -32 -23 -14 12 -21 14 -30 5 -14 -14 -13 -15 37 -33 31 -11 41 -21
43 -41 4 -34 -22 -58 -64 -58 -33 0 -74 28 -74 50 0 15 30 12 47 -5 17 -18 44
-16 50 2 2 6 -15 17 -39 25 -34 12 -44 20 -46 40 -6 51 69 77 108 38z m180 0
c11 -11 20 -24 20 -30 0 -13 -26 -13 -49 2 -36 22 -69 -9 -57 -56 9 -37 66
-46 66 -10 0 8 9 14 20 14 28 0 26 -35 -2 -54 -54 -38 -128 1 -128 67 0 71 83
114 130 67z m190 -5 c0 -11 -12 -15 -45 -15 -33 0 -45 -4 -45 -15 0 -11 11
-15 40 -15 29 0 40 -4 40 -15 0 -11 -11 -15 -40 -15 -29 0 -40 -4 -40 -15 0
-11 12 -15 45 -15 39 0 45 -3 45 -20 0 -19 -5 -21 -62 -18 l-63 3 -3 78 -3 77
66 0 c51 0 65 -3 65 -15z m-366 -201 c34 -33 10 -60 -25 -28 -37 33 -78 -10
-59 -62 11 -28 36 -31 61 -8 10 9 24 14 33 12 13 -2 14 -7 3 -28 -18 -35 -94
-41 -122 -10 -29 32 -26 97 4 121 28 23 84 25 105 3z m231 -114 c5 -15 12 -19
27 -14 19 6 20 3 13 -37 l-7 -44 22 20 c16 14 24 16 27 8 3 -7 12 -13 21 -13
12 0 17 -9 18 -30 1 -23 -6 -36 -27 -51 -16 -11 -29 -27 -29 -34 0 -11 -8 -13
-30 -8 -29 5 -30 4 -30 -31 0 -20 -4 -36 -10 -36 -5 0 -10 16 -10 36 l0 37
-40 -6 c-29 -4 -40 -2 -40 8 0 8 -15 26 -32 40 -19 15 -28 29 -22 31 7 3 9 14
6 26 -4 18 -2 20 16 16 16 -5 22 -2 22 10 0 12 5 10 25 -8 l24 -23 -9 34 c-15
51 -13 61 11 54 15 -5 22 -2 26 14 7 27 20 27 28 1z m-233 -97 c10 -9 18 -22
18 -30 0 -18 -36 -17 -44 2 -8 22 -33 18 -51 -9 -22 -33 -5 -76 29 -76 32 0
42 16 15 23 -33 9 -17 32 22 32 33 0 34 -1 37 -42 3 -39 1 -43 -20 -43 -13 -1
-38 -2 -56 -2 -61 -2 -98 63 -68 120 9 17 21 32 28 35 27 11 72 6 90 -10z m8
-220 l22 -28 -21 -3 c-12 -2 -28 4 -37 12 -21 22 -31 20 -50 -9 -18 -28 -11
-60 17 -75 15 -8 22 -6 36 10 23 27 53 27 46 0 -18 -69 -125 -62 -148 10 -26
83 83 149 135 83z m263 16 c38 2 48 0 43 -11 -3 -7 -9 -21 -12 -30 -4 -10 -10
-18 -15 -18 -12 0 -11 7 1 31 8 15 7 19 -5 19 -9 0 -15 -9 -15 -25 0 -23 -3
-25 -42 -22 -35 2 -43 6 -44 22 0 26 15 47 29 38 6 -4 33 -5 60 -4z m-103 -29
c0 -16 -4 -30 -9 -30 -10 0 -21 47 -13 55 13 13 22 3 22 -25z"/>
<path d="M776 828 c-6 -13 -12 -15 -26 -8 -16 8 -17 5 -9 -37 10 -53 6 -62
-18 -41 -22 18 -58 9 -58 -15 0 -9 14 -28 30 -42 24 -20 41 -24 92 -25 34 0
63 3 65 8 2 4 16 17 31 29 15 12 23 24 18 28 -6 3 -8 12 -4 20 4 11 1 13 -11
9 -10 -4 -16 -1 -16 7 0 8 -9 4 -23 -9 -13 -12 -26 -22 -28 -22 -10 0 -4 75 6
82 6 4 2 8 -7 8 -12 0 -18 -8 -19 -22 -1 -15 -4 -11 -9 12 -5 27 -8 31 -14 18z"/>
<path d="M3343 1370 c-25 -10 -43 -39 -43 -70 0 -12 -9 -24 -22 -30 -18 -7
-19 -9 -5 -9 15 -1 17 -11 17 -75 0 -63 -3 -75 -17 -79 -10 -3 5 -5 32 -6 38
0 46 2 33 10 -14 8 -18 24 -18 79 0 67 1 69 28 73 l27 4 -27 2 c-23 1 -28 6
-28 27 0 45 17 64 50 57 31 -6 42 10 14 21 -9 3 -16 6 -17 5 -1 0 -12 -4 -24
-9z"/>
<path d="M1767 1364 c-14 -15 -6 -34 14 -34 14 0 19 5 17 17 -3 18 -20 27 -31
17z"/>
<path d="M2577 1364 c-14 -15 -6 -34 14 -34 14 0 19 5 17 17 -3 18 -20 27 -31
17z"/>
<path d="M1252 1338 c13 -10 17 -35 20 -106 3 -84 5 -96 27 -113 25 -21 81
-25 111 -9 25 13 40 69 40 149 0 49 4 67 18 77 15 12 12 13 -28 13 -40 0 -43
-1 -27 -13 14 -11 17 -29 17 -92 0 -100 -15 -127 -68 -122 -48 4 -62 32 -62
129 0 69 2 77 23 87 19 9 14 11 -32 11 -46 1 -52 -1 -39 -11z"/>
<path d="M2690 1305 c0 -17 -7 -29 -22 -35 -18 -7 -19 -9 -5 -9 14 -1 17 -11
17 -69 0 -40 5 -73 12 -80 15 -15 54 -16 63 -2 4 6 -4 9 -17 7 -22 -2 -23 1
-26 70 -3 72 -3 72 25 76 l28 4 -27 2 c-24 1 -28 5 -28 31 0 17 -4 30 -10 30
-5 0 -10 -11 -10 -25z"/>
<path d="M1530 1267 c-20 -8 -22 -11 -7 -14 14 -4 17 -16 17 -68 0 -50 -4 -66
-17 -74 -14 -8 -8 -10 27 -10 25 0 39 3 33 6 -9 3 -13 27 -13 69 0 59 2 65 24
76 45 20 56 6 56 -71 0 -46 -4 -71 -12 -74 -7 -3 7 -6 32 -6 35 0 41 2 28 10
-14 8 -18 23 -18 70 0 33 -5 69 -10 80 -13 23 -47 25 -77 4 -19 -13 -23 -13
-30 -1 -6 10 -14 11 -33 3z"/>
<path d="M1760 1268 c-22 -8 -23 -10 -7 -19 13 -8 17 -23 17 -69 0 -46 -4 -61
-17 -69 -14 -8 -9 -10 26 -11 38 0 42 2 28 13 -12 9 -17 31 -19 88 l-3 76 -25
-9z"/>
<path d="M2077 1260 c-34 -27 -44 -78 -23 -118 25 -48 89 -59 122 -19 10 12
12 16 4 10 -24 -21 -77 -16 -94 9 -28 40 -21 48 44 48 60 0 60 0 60 29 0 56
-65 79 -113 41z m78 -10 c26 -28 4 -52 -44 -48 -30 2 -35 7 -33 23 4 21 28 45
47 45 7 0 20 -9 30 -20z"/>
<path d="M2250 1267 c-20 -8 -22 -11 -7 -14 14 -4 17 -16 17 -68 0 -50 -4 -66
-17 -74 -14 -8 -6 -10 32 -10 28 1 42 3 33 6 -22 6 -34 68 -20 105 5 15 6 28
2 28 -5 0 -10 8 -12 19 -3 16 -7 17 -28 8z"/>
<path d="M2312 1268 c-8 -10 -3 -14 19 -15 20 -2 29 2 29 12 0 18 -34 20 -48
3z"/>
<path d="M2422 1274 c-19 -8 -33 -40 -26 -59 4 -9 26 -25 50 -36 30 -12 44
-24 44 -38 0 -34 -68 -45 -77 -11 -7 27 -25 25 -21 -2 2 -19 10 -24 40 -26 52
-4 78 12 78 49 0 26 -6 32 -45 49 -32 14 -45 25 -45 39 0 36 63 38 74 3 2 -10
4 -6 3 8 -2 20 -8 25 -32 27 -16 1 -36 -1 -43 -3z"/>
<path d="M2570 1268 c-22 -8 -23 -10 -7 -19 13 -8 17 -23 17 -69 0 -46 -4 -61
-17 -69 -14 -8 -9 -10 26 -11 38 0 42 2 28 13 -12 9 -17 31 -19 88 l-3 76 -25
-9z"/>
<path d="M3097 1260 c-34 -27 -44 -78 -23 -118 16 -32 34 -42 71 -42 37 0 55
10 71 42 30 58 -11 138 -71 138 -12 0 -34 -9 -48 -20z m79 -4 c23 -17 27 -103
5 -129 -39 -48 -98 3 -88 75 8 60 43 83 83 54z"/>
<path d="M1846 1262 c6 -4 26 -42 44 -84 17 -43 35 -78 39 -78 3 0 19 35 35
78 16 42 34 80 40 84 6 4 -5 7 -24 7 -19 -1 -27 -3 -17 -6 19 -5 18 -15 -13
-88 l-17 -40 -21 58 c-26 69 -26 64 -4 70 9 3 -3 5 -28 6 -25 0 -40 -3 -34 -7z"/>
<path d="M2777 1262 c14 -9 73 -147 73 -171 0 -33 -28 -59 -56 -53 -20 4 -25
1 -22 -9 7 -21 37 -23 58 -4 10 9 35 62 55 118 21 56 44 108 53 115 13 10 10
12 -24 11 -21 -1 -31 -3 -21 -6 21 -5 18 -28 -10 -92 l-15 -36 -18 40 c-31 71
-33 83 -13 88 10 3 -2 5 -27 6 -25 0 -40 -3 -33 -7z"/>
<path d="M1240 895 c0 -41 4 -55 14 -55 9 0 17 15 21 40 l7 40 49 0 49 0 0
-174 0 -173 -30 -6 c-62 -13 -30 -27 60 -27 89 0 122 14 61 26 -38 8 -41 21
-41 179 0 174 0 175 61 175 45 0 49 -2 49 -24 0 -35 10 -56 26 -56 15 0 19 46
8 88 -6 22 -9 22 -170 22 l-164 0 0 -55z"/>
<path d="M2977 903 c-4 -3 -7 -19 -7 -35 0 -23 -6 -31 -30 -39 -36 -13 -39
-29 -5 -29 l25 0 0 -114 c0 -91 3 -118 16 -130 18 -19 85 -21 102 -4 20 20 14
28 -13 16 -46 -21 -55 0 -55 123 l0 109 40 0 c29 0 40 4 40 15 0 11 -11 15
-40 15 l-40 0 0 40 c0 38 -14 52 -33 33z"/>
<path d="M1703 820 c-55 -28 -77 -73 -71 -151 3 -48 10 -65 33 -89 36 -37 89
-53 134 -40 65 18 101 71 101 147 0 114 -101 182 -197 133z m84 -10 c42 -15
58 -51 58 -131 0 -58 -4 -71 -24 -93 -24 -26 -61 -33 -96 -20 -26 10 -45 60
-45 119 0 63 21 112 53 125 12 5 22 9 23 9 1 1 15 -4 31 -9z"/>
<path d="M1992 819 c-43 -19 -49 -39 -11 -39 18 0 19 -8 19 -106 0 -97 -2
-106 -20 -111 -43 -11 -17 -23 50 -23 70 0 93 12 45 24 -24 6 -25 9 -25 85 0
66 4 83 23 112 13 19 30 32 38 30 8 -2 21 -5 29 -7 26 -7 47 13 34 33 -19 32
-52 28 -88 -10 l-33 -35 -9 33 -9 32 -43 -18z"/>
<path d="M2301 822 c-50 -25 -74 -63 -78 -124 -7 -93 46 -159 128 -160 89 -2
143 53 143 147 0 62 -30 116 -78 139 -44 21 -73 20 -115 -2z m114 -33 c17 -17
20 -33 20 -103 0 -104 -16 -129 -78 -124 -58 4 -82 40 -82 122 0 115 73 169
140 105z"/>
<path d="M2593 820 c-48 -21 -56 -40 -18 -40 l25 0 0 -104 c0 -96 -2 -105 -20
-111 -40 -13 -18 -25 45 -25 63 0 86 12 45 23 -18 5 -20 14 -20 104 0 98 0 99
29 116 40 24 77 22 95 -5 12 -16 16 -47 16 -115 0 -90 -1 -93 -25 -99 -48 -12
-25 -24 45 -24 40 0 70 4 70 10 0 6 -7 10 -15 10 -25 0 -35 36 -35 135 0 90
-2 98 -26 122 -21 21 -32 24 -60 20 -19 -3 -47 -15 -63 -26 -37 -26 -39 -26
-43 4 l-3 24 -42 -19z"/>
<path d="M3211 822 c-50 -25 -74 -63 -78 -124 -9 -120 88 -193 195 -149 102
43 101 226 -2 275 -44 21 -73 20 -115 -2z m114 -33 c17 -17 20 -33 20 -103 0
-104 -16 -129 -78 -124 -58 4 -82 40 -82 122 0 115 73 169 140 105z"/>
<path d="M2160 256 c0 -41 -1 -43 -25 -38 -31 5 -55 -13 -55 -43 0 -30 20 -45
58 -42 l32 2 0 83 c0 45 -2 82 -5 82 -3 0 -5 -20 -5 -44z m-11 -60 c13 -16 -1
-56 -19 -56 -33 0 -55 42 -33 63 11 12 40 8 52 -7z"/>
<path d="M3083 215 c0 -50 1 -81 4 -70 2 11 6 30 9 43 8 39 38 23 45 -23 l7
-40 -2 45 c-1 41 -3 45 -28 48 -24 3 -27 8 -31 45 -2 23 -4 2 -4 -48z"/>
<path d="M1260 250 c-40 -40 -12 -120 41 -120 26 0 59 18 59 32 0 6 -8 4 -18
-5 -23 -21 -41 -21 -70 -1 -32 22 -30 69 4 91 25 16 28 16 55 0 16 -9 29 -12
29 -7 0 13 -34 30 -59 30 -12 0 -30 -9 -41 -20z"/>
<path d="M1402 258 c-20 -20 -14 -38 23 -59 19 -12 35 -27 35 -35 0 -21 -29
-29 -51 -15 -11 6 -19 7 -19 1 0 -16 49 -23 65 -10 24 20 17 43 -21 68 -29 19
-33 26 -23 38 7 9 20 12 32 8 13 -4 17 -2 13 5 -9 15 -39 14 -54 -1z"/>
<path d="M1515 245 c-14 -13 -25 -33 -25 -45 0 -28 44 -70 73 -70 13 0 32 10
43 22 l19 21 -27 -18 c-35 -22 -75 -13 -90 20 -26 57 35 104 90 71 l27 -17
-24 20 c-31 28 -57 26 -86 -4z"/>
<path d="M1650 200 l0 -70 38 1 c36 1 36 2 7 8 -21 4 -31 13 -33 29 -3 18 1
22 22 22 14 0 26 5 26 11 0 5 -10 9 -22 7 -19 -2 -23 2 -23 22 0 19 6 26 30
31 29 6 29 7 -7 8 l-38 1 0 -70z"/>
<path d="M1822 258 c-20 -20 -14 -38 23 -59 19 -12 35 -27 35 -35 0 -21 -29
-29 -51 -15 -11 6 -19 7 -19 1 0 -16 49 -23 65 -10 24 20 17 43 -21 68 -29 19
-33 26 -23 38 7 9 20 12 32 8 13 -4 17 -2 13 5 -9 15 -39 14 -54 -1z"/>
<path d="M2550 199 l0 -70 36 3 c45 4 65 29 47 58 -8 12 -9 21 -3 25 27 16 -9
55 -51 55 l-29 0 0 -71z m68 48 c14 -16 4 -32 -26 -41 -24 -8 -39 12 -28 39 7
18 40 20 54 2z m9 -73 c7 -19 -13 -34 -44 -34 -18 0 -23 6 -23 25 0 21 5 25
30 25 19 0 33 -6 37 -16z"/>
<path d="M1921 243 c0 -13 -7 -23 -13 -23 -10 0 -10 -2 -1 -8 6 -4 13 -23 15
-41 2 -20 9 -36 18 -39 12 -4 13 -2 3 9 -19 20 -16 67 5 72 15 4 15 5 0 6 -9
0 -19 11 -21 24 l-4 22 -2 -22z"/>
<path d="M2430 240 c-3 -14 -3 -43 0 -65 4 -30 10 -41 25 -43 18 -2 18 -2 3 8
-11 6 -18 23 -18 40 0 19 6 30 18 33 15 4 15 5 0 6 -9 0 -18 11 -20 24 -3 21
-4 21 -8 -3z"/>
<path d="M1981 189 c-1 -43 21 -69 47 -52 11 6 18 25 19 49 1 37 0 33 -13 -24
-8 -39 -38 -23 -45 23 l-6 40 -2 -36z"/>
<path d="M2210 205 c-31 -38 27 -96 65 -65 21 18 11 24 -13 9 -17 -10 -23 -10
-36 0 -26 22 -19 31 24 31 41 0 49 7 28 28 -17 17 -53 15 -68 -3z m65 -5 c4
-6 -7 -10 -25 -10 -18 0 -29 4 -25 10 3 6 15 10 25 10 10 0 22 -4 25 -10z"/>
<path d="M2321 173 c1 -26 3 -39 6 -28 2 11 6 30 9 43 8 39 38 23 45 -23 l7
-40 -2 45 c-1 43 -2 45 -33 48 l-33 3 1 -48z"/>
<path d="M2671 170 l1 -45 8 35 c5 18 16 39 25 46 14 10 13 12 -9 10 -24 -1
-26 -5 -25 -46z"/>
<path d="M2752 208 c-16 -16 -15 -53 1 -66 6 -5 31 -9 55 -9 24 1 38 3 32 5
-5 2 -10 20 -10 41 0 35 -2 37 -33 39 -18 1 -38 -3 -45 -10z m59 -14 c9 -11
10 -20 2 -32 -13 -22 -43 -22 -56 -1 -24 38 25 68 54 33z"/>
<path d="M2871 173 l2 -48 6 40 c7 46 37 62 45 23 3 -13 7 -32 9 -43 3 -11 5
-4 6 16 1 40 -13 59 -46 59 -21 0 -23 -4 -22 -47z"/>
<path d="M2982 208 c-17 -17 -15 -53 3 -68 16 -13 65 -6 65 10 0 6 -8 5 -19
-2 -15 -9 -23 -9 -35 1 -37 31 -4 77 36 52 16 -10 19 -10 16 1 -6 17 -50 22
-66 6z"/>
</g>
</svg>
