<svg xmlns="http://www.w3.org/2000/svg" viewBox="0 0 139.303 155.709"><defs><style>.a{fill:#59611d;}.b{fill:#fff;}.c{fill:#e1251b;}.d{fill:white;stroke:#231f20;stroke-width:0.25px;}</style></defs><path class="a" d="M146.969,22.613a1,1,0,0,0-.928-.885c-2.3-.15-56.5-3.673-62.833-3.728-6.948-.027-59.517,3.574-61.75,3.728a1,1,0,0,0-.921.864c-9.195,58.185,8.35,96.138,24.69,117.727,17.725,23.42,37.945,33.2,38.147,33.293a1.01,1.01,0,0,0,.429.1,1,1,0,0,0,.43-.1c.2-.1,20.4-9.895,38.1-33.325C138.648,118.689,156.163,80.741,146.969,22.613Z" transform="translate(-18 -18)"></path><path class="b" d="M120.41,137.632c-16.92,22.395-36.2,31.75-36.392,31.842a.494.494,0,0,1-.429,0c-.193-.092-19.49-9.423-36.427-31.8-15.624-20.646-32.4-56.946-23.6-112.63a.5.5,0,0,1,.459-.421c.525-.036,52.494-3.635,59.205-3.575,6.066.048,59.735,3.54,60.277,3.575a.5.5,0,0,1,.461.421C152.773,80.673,136.018,116.975,120.41,137.632ZM25.251,26.519C8.605,131.825,83.8,167.552,83.8,167.552s75.132-35.813,58.482-141.033c0,0-53.051-3.455-59.043-3.5-6.6-.058-57.991,3.5-57.991,3.5" transform="translate(-18 -18)"></path><path class="b" d="M114.773,130.146c-14.394,19.049-30.8,27.007-30.964,27.085a.49.49,0,0,1-.215.049.5.5,0,0,1-.214-.048c-.164-.079-16.583-8.019-30.991-27.059C39.1,112.612,24.832,81.739,32.321,34.385a.434.434,0,0,1,.459-.427c1.821-.126,44.694-3.07,50.335-3.034,5.146.041,50.772,3,51.232,3.034a.5.5,0,0,1,.352.179.524.524,0,0,1,.115.248C142.3,81.7,128.05,112.577,114.773,130.146Zm-80.945-94.5C19.674,125.169,83.594,155.527,83.594,155.527s63.867-30.435,49.7-119.881c0,0-45.081-2.93-50.174-2.968-5.624-.055-49.293,2.968-49.293,2.968" transform="translate(-18 -18)"></path><path class="b" d="M48.681,46.3a7.363,7.363,0,0,1,5.474-2.189q4.432,0,6.483,2.933a6.386,6.386,0,0,1,1.222,3.3H58.142a5.034,5.034,0,0,0-.907-1.922,3.666,3.666,0,0,0-2.945-1.149A3.6,3.6,0,0,0,51.161,48.9a7.894,7.894,0,0,0-1.154,4.6,7,7,0,0,0,1.213,4.466,3.8,3.8,0,0,0,3.073,1.483,3.493,3.493,0,0,0,2.918-1.279,5.563,5.563,0,0,0,.921-2.051h3.687a7.938,7.938,0,0,1-2.441,4.706,7.09,7.09,0,0,1-5.03,1.821A7.582,7.582,0,0,1,48.377,60.2a9.853,9.853,0,0,1-2.164-6.748c0-3.094.82-5.471,2.468-7.15" transform="translate(-18 -18)"></path><path class="b" d="M70.923,56.688A3.657,3.657,0,0,0,71.6,58.5a3.926,3.926,0,0,0,3.167,1.1,6.825,6.825,0,0,0,2.18-.288,2.056,2.056,0,0,0,1.588-2.051,1.508,1.508,0,0,0-.776-1.36,8.323,8.323,0,0,0-2.469-.828l-1.925-.422a12.042,12.042,0,0,1-3.905-1.357,4.323,4.323,0,0,1-1.792-3.829,5.072,5.072,0,0,1,1.754-3.954,7.515,7.515,0,0,1,5.166-1.572,7.93,7.93,0,0,1,4.859,1.48,5.256,5.256,0,0,1,2.109,4.306H77.987a2.548,2.548,0,0,0-1.438-2.268,4.886,4.886,0,0,0-2.219-.444,4.273,4.273,0,0,0-2.351.57,1.851,1.851,0,0,0-.876,1.614,1.525,1.525,0,0,0,.87,1.417,11.084,11.084,0,0,0,2.357.734l3.125.734a7.943,7.943,0,0,1,3.078,1.284,4.344,4.344,0,0,1,1.584,3.615,5.083,5.083,0,0,1-1.883,4.036,7.991,7.991,0,0,1-5.318,1.6,8.719,8.719,0,0,1-5.523-1.575,5.217,5.217,0,0,1-2.018-4.348h3.548" transform="translate(-18 -18)"></path><path class="b" d="M89.846,46.3a7.333,7.333,0,0,1,5.46-2.189c2.96,0,5.12.98,6.505,2.933a6.55,6.55,0,0,1,1.213,3.3h-3.73a4.823,4.823,0,0,0-.9-1.922,4.048,4.048,0,0,0-6.073.479,7.858,7.858,0,0,0-1.148,4.6,6.938,6.938,0,0,0,1.214,4.466,3.8,3.8,0,0,0,3.077,1.483,3.47,3.47,0,0,0,2.908-1.279,5.484,5.484,0,0,0,.919-2.051h3.7a7.983,7.983,0,0,1-2.442,4.706,7.1,7.1,0,0,1-5.028,1.821A7.547,7.547,0,0,1,89.545,60.2a9.833,9.833,0,0,1-2.177-6.748c0-3.094.821-5.471,2.478-7.15" transform="translate(-18 -18)"></path><polygon class="b" points="104.559 29.582 95.147 29.582 95.147 33.349 103.774 33.349 103.774 36.42 95.147 36.42 95.147 40.972 104.992 40.972 104.992 44.157 91.518 44.157 91.518 26.446 104.559 26.446 104.559 29.582"></polygon><path class="b" d="M69.209,70.143a7.325,7.325,0,0,1,5.468-2.18c2.958,0,5.122.966,6.491,2.929a6.327,6.327,0,0,1,1.214,3.3H78.671a5.086,5.086,0,0,0-.913-1.921,3.676,3.676,0,0,0-2.944-1.156,3.616,3.616,0,0,0-3.13,1.627,7.915,7.915,0,0,0-1.152,4.609,6.986,6.986,0,0,0,1.211,4.465,3.819,3.819,0,0,0,3.08,1.484,3.512,3.512,0,0,0,2.913-1.272,5.569,5.569,0,0,0,.917-2.054h3.689a7.934,7.934,0,0,1-2.437,4.706A7.138,7.138,0,0,1,74.87,86.5a7.562,7.562,0,0,1-5.962-2.449,9.841,9.841,0,0,1-2.169-6.755q0-4.629,2.47-7.148" transform="translate(-18 -18)"></path><path class="b" d="M78.775,98.421a3.478,3.478,0,0,0-2.063-2.537,5.149,5.149,0,0,0-2.035-.389A4.447,4.447,0,0,0,71.144,97.1a7.31,7.31,0,0,0-1.38,4.849c0,2.176.5,3.716,1.5,4.623a4.913,4.913,0,0,0,3.4,1.347,4.431,4.431,0,0,0,3.057-1.061,4.629,4.629,0,0,0,1.482-2.8H75.088V101.1h7.406v9.5H80.032l-.374-2.209a8.229,8.229,0,0,1-1.935,1.764,6.727,6.727,0,0,1-3.615.905,7.543,7.543,0,0,1-5.787-2.435,9.259,9.259,0,0,1-2.359-6.7,9.805,9.805,0,0,1,2.378-6.9,8.14,8.14,0,0,1,6.291-2.594,8.253,8.253,0,0,1,5.445,1.717,6.353,6.353,0,0,1,2.358,4.266H78.775" transform="translate(-18 -18)"></path><path class="b" d="M69.209,119.355a7.326,7.326,0,0,1,5.468-2.2c2.958,0,5.122.989,6.491,2.942a6.327,6.327,0,0,1,1.214,3.3H78.671a5.132,5.132,0,0,0-.913-1.921,3.664,3.664,0,0,0-2.944-1.157,3.627,3.627,0,0,0-3.13,1.635,7.887,7.887,0,0,0-1.152,4.6,7.014,7.014,0,0,0,1.211,4.466,3.809,3.809,0,0,0,3.08,1.482,3.511,3.511,0,0,0,2.913-1.271,5.557,5.557,0,0,0,.917-2.06h3.689a7.936,7.936,0,0,1-2.437,4.715,7.125,7.125,0,0,1-5.035,1.814,7.561,7.561,0,0,1-5.962-2.453,9.823,9.823,0,0,1-2.169-6.758q0-4.631,2.47-7.14" transform="translate(-18 -18)"></path><path class="b" d="M107.479,114.369h-1.755v-9.032l-10.2,1.346,1.556-2.584c.12-.206.113-.212-.046-.362l-8.986-6.452,3.16-.737a.352.352,0,0,0,.19-.512l-1.507-4.6,4.73,1.517c.275.035.341.008.423-.138L95,88.991l6.117,6.083c0-.013-.01-.028-.017-.044L98.716,83.38l4.515,2.084a.552.552,0,0,0,.462-.031l2.155-6.817,2.167,6.816a.549.549,0,0,0,.478.022l4.492-2.073L110.622,95c-.014.033-.026.061-.034.085l6.139-6.095-.058,3.822c.087.149.154.174.452.133l4.711-1.511-1.522,4.594c-.091.258-.029.4.229.529l3.123.73-8.989,6.465c-.157.143-.157.143-.029.345l1.558,2.6-8.723-1.382Z" transform="translate(-18 -18)"></path><path class="b" d="M96.8,119.387V118.5a7.755,7.755,0,0,0,.873-.076,1.238,1.238,0,0,0,.638-.349,1.049,1.049,0,0,0,.249-.478.8.8,0,0,0,.062-.266h1.085v6.633H98.369v-4.573H96.8" transform="translate(-18 -18)"></path><path class="b" d="M101.894,121.105a1.631,1.631,0,0,1,.738-.677,1.563,1.563,0,0,1-.638-.689,2.266,2.266,0,0,1-.141-.708,1.629,1.629,0,0,1,.55-1.23,2.607,2.607,0,0,1,3.095,0,1.624,1.624,0,0,1,.549,1.23,1.988,1.988,0,0,1-.14.708,1.312,1.312,0,0,1-.63.643,1.794,1.794,0,0,1,.736.723,1.9,1.9,0,0,1,.258,1.01,1.878,1.878,0,0,1-.631,1.429,2.4,2.4,0,0,1-1.739.6,2.239,2.239,0,0,1-1.691-.6,1.963,1.963,0,0,1-.582-1.429,1.984,1.984,0,0,1,.266-1.01m1.359,1.688a.921.921,0,0,0,.7.266.939.939,0,0,0,.7-.266,1.073,1.073,0,0,0,.255-.761,1.093,1.093,0,0,0-.255-.773.96.96,0,0,0-.7-.256.92.92,0,0,0-.7.256,1.065,1.065,0,0,0-.265.773,1.035,1.035,0,0,0,.257.761m.078-3.025a.783.783,0,0,0,.627.231.765.765,0,0,0,.616-.231.84.84,0,0,0,.225-.58.9.9,0,0,0-.225-.623.83.83,0,0,0-.616-.214.849.849,0,0,0-.627.214.888.888,0,0,0-.215.623.828.828,0,0,0,.215.58" transform="translate(-18 -18)"></path><path class="b" d="M107.129,121.105a1.609,1.609,0,0,1,.745-.677,1.523,1.523,0,0,1-.644-.689,1.993,1.993,0,0,1-.142-.708,1.651,1.651,0,0,1,.554-1.23,2.177,2.177,0,0,1,1.544-.509,2.213,2.213,0,0,1,1.556.509,1.645,1.645,0,0,1,.545,1.23,2.032,2.032,0,0,1-.148.708,1.267,1.267,0,0,1-.632.643,1.786,1.786,0,0,1,.744.723,2.052,2.052,0,0,1,.26,1.01,1.877,1.877,0,0,1-.633,1.429,2.4,2.4,0,0,1-1.728.6,2.284,2.284,0,0,1-1.71-.6,2.055,2.055,0,0,1-.311-2.439m1.356,1.688a1.074,1.074,0,0,0,1.415,0,1.256,1.256,0,0,0-.005-1.534.948.948,0,0,0-.709-.256.925.925,0,0,0-.7.256,1.287,1.287,0,0,0,0,1.534m.082-3.025a.957.957,0,0,0,1.247,0,.827.827,0,0,0,.213-.58.887.887,0,0,0-.213-.623,1.015,1.015,0,0,0-1.247,0,.892.892,0,0,0-.223.623.834.834,0,0,0,.223.58" transform="translate(-18 -18)"></path><path class="b" d="M116.833,118.434a7.723,7.723,0,0,0-.835,1.025,8.707,8.707,0,0,0-.872,1.524,9.378,9.378,0,0,0-.509,1.515,6.283,6.283,0,0,0-.221,1.462h-1.371a8.01,8.01,0,0,1,1.193-3.712,8.166,8.166,0,0,1,1.2-1.662H112.1l.021-1.169h4.715v1.017" transform="translate(-18 -18)"></path><path class="c" d="M106.056,114.037h1.091v-9.115l8.4,1.332-1.19-1.984a.5.5,0,0,1,.1-.777l8.412-6.051-2.449-.576a.7.7,0,0,1-.432-.947l1.316-3.97L117.2,93.267c-.413.061-.643.024-.839-.334l-.021-.038v-.044l.047-3.051-5.768,5.726-.085-.016a.351.351,0,0,1-.267-.17.524.524,0,0,1,.045-.444l2.221-10.939L108.6,85.765a.906.906,0,0,1-.8-.067l-.063-.031-.021-.067-1.87-5.885-1.881,5.951-.062.031a.918.918,0,0,1-.786.079l-3.947-1.819,2.24,10.975a.486.486,0,0,1,.024.412.341.341,0,0,1-.253.166l-.086.017-.062-.062-5.7-5.667.033,3.095-.019.036c-.184.36-.426.4-.811.345l-4.137-1.326,1.3,3.975a.676.676,0,0,1-.366.929l-.039.014-2.469.577,8.408,6.039a.518.518,0,0,1,.122.786l-1.2,2,9.9-1.305Z" transform="translate(-18 -18)"></path></svg>