<?xml version="1.0" standalone="no"?>
<!DOCTYPE svg PUBLIC "-//W3C//DTD SVG 20010904//EN"
 "http://www.w3.org/TR/2001/REC-SVG-20010904/DTD/svg10.dtd">
<svg version="1.0" xmlns="http://www.w3.org/2000/svg"
 width="1200.000000pt" height="1200.000000pt" viewBox="0 0 1200.000000 1200.000000"
 preserveAspectRatio="xMidYMid meet">

<g transform="translate(0.000000,1200.000000) scale(0.100000,-0.100000)"
fill="#000000" stroke="none">
<path d="M5460 11835 c-20 -21 -22 -31 -17 -77 3 -29 9 -65 13 -80 5 -23 3
-28 -13 -28 -23 0 -48 -25 -57 -57 -6 -20 -9 -20 -34 -7 -35 18 -76 18 -112
-1 -61 -32 -75 -89 -41 -175 l17 -45 -28 -27 c-23 -21 -28 -35 -28 -71 0 -55
30 -89 101 -114 54 -20 61 -30 26 -38 -15 -4 -37 2 -59 15 -81 47 -140 47
-189 -2 -41 -42 -40 -91 4 -149 l33 -44 -16 -50 c-17 -51 -30 -45 -30 15 0 43
-16 77 -46 96 -25 17 -29 17 -54 2 -32 -18 -40 -15 -40 16 0 12 -9 40 -20 63
-29 66 -95 71 -126 12 l-15 -31 -24 26 c-47 51 -98 53 -140 6 -16 -18 -20 -35
-19 -94 2 -69 1 -71 -30 -91 -23 -15 -32 -29 -34 -53 -4 -43 18 -76 73 -111
41 -26 43 -29 27 -43 -11 -11 -24 -13 -37 -8 -11 5 -35 9 -53 9 -39 1 -82 -36
-82 -71 0 -20 -5 -23 -41 -24 -32 0 -47 -6 -65 -27 -56 -65 -37 -151 41 -189
37 -18 44 -25 39 -44 -3 -13 -1 -39 6 -58 14 -44 45 -54 109 -36 67 19 101 23
101 14 -1 -20 -29 -44 -51 -44 -28 0 -42 -9 -55 -32 -8 -15 -13 -14 -53 13
-83 55 -161 33 -161 -47 l0 -31 -48 5 c-63 6 -101 -23 -109 -83 -6 -49 19 -86
77 -111 33 -15 39 -21 33 -38 -29 -87 66 -148 156 -101 31 15 41 12 41 -16 0
-10 -13 -21 -32 -28 -50 -18 -68 -40 -68 -82 0 -59 33 -91 102 -97 54 -4 56
-6 62 -37 15 -77 100 -95 180 -37 26 17 51 32 56 32 5 0 16 -13 24 -29 14 -27
14 -30 -9 -51 -30 -28 -55 -80 -55 -113 0 -13 9 -36 21 -51 27 -34 70 -34 145
-1 65 29 74 30 74 12 0 -23 35 -47 68 -47 69 0 110 33 149 119 22 50 25 52 42
37 32 -29 59 -20 91 30 16 26 37 69 45 95 10 30 23 49 32 49 24 0 145 -124
182 -187 19 -32 79 -131 133 -220 l99 -162 -16 -62 c-40 -154 -100 -221 -276
-309 -67 -34 -158 -84 -201 -111 -44 -27 -90 -49 -102 -49 -13 0 -44 -6 -70
-14 -41 -13 -53 -13 -88 0 -109 38 -233 -7 -267 -99 -16 -41 -13 -133 4 -166
36 -71 114 -107 209 -96 77 8 108 8 176 0 37 -5 68 -2 95 7 35 12 46 12 75 0
24 -10 52 -12 90 -7 75 9 97 9 155 0 34 -5 63 -2 90 7 35 12 46 12 75 0 23 -9
52 -12 89 -7 31 3 74 5 96 4 22 -1 64 -1 93 -1 28 1 72 1 97 1 25 0 75 0 113
0 37 0 85 0 107 -1 22 0 64 0 93 0 28 1 72 1 97 1 116 0 177 0 203 2 15 1 52
-2 82 -6 39 -5 67 -3 97 8 37 12 49 13 80 1 58 -20 140 -17 190 7 74 36 116
134 93 220 -29 106 -169 170 -275 125 -41 -17 -96 0 -135 43 -18 19 -70 51
-128 77 -275 128 -313 153 -371 243 -41 63 -61 158 -61 292 0 222 71 372 224
471 32 21 62 38 65 38 4 0 15 -31 25 -70 19 -75 53 -116 89 -106 14 3 23 -5
36 -37 40 -93 105 -136 156 -103 23 15 27 14 74 -15 54 -34 94 -34 125 0 13
14 25 17 49 12 46 -9 71 -3 96 23 29 31 30 80 2 110 -19 20 -20 27 -10 49 7
15 22 27 41 31 21 4 33 15 41 36 10 26 17 30 47 30 36 0 80 32 80 58 0 6 12
23 26 37 25 26 29 26 70 15 24 -7 55 -10 68 -6 25 6 56 50 56 79 0 11 11 13
48 10 37 -4 52 -1 74 16 30 24 48 75 41 115 -7 34 -55 74 -107 88 -39 10 -42
14 -42 44 0 80 -93 110 -181 60 l-42 -24 -15 24 c-9 13 -16 34 -16 48 0 15
-10 32 -26 43 l-27 20 38 1 c45 2 85 34 85 70 0 24 1 24 58 16 100 -15 143
-10 169 20 27 32 28 41 8 80 -9 16 -14 30 -13 31 99 64 123 126 75 196 -22 33
-25 34 -90 34 -67 0 -67 0 -67 28 0 17 -10 38 -26 54 -22 22 -24 29 -15 50 29
63 -2 137 -62 148 -18 3 -54 -1 -82 -9 -27 -8 -50 -14 -51 -13 -1 1 -4 25 -6
54 -4 46 -2 55 20 75 58 54 60 114 5 158 -25 20 -35 21 -94 16 -55 -5 -68 -3
-73 9 -3 9 -20 22 -38 29 -40 17 -79 7 -130 -35 l-38 -30 -35 21 c-43 27 -63
21 -110 -31 -29 -32 -39 -38 -50 -29 -11 9 -8 19 21 56 42 56 45 99 9 143 -53
63 -127 62 -193 -2 -27 -26 -34 -29 -42 -17 -5 8 -7 22 -5 31 3 9 1 29 -5 44
-9 24 -7 32 13 54 31 33 47 64 47 90 0 25 -46 80 -77 92 -20 7 -23 15 -23 59
0 41 -5 56 -25 75 -44 45 -130 28 -175 -35 -20 -28 -24 -30 -39 -16 -10 9 -32
19 -49 22 -18 4 -32 10 -32 15 0 13 -56 39 -83 39 -37 0 -65 -29 -92 -95 -24
-59 -24 -59 -62 -57 -86 7 -111 -62 -61 -169 l25 -56 -31 -11 c-17 -6 -39 -24
-48 -39 -16 -27 -16 -24 -15 93 2 131 -5 154 -49 154 -19 0 -24 5 -24 28 0 15
-9 46 -20 69 -21 47 -47 59 -105 50 -26 -4 -38 -1 -47 11 -54 72 -134 94 -178
47z m88 -39 c15 -8 42 -32 60 -55 36 -44 55 -50 83 -25 10 9 25 14 33 11 18
-7 36 -68 36 -125 0 -49 20 -64 49 -38 17 16 19 16 24 -3 2 -11 2 -49 0 -84
l-6 -65 -37 5 c-24 4 -46 0 -58 -9 -12 -8 -36 -12 -61 -10 -40 4 -41 5 -41 41
0 45 -32 116 -58 130 -32 17 -70 13 -92 -9 -23 -23 -40 -19 -40 11 0 20 5 23
51 33 38 8 42 31 19 93 -23 62 -25 84 -8 101 15 15 13 15 46 -2z m653 -55 c22
-17 24 -27 24 -97 0 -84 10 -98 53 -75 62 33 54 -96 -10 -166 -29 -31 -20 -56
25 -67 45 -11 46 -23 9 -95 -22 -44 -37 -59 -82 -83 -30 -16 -59 -33 -64 -39
-21 -20 -22 -6 -5 76 16 76 23 162 20 223 -1 32 -18 19 -26 -21 -4 -17 -20
-90 -37 -160 -24 -104 -33 -127 -47 -125 -10 2 -15 12 -13 28 1 14 5 48 8 76
9 77 -27 134 -85 134 -31 0 -26 19 7 26 46 10 52 13 58 29 4 9 -8 46 -25 84
-17 37 -31 77 -31 89 0 20 5 22 54 22 l55 0 21 58 c24 63 46 102 59 102 5 0
19 -9 32 -19z m303 3 c11 -10 16 -34 16 -70 l0 -55 45 -19 c35 -15 45 -25 45
-43 0 -14 -17 -40 -45 -67 -49 -48 -56 -69 -25 -77 26 -7 26 -33 1 -33 -31 0
-77 -46 -100 -100 -19 -44 -25 -50 -51 -50 -28 0 -29 1 -19 29 16 44 8 102
-16 115 -11 6 -21 11 -23 12 -1 1 9 26 24 58 20 44 24 65 19 96 -8 49 -39 90
-69 90 -18 0 -22 6 -23 35 l-1 35 28 -20 c15 -11 34 -20 42 -20 7 0 34 23 59
50 48 53 68 60 93 34z m-1112 -260 c26 -24 52 -44 58 -44 6 0 25 20 42 45 18
25 35 45 40 45 19 0 40 -53 47 -119 4 -39 10 -74 14 -78 4 -4 23 -1 42 6 19 7
39 9 45 6 16 -10 13 -105 -4 -105 -7 0 -25 -9 -40 -21 -30 -24 -34 -64 -10
-110 15 -30 15 -31 -8 -24 -13 4 -23 8 -24 9 -41 90 -72 141 -105 170 -40 37
-64 40 -52 8 4 -9 22 -41 40 -70 49 -77 49 -78 5 -74 -45 4 -63 -12 -67 -60
-1 -18 -5 -32 -9 -32 -4 1 -20 4 -36 8 -37 7 -37 18 -5 60 15 19 23 40 19 49
-3 9 -35 26 -71 38 -36 12 -74 30 -85 41 -26 26 -19 60 15 76 16 8 31 20 34
29 3 8 -7 46 -23 84 -30 76 -28 93 16 116 32 16 63 2 122 -53z m457 -169 c32
-30 65 -55 73 -55 8 0 23 9 34 21 l19 21 17 -22 c23 -29 23 -53 -3 -125 l-21
-59 22 -18 c13 -10 39 -18 61 -18 l38 0 -11 -30 c-5 -17 -23 -37 -39 -45 -32
-17 -49 -43 -49 -74 0 -26 -10 -26 -54 -1 -28 17 -36 30 -46 73 -23 99 -41
157 -51 157 -13 0 -11 -108 2 -171 9 -42 9 -53 -2 -60 -22 -14 -37 -10 -44 10
-3 11 -14 23 -24 26 -24 7 -45 53 -32 69 10 12 7 19 -52 104 -31 44 -29 62 8
62 43 0 55 24 48 93 -4 51 -2 66 11 80 10 9 22 17 27 17 6 0 36 -25 68 -55z
m958 13 c31 -29 29 -39 -17 -93 -45 -52 -49 -74 -20 -100 38 -35 17 -72 -66
-113 -60 -30 -70 -46 -50 -77 20 -30 11 -54 -28 -74 -33 -18 -56 -8 -56 24 0
46 -26 83 -61 87 l-31 3 61 69 c63 71 71 86 47 86 -17 0 -57 -30 -117 -88
l-47 -44 -7 33 c-4 18 -16 53 -27 78 -21 50 -13 64 34 54 26 -5 30 -2 54 53
25 58 59 104 76 104 5 0 16 -16 25 -35 23 -47 47 -45 108 10 56 50 87 56 122
23z m385 -138 c24 -33 37 -36 102 -18 40 11 47 10 66 -7 29 -26 25 -39 -21
-78 -37 -32 -40 -38 -34 -70 7 -35 6 -36 -35 -47 -28 -7 -56 -26 -83 -55 l-41
-43 -38 20 c-31 17 -68 60 -68 81 0 3 29 23 65 46 36 22 65 45 65 51 0 5 -2
10 -3 10 -14 0 -126 -43 -146 -57 -13 -8 -43 -17 -67 -19 -23 -1 -60 -12 -82
-23 l-40 -20 -16 24 c-9 13 -16 28 -16 33 0 5 33 44 73 87 l73 79 31 -22 c17
-12 35 -22 41 -22 5 0 33 18 63 40 30 21 62 39 71 40 10 0 27 -13 40 -30z
m-842 -127 c20 -64 25 -105 15 -115 -3 -3 -42 6 -86 19 -45 12 -91 23 -103 23
-11 0 -28 5 -36 10 -13 8 -12 13 6 37 23 32 151 104 171 96 7 -3 22 -34 33
-70z m-1138 15 c35 -18 71 -43 81 -56 10 -12 38 -27 62 -33 l44 -11 -5 -42
c-4 -27 0 -57 11 -86 10 -25 17 -63 16 -85 -1 -24 7 -53 18 -71 36 -59 159
-98 241 -77 33 9 35 8 55 -31 15 -31 18 -46 10 -58 -13 -24 -60 -23 -96 3 -20
14 -41 20 -69 18 -36 -3 -43 0 -59 26 -32 53 -55 67 -102 63 -40 -3 -46 0 -70
33 -15 19 -41 41 -58 49 -24 10 -31 18 -31 41 0 35 -10 42 -85 54 l-60 10 1
35 c0 19 4 46 8 60 5 19 -1 38 -29 80 -19 30 -35 58 -35 62 0 17 41 48 65 48
14 0 53 -15 87 -32z m-388 -30 c8 -18 17 -54 20 -80 9 -57 28 -72 67 -52 15 7
29 19 32 26 10 27 29 -11 36 -70 9 -77 24 -96 70 -88 19 3 40 1 47 -5 6 -5 35
-12 63 -16 41 -5 51 -9 49 -22 -3 -10 -12 -15 -28 -13 -78 9 -172 4 -234 -12
l-68 -18 -45 43 c-25 24 -58 68 -75 96 -34 61 -46 71 -54 48 -14 -36 28 -109
106 -187 63 -62 80 -86 85 -117 5 -30 3 -40 -10 -45 -9 -3 -21 -19 -26 -36 -6
-16 -15 -30 -20 -30 -5 0 -16 24 -24 54 -21 73 -35 83 -91 68 -56 -15 -74 -15
-74 0 0 6 -7 19 -16 29 -22 24 -11 47 26 60 47 17 39 44 -22 75 -52 26 -108
70 -108 86 0 4 18 19 40 33 l40 25 -3 76 c-2 63 1 78 15 87 14 10 24 5 57 -27
47 -46 67 -44 100 7 13 20 26 37 28 37 2 0 10 -15 17 -32z m676 18 c6 -8 37
-20 68 -27 45 -9 65 -19 95 -51 41 -43 41 -53 -3 -63 -16 -3 -65 -28 -109 -55
l-80 -48 -12 35 c-6 19 -8 53 -5 76 4 23 9 66 12 95 6 54 13 62 34 38z m1282
-126 c15 -22 35 -40 43 -40 9 0 37 11 63 25 55 29 79 31 104 8 25 -23 24 -28
-24 -84 -37 -42 -48 -49 -80 -49 -21 0 -55 -6 -75 -14 -21 -7 -57 -19 -79 -25
-46 -12 -114 -78 -114 -110 0 -26 -16 -35 -24 -15 -4 10 5 29 23 50 30 34 49
93 36 114 -4 6 10 29 30 52 33 36 37 45 32 79 -5 36 1 47 28 48 6 0 22 -18 37
-39z m-268 -26 c3 -9 6 -30 6 -48 0 -37 15 -56 46 -56 57 0 52 -59 -12 -121
-39 -38 -42 -52 -14 -72 27 -19 18 -38 -33 -71 -23 -15 -55 -38 -72 -51 l-30
-24 33 -12 c19 -6 32 -18 32 -28 0 -32 -102 -112 -188 -148 l-34 -14 6 38 c4
21 30 86 57 145 50 109 56 128 39 128 -20 0 -99 -137 -135 -235 -6 -17 -10
-15 -26 20 -27 56 -22 126 9 141 43 22 45 29 23 88 -26 71 -27 110 -1 136 17
17 23 18 39 8 28 -17 48 3 56 55 11 65 30 90 66 82 23 -5 36 0 66 24 42 35 58
38 67 15z m814 -26 c15 -32 36 -35 89 -13 55 23 91 20 105 -10 14 -32 -6 -64
-73 -111 -43 -31 -69 -61 -69 -77 0 -3 16 -14 35 -26 36 -21 46 -53 23 -67 -7
-4 -55 -10 -108 -13 -89 -6 -95 -7 -98 -28 -2 -13 4 -33 12 -45 40 -57 -7 -88
-136 -88 -114 0 -130 5 -121 39 10 40 49 87 103 121 52 34 156 138 146 147 -3
3 -40 -15 -81 -40 -42 -26 -78 -47 -81 -47 -4 0 -3 33 1 74 6 72 6 75 -18 90
-13 9 -32 14 -41 10 -23 -9 -10 23 15 36 27 15 51 12 79 -10 14 -11 31 -20 38
-20 7 0 37 25 66 56 62 63 91 69 114 22z m-1353 -83 c34 -36 66 -65 72 -65 6
0 25 11 41 25 28 23 30 24 45 7 11 -12 16 -36 16 -74 -1 -31 4 -73 11 -93 11
-34 10 -39 -15 -65 -39 -40 -42 -90 -13 -178 22 -65 23 -72 7 -72 -12 0 -20
14 -29 48 -24 101 -69 139 -127 109 -29 -15 -29 -15 -64 31 -19 25 -53 59 -77
75 -79 53 -90 96 -32 129 29 17 30 19 30 92 0 61 3 77 18 85 35 21 57 11 117
-54z m1047 -115 c-4 -66 -26 -131 -52 -155 -18 -16 -21 -16 -70 11 -60 33 -93
81 -94 138 -1 38 1 41 34 52 19 7 69 12 111 11 l75 -2 -4 -55z m526 18 c7 -7
12 -31 12 -54 0 -52 14 -59 86 -43 64 14 84 3 84 -47 0 -24 -7 -38 -26 -51
-77 -54 -80 -59 -66 -95 29 -71 16 -78 -104 -58 -86 15 -114 5 -114 -39 0 -41
-16 -49 -95 -50 -181 -2 -285 20 -282 59 1 17 9 20 54 20 90 0 154 19 191 56
30 30 33 39 28 68 -7 39 3 46 65 46 112 0 164 85 97 157 -19 20 -19 21 -1 32
24 14 56 14 71 -1z m-2408 -34 c29 -6 31 -9 26 -37 -8 -41 -58 -126 -95 -161
-29 -28 -31 -28 -54 -13 -32 21 -63 89 -71 154 l-7 52 43 4 c79 7 125 7 158 1z
m-597 -45 c14 -6 42 -34 63 -61 40 -54 36 -52 125 -32 24 5 27 3 33 -37 6 -36
4 -46 -13 -59 -11 -8 -25 -29 -31 -46 -14 -40 6 -95 44 -119 40 -27 34 -52
-16 -66 -24 -7 -52 -21 -64 -31 -20 -18 -21 -18 -37 0 -16 17 -16 22 -2 56 15
34 15 40 0 62 -23 35 -56 39 -131 14 -55 -19 -68 -20 -75 -9 -12 20 -11 24 11
44 34 31 25 52 -28 69 -72 24 -92 42 -92 80 0 44 14 54 80 58 l55 3 3 43 c3
37 6 42 27 42 13 0 35 -5 48 -11z m934 -89 c33 -62 36 -64 78 -50 47 15 65 2
41 -31 -18 -27 -21 -71 -5 -100 8 -15 6 -25 -10 -46 -31 -39 -27 -86 9 -116
16 -14 43 -28 60 -32 26 -6 30 -10 23 -28 -4 -12 -6 -43 -5 -68 3 -41 -1 -51
-32 -84 -60 -63 -83 -41 -111 105 -9 47 -21 109 -26 138 -6 28 -15 52 -20 52
-17 0 -22 -55 -12 -144 6 -50 10 -92 9 -94 -2 -1 -17 1 -33 4 -25 5 -32 13
-37 37 -4 18 -18 49 -31 69 -31 46 -31 61 -4 98 l22 28 -37 45 c-42 51 -45 73
-12 88 21 10 24 19 28 75 7 109 61 138 105 54z m1134 -89 c-14 -7 -35 -21 -46
-31 -39 -33 -45 -33 -39 -1 4 20 1 37 -7 48 -12 14 -12 17 0 21 8 3 30 20 50
38 l36 33 16 -47 16 -47 -26 -14z m-759 27 c16 -17 38 -49 49 -70 22 -42 44
-48 84 -22 43 28 54 14 85 -113 10 -42 12 -43 51 -43 34 0 40 -3 36 -17 -3
-10 -11 -46 -17 -80 -7 -35 -15 -63 -19 -63 -3 0 -30 24 -61 54 -76 76 -200
149 -200 118 0 -4 31 -33 69 -64 68 -55 121 -121 135 -165 7 -22 5 -23 -43
-23 -74 0 -101 13 -101 49 0 16 -3 32 -7 34 -5 3 -35 -4 -68 -14 -78 -25 -107
-22 -119 13 -8 22 -5 36 12 67 20 34 20 41 8 54 -8 8 -32 17 -54 21 -22 3 -50
15 -63 25 l-24 19 30 31 c29 31 29 31 13 74 -10 27 -12 50 -7 64 10 27 55 40
80 24 28 -17 47 -13 55 12 8 27 23 47 36 47 6 0 23 -14 40 -32z m-894 -29 c20
-23 44 -55 52 -72 23 -47 69 -69 143 -68 35 0 76 5 92 11 25 9 32 8 52 -13 23
-22 23 -25 8 -53 -8 -16 -15 -36 -15 -45 0 -9 -6 -21 -13 -27 -10 -9 -17 -4
-31 18 -17 30 -62 60 -90 60 -8 0 -24 -9 -35 -21 -18 -19 -21 -20 -49 -5 -26
14 -66 17 -193 17 -17 0 -30 8 -39 23 -7 13 -25 34 -41 45 -36 27 -39 67 -6
80 89 35 106 45 111 67 4 13 9 24 11 24 3 0 22 -19 43 -41z m1743 -79 c8 0 29
9 47 20 43 26 58 25 78 -5 16 -24 21 -26 88 -23 66 3 71 2 74 -18 2 -16 -8
-30 -40 -51 -41 -28 -43 -32 -40 -73 3 -54 -5 -59 -86 -59 -35 1 -66 -2 -69
-5 -3 -3 0 -19 7 -36 7 -17 10 -34 6 -37 -9 -9 -59 -8 -129 2 l-58 8 -12 -32
c-11 -30 -14 -32 -47 -26 -58 10 -110 28 -110 36 0 25 76 80 152 109 104 40
158 68 158 80 0 6 -8 10 -18 10 -32 0 -163 -37 -245 -69 l-79 -30 7 27 c7 30
50 108 65 117 5 3 18 0 29 -7 16 -10 25 -7 56 18 20 16 53 41 72 57 l36 27 22
-20 c12 -11 28 -20 36 -20z m-376 -179 c-15 -45 -48 -81 -62 -68 -2 3 -7 24
-10 46 -6 40 -5 41 38 60 24 10 46 17 48 15 1 -1 -5 -26 -14 -53z m931 16 c11
-7 37 -23 58 -36 37 -24 38 -25 18 -40 -11 -9 -32 -38 -46 -66 -27 -54 -51
-75 -105 -93 -49 -17 -50 -17 -76 41 -18 38 -25 69 -25 117 0 68 5 83 30 93
21 9 121 -2 146 -16z m-2341 -37 c-5 -21 -1 -40 12 -63 l20 -32 -49 -83 c-27
-45 -55 -82 -63 -82 -50 0 -146 188 -115 225 7 8 22 15 34 15 11 0 39 12 61
25 22 14 55 25 73 25 32 0 33 -1 27 -30z m157 3 l49 -28 24 30 24 29 26 -24
c14 -13 30 -41 35 -62 14 -49 46 -53 61 -8 6 17 15 30 20 30 17 0 40 -48 53
-111 14 -68 27 -81 56 -54 10 9 23 14 28 11 13 -8 32 -87 32 -136 0 -38 -2
-41 -22 -35 -29 9 -73 35 -170 101 -113 77 -153 85 -104 21 15 -20 60 -58 101
-87 66 -45 135 -114 124 -124 -25 -20 -175 -36 -191 -20 -3 3 1 23 10 45 19
49 10 59 -56 59 -45 0 -105 20 -117 40 -4 6 2 21 14 34 35 37 27 54 -34 71
-62 18 -70 36 -30 67 32 25 31 36 -5 78 -31 37 -38 68 -18 88 18 18 35 15 90
-15z m-641 -33 c30 -22 60 -39 68 -38 8 2 22 16 31 32 9 16 22 32 29 34 20 7
105 -88 118 -132 7 -22 11 -42 9 -44 -2 -2 -21 1 -43 7 -78 22 -279 3 -252
-23 3 -3 36 -8 74 -11 149 -13 156 -14 145 -35 -5 -10 -10 -35 -10 -55 l0 -37
-35 22 c-30 18 -45 21 -96 17 -34 -3 -73 -14 -93 -26 -39 -25 -55 -26 -81 -7
-18 13 -18 15 -2 39 30 45 22 60 -45 92 -57 27 -63 33 -63 60 l0 30 75 5 75 5
3 53 c4 66 19 68 93 12z m1802 -88 c8 -2 38 8 66 22 28 14 53 26 56 26 3 0 -6
-17 -19 -39 -64 -101 -82 -176 -101 -413 -5 -72 -4 -78 13 -78 12 0 50 37 102
101 45 55 84 99 86 97 2 -3 -2 -18 -8 -35 -15 -41 -5 -67 25 -58 12 3 42 9 67
11 l45 5 -57 -32 c-109 -60 -208 -177 -248 -292 -64 -182 -45 -448 42 -578 50
-74 116 -125 233 -179 186 -86 255 -121 255 -128 0 -4 -16 -12 -35 -18 -28 -9
-45 -8 -77 3 -23 8 -59 13 -80 11 -34 -2 -41 1 -54 27 -26 51 -46 66 -151 116
-174 83 -201 139 -233 473 -7 65 -15 128 -20 140 -7 19 -8 19 -16 -9 -14 -55
-9 -295 9 -368 37 -148 93 -217 233 -283 80 -37 134 -80 134 -104 0 -4 -22 -3
-49 3 -37 7 -61 6 -101 -6 -45 -13 -56 -13 -86 -1 -18 8 -48 14 -67 14 -28 0
-35 5 -45 33 -19 54 -56 82 -107 82 -55 0 -92 -26 -127 -92 l-27 -50 -52 16
-51 16 6 42 c3 23 26 82 50 130 42 81 65 151 66 196 0 43 -26 6 -97 -138 l-77
-155 -43 0 c-78 0 -134 -20 -178 -65 -39 -39 -43 -40 -71 -28 -39 17 -97 16
-139 -1 -19 -8 -35 -13 -35 -11 0 9 75 52 215 125 77 41 156 86 177 102 50 39
106 127 134 210 39 113 36 124 -68 296 -51 83 -109 180 -128 214 -44 78 -158
200 -212 227 l-40 20 43 11 c60 16 82 37 75 72 -5 23 -2 28 14 28 11 0 30 10
41 21 19 19 21 28 14 82 -6 61 -6 61 14 43 33 -30 51 -94 60 -213 7 -102 11
-120 46 -190 29 -58 58 -97 116 -155 85 -84 113 -99 137 -74 46 45 21 333 -40
463 -31 66 -103 136 -163 158 -28 10 -51 19 -53 21 -2 1 11 17 27 35 17 18 31
37 31 41 0 4 12 3 26 -2 17 -7 38 -7 63 0 57 16 58 15 64 -65 4 -50 14 -94 32
-132 34 -75 142 -258 162 -275 61 -51 125 302 80 445 -14 45 -14 47 4 47 21 0
36 30 47 90 l6 35 11 -40 c7 -22 19 -41 28 -43z m643 47 c3 -6 -11 -29 -32
-50 l-39 -40 18 -30 c9 -17 17 -37 17 -45 0 -20 -37 -39 -103 -53 -56 -12 -59
-14 -54 -39 14 -68 15 -66 -33 -78 -25 -6 -71 -14 -102 -17 l-58 -6 16 37 c23
57 43 82 76 100 42 23 88 62 88 74 0 30 -139 -29 -222 -94 -31 -24 -39 -27
-44 -15 -8 23 11 52 50 77 19 11 38 30 41 40 5 14 17 20 53 22 37 2 49 8 57
25 9 21 14 22 80 17 63 -5 74 -4 105 18 19 13 36 34 38 46 4 23 35 31 48 11z
m499 -39 c3 -11 13 -27 21 -35 13 -13 23 -10 80 20 36 19 74 35 84 35 28 0 43
-26 36 -64 -8 -40 3 -51 61 -61 52 -8 93 -39 93 -70 0 -34 -23 -47 -92 -49
l-62 -1 -8 -40 c-5 -22 -12 -43 -17 -48 -4 -4 -32 1 -62 12 -69 27 -73 26 -87
-5 -12 -24 -13 -25 -40 -9 -23 14 -27 22 -24 47 10 68 -41 104 -131 93 -38 -5
-57 -3 -62 5 -16 25 22 31 170 25 133 -5 148 -4 131 9 -19 15 -100 36 -140 36
-35 0 -37 10 -12 44 13 17 27 41 31 54 8 27 22 28 30 2z m-953 -56 l32 -16
-30 -22 c-60 -43 -74 -63 -74 -106 0 -23 5 -50 10 -61 9 -15 4 -25 -24 -56
l-35 -38 -1 46 c0 26 4 70 10 99 11 59 58 170 72 170 5 0 23 -7 40 -16z m-395
-69 c54 1 62 -2 67 -20 12 -42 5 -173 -12 -240 l-18 -70 -28 43 c-72 114 -106
191 -120 270 -5 31 -5 32 22 25 15 -5 55 -8 89 -8z m-1256 -52 c28 -18 38 -33
43 -63 4 -28 16 -47 43 -69 29 -24 35 -33 25 -43 -7 -7 -12 -22 -12 -35 0 -18
-6 -23 -26 -23 -16 0 -39 -13 -60 -34 -21 -21 -41 -33 -50 -29 -8 3 -40 -11
-70 -31 -73 -49 -104 -46 -122 9 -16 48 -25 55 -79 55 -30 0 -49 6 -64 21 -27
27 -21 40 34 66 47 23 47 23 47 73 0 59 10 63 71 24 24 -15 51 -24 67 -22 25
3 27 7 32 62 4 47 9 61 25 67 26 10 52 2 96 -28z m2239 -53 c25 0 61 4 79 10
25 7 39 6 49 -3 9 -7 46 -12 91 -12 l76 0 -3 -47 c-3 -45 -2 -49 32 -69 37
-22 40 -27 30 -53 -4 -11 -19 -16 -51 -16 -41 0 -45 -2 -59 -36 -15 -35 -17
-36 -54 -30 -73 12 -93 23 -86 51 13 52 -21 76 -126 91 -38 5 -48 10 -48 25 0
11 -9 28 -21 40 -17 17 -31 20 -91 18 -55 -2 -72 1 -79 13 -7 13 -2 17 28 23
21 3 48 12 61 19 20 10 32 9 75 -5 29 -10 72 -18 97 -19z m-1322 14 c82 -34
141 -120 168 -246 20 -95 31 -268 17 -268 -22 0 -142 141 -172 202 -28 55 -33
81 -41 179 -5 63 -12 122 -15 132 -9 21 -4 21 43 1z m-524 -92 c2 -4 1 -14 -4
-22 -10 -16 14 -70 33 -71 6 0 -8 -9 -33 -20 -81 -36 -228 -159 -190 -159 6 0
63 27 128 59 65 33 136 63 157 67 38 7 38 7 31 -22 -4 -16 -18 -53 -32 -83
l-24 -54 -24 22 c-38 36 -57 24 -97 -59 -51 -105 -113 -141 -136 -80 -6 16
-19 33 -28 36 -9 4 -52 -7 -96 -25 -45 -17 -85 -29 -90 -25 -21 13 -7 56 31
98 45 49 47 56 23 97 -16 27 -16 30 3 56 18 24 29 28 78 31 64 3 78 18 53 56
-9 13 -13 26 -10 30 13 13 75 5 118 -16 41 -20 47 -21 61 -6 14 14 14 18 -1
47 -8 17 -13 36 -10 41 7 12 52 13 59 2z m1714 -39 c4 -36 7 -38 107 -53 38
-6 71 -12 72 -14 2 -2 -1 -15 -6 -30 -14 -35 -6 -52 32 -66 84 -31 79 -27 61
-55 -16 -25 -16 -27 15 -66 27 -33 31 -43 20 -55 -9 -11 -24 -14 -63 -9 -44 6
-54 4 -70 -14 -27 -29 -48 -26 -96 14 -48 40 -65 43 -80 15 -13 -25 -42 -26
-63 -2 -8 9 -28 44 -44 77 -27 56 -31 60 -62 58 -28 -1 -35 3 -46 30 -14 35
-30 127 -22 127 18 0 106 -46 163 -85 70 -47 84 -53 84 -32 0 24 -61 86 -121
123 -32 20 -57 39 -54 42 11 11 102 31 135 29 32 -2 35 -5 38 -34z m-801
-1181 c15 -9 35 -61 28 -72 -3 -4 -22 -2 -42 6 -21 7 -50 13 -65 14 -35 0 -35
13 -2 39 27 21 60 27 81 13z m-337 -45 c0 -26 -52 -34 -105 -16 -58 19 -45 26
48 28 40 1 57 -3 57 -12z m-705 -88 c32 -15 56 -41 113 -124 40 -57 72 -107
72 -110 0 -10 -116 -4 -144 8 -25 11 -35 10 -65 -5 -92 -47 -207 8 -218 105
-14 125 108 189 242 126z m830 2 c17 -10 63 -65 107 -129 l77 -112 -52 0 c-29
1 -65 7 -81 13 -25 11 -35 10 -65 -5 -42 -22 -71 -23 -114 -4 -41 17 -61 40
-142 156 l-65 95 44 3 c24 2 61 -4 82 -13 32 -13 40 -13 59 -1 43 28 96 27
150 -3z m828 0 c22 -12 159 -194 175 -233 5 -12 -91 -10 -126 3 -25 9 -41 7
-76 -6 -56 -21 -104 -14 -146 22 -29 24 -143 184 -156 218 -9 21 77 20 122 -1
27 -13 37 -14 48 -4 38 31 106 31 159 1z"/>
<path d="M3556 7884 c-10 -27 -7 -2508 4 -2679 38 -600 196 -1148 488 -1692
l50 -91 -46 -12 c-94 -23 -178 -80 -236 -159 -47 -63 -233 -458 -253 -536 -33
-126 -15 -284 47 -422 150 -331 626 -679 1303 -952 183 -74 180 -55 32 -178
-180 -150 -177 -141 -173 -535 l3 -295 26 -39 c35 -52 116 -99 219 -126 l85
-23 895 0 895 0 85 23 c103 27 184 74 219 126 l26 39 3 291 c3 311 -1 355 -44
417 -13 19 -66 69 -116 111 -51 42 -103 87 -115 100 l-23 24 168 68 c675 277
1143 620 1292 949 62 138 80 296 47 422 -20 79 -205 472 -252 535 -59 80 -143
136 -237 160 l-45 12 83 162 c281 546 424 1071 454 1660 10 198 14 2615 4
2640 -6 15 -230 16 -2444 16 -2214 0 -2438 -1 -2444 -16z m4834 -949 l0 -915
-2390 0 -2390 0 0 915 0 915 2390 0 2390 0 0 -915z m-3644 -1170 c81 -40 84
-50 84 -297 0 -118 -3 -297 -7 -397 -6 -165 -8 -180 -22 -167 -9 7 -36 24 -60
36 -68 34 -176 25 -296 -25 -69 -29 -108 -39 -167 -43 l-78 -5 0 402 0 401 74
0 c71 0 76 2 147 48 94 62 118 70 205 71 56 1 80 -4 120 -24z m426 15 c20 -6
67 -32 105 -58 66 -45 71 -47 151 -50 l82 -4 0 -400 0 -401 -82 6 c-66 4 -104
14 -187 47 -96 39 -110 42 -181 38 -66 -2 -84 -8 -128 -35 l-52 -32 0 408 0
407 29 28 c16 15 46 34 67 41 46 17 144 19 196 5z m1854 -9 c23 -10 51 -32 62
-49 22 -30 22 -37 22 -432 l0 -402 -22 16 c-102 75 -192 79 -349 18 -91 -36
-115 -42 -182 -42 l-77 0 0 394 0 394 78 4 c72 3 81 6 142 48 36 24 81 50 100
57 54 19 177 16 226 -6z m442 4 c20 -9 66 -35 102 -58 59 -39 70 -42 142 -46
l78 -3 0 -394 0 -394 -80 0 c-69 0 -92 5 -177 39 -158 63 -228 64 -326 1 l-47
-30 0 408 0 408 28 27 c15 14 43 33 62 41 47 20 170 21 218 1z m-3326 -542 l3
-408 102 -3 c97 -3 105 -1 209 38 170 65 226 64 318 -6 60 -45 104 -46 154 -3
83 73 157 75 319 10 100 -41 105 -42 205 -39 l103 3 3 408 c1 224 6 407 11
407 4 0 20 -9 35 -21 l26 -20 0 -405 0 -404 -323 0 -322 0 -38 -26 c-21 -14
-54 -28 -73 -31 -37 -6 -114 18 -134 43 -10 12 -66 14 -336 14 l-324 0 0 409
0 409 23 15 c12 9 25 16 29 16 4 1 9 -182 10 -406z m2278 10 c0 -219 4 -404 9
-412 7 -10 33 -12 117 -9 99 4 118 8 199 43 149 63 234 59 317 -14 49 -43 93
-42 147 3 84 71 158 72 324 7 103 -40 111 -42 205 -39 l97 3 3 408 c1 224 5
407 8 407 3 0 19 -8 35 -17 l29 -17 0 -408 0 -408 -329 0 c-275 0 -331 -2
-341 -14 -6 -8 -32 -23 -56 -32 -38 -15 -51 -15 -87 -4 -23 7 -52 21 -66 31
-22 18 -45 19 -347 19 l-324 0 0 409 0 409 23 15 c12 9 25 16 30 16 4 1 7
-178 7 -396z m-2398 -75 l3 -423 335 -5 335 -5 52 -27 c79 -42 186 -34 243 17
13 12 75 15 351 17 l334 3 3 423 2 422 30 0 30 0 0 -460 0 -460 -370 0 -369 0
-37 -25 c-67 -46 -156 -46 -225 -1 l-39 26 -370 0 -370 0 0 460 0 460 30 0 30
0 2 -422z m2280 0 l3 -423 337 -3 338 -2 36 -25 c67 -46 166 -46 234 -1 l39
26 333 2 333 3 3 423 2 422 30 0 30 0 0 -460 0 -460 -370 0 -369 0 -36 -24
c-67 -46 -153 -46 -220 0 l-36 24 -374 0 -375 0 0 460 0 460 30 0 30 0 2 -422z
m128 -949 c281 -65 530 -298 596 -559 23 -87 23 -234 0 -335 -42 -188 -163
-403 -282 -502 -29 -24 -70 -78 -111 -146 -89 -148 -153 -230 -269 -349 -155
-158 -235 -214 -349 -244 -54 -15 -202 -19 -222 -6 -42 26 -34 115 18 213 68
127 182 235 439 414 181 127 206 149 225 200 10 24 15 50 12 57 -2 7 -37 18
-78 25 -144 23 -226 78 -274 184 -55 123 -44 181 65 329 72 97 100 162 82 190
-14 23 -26 15 -33 -22 -7 -44 -28 -81 -84 -153 -59 -75 -83 -122 -95 -185 -12
-61 8 -144 50 -212 16 -27 26 -48 21 -48 -20 0 -128 42 -189 74 l-67 36 3 67
c4 98 -9 188 -28 188 -13 0 -15 -20 -12 -130 2 -93 -1 -136 -10 -152 -7 -12
-76 -73 -153 -135 l-140 -113 -103 -3 -103 -4 7 26 c8 32 0 33 -42 1 -57 -44
-69 -32 -29 28 25 35 28 37 83 37 72 0 119 24 145 73 17 33 18 43 7 90 -23 95
-54 152 -101 184 -117 80 -170 92 -311 69 -109 -18 -166 -20 -187 -7 -11 7 -9
11 8 20 14 8 21 21 21 42 0 64 -44 97 -106 80 -30 -8 -38 -6 -65 16 l-31 26
29 23 c21 17 25 25 17 34 -9 9 -17 9 -32 1 -57 -30 -40 12 34 89 54 55 94 83
207 146 198 109 253 130 377 144 92 11 119 19 220 65 179 82 403 146 550 159
77 6 201 -5 290 -25z m-2236 -956 c37 -60 105 -162 151 -228 46 -65 81 -123
79 -127 -8 -12 -96 -10 -135 3 -51 17 -99 57 -115 95 -9 20 -21 34 -32 34 -11
0 -50 -48 -106 -130 l-90 -131 -17 28 c-38 60 -62 155 -63 243 0 72 4 94 28
145 43 94 104 148 188 164 24 5 44 9 44 10 1 1 32 -47 68 -106z m3783 75 c145
-67 200 -283 121 -472 -41 -97 -38 -98 -108 6 -87 128 -119 168 -135 168 -8 0
-22 -16 -31 -36 -19 -40 -63 -76 -113 -93 -41 -13 -128 -15 -136 -2 -3 5 25
52 62 103 56 77 117 171 219 335 16 26 51 24 121 -9z m-2565 -55 c28 -30 62
-118 54 -140 -8 -19 -56 -16 -120 8 -55 21 -57 21 -76 4 -12 -10 -26 -30 -33
-44 -20 -42 -35 -36 -43 16 l-7 48 -13 -30 c-8 -16 -13 -46 -11 -65 1 -25 -2
-36 -14 -38 -33 -6 -40 96 -9 145 24 40 57 58 139 74 35 7 71 20 80 30 21 23
23 23 53 -8z m-1597 -241 c1 -154 48 -265 180 -423 102 -122 333 -309 530
-430 65 -39 397 -209 410 -209 17 0 320 -159 370 -195 118 -84 183 -177 204
-290 12 -63 15 -375 5 -438 l-7 -38 -29 51 c-52 92 -189 179 -438 279 -643
257 -1068 523 -1275 799 -114 152 -165 283 -165 423 1 99 11 140 69 267 70
152 141 302 144 302 1 0 2 -44 2 -98z m4460 -82 c100 -212 116 -258 122 -352
21 -297 -205 -597 -669 -888 -151 -94 -455 -244 -678 -334 -340 -138 -477
-220 -531 -320 l-26 -48 -7 32 c-10 51 -7 369 4 438 14 82 42 141 98 203 84
93 183 153 506 303 306 143 473 242 664 395 302 241 440 459 430 677 -2 40 0
70 3 66 3 -4 41 -81 84 -172z m-2170 64 c61 -9 137 -27 170 -39 33 -13 85 -28
116 -35 49 -9 56 -14 52 -30 -5 -19 -15 -20 -195 -20 -132 0 -211 -5 -264 -16
-42 -8 -78 -13 -81 -10 -12 11 21 47 69 75 l53 31 -38 0 c-50 0 -99 -21 -126
-56 -20 -25 -23 -26 -37 -12 -14 14 -12 19 18 53 33 39 97 74 133 75 11 0 70
-7 130 -16z m-1934 -98 c44 -51 110 -79 185 -80 35 -1 63 -4 61 -7 -9 -22
-224 -328 -230 -329 -11 0 -145 135 -181 182 l-28 37 79 115 c43 63 79 115 81
116 1 0 16 -15 33 -34z m3772 -82 l78 -115 -57 -70 c-51 -63 -141 -149 -154
-149 -5 1 -222 314 -227 329 -2 3 26 6 61 7 76 1 142 30 183 79 15 18 30 34
33 34 3 0 40 -52 83 -115z m-3336 -149 c275 -332 636 -675 998 -947 164 -123
369 -258 392 -258 53 0 486 313 735 533 247 216 477 451 670 685 l110 132 113
-162 c156 -224 148 -203 100 -244 -54 -46 -284 -201 -368 -248 -37 -21 -184
-93 -327 -161 -353 -167 -468 -247 -542 -375 -53 -92 -60 -137 -56 -407 3
-287 7 -302 97 -390 28 -28 51 -53 51 -57 0 -3 -261 -6 -580 -6 -319 0 -580 3
-580 6 0 4 23 29 51 57 89 88 94 104 97 384 4 273 -4 327 -61 422 -71 119
-199 208 -506 351 -344 161 -471 233 -661 374 -52 39 -99 74 -103 77 -5 4 49
90 120 192 97 140 131 183 139 174 7 -7 56 -66 111 -132z m626 -1493 c79 -43
169 -111 193 -147 23 -36 33 -91 23 -128 -5 -18 -33 -56 -63 -86 l-54 -54 -98
8 c-54 4 -123 14 -154 21 -153 40 -243 123 -214 198 3 9 52 54 108 100 55 46
112 95 125 110 29 31 37 29 134 -22z m1668 22 c13 -15 68 -62 122 -107 54 -44
102 -88 107 -98 27 -49 -6 -108 -84 -154 -58 -33 -174 -63 -284 -71 l-94 -7
-54 54 c-65 64 -80 101 -64 158 14 52 57 101 133 153 50 34 169 96 188 98 3 0
16 -12 30 -26z m-2057 -339 c10 -27 122 -91 202 -116 l79 -24 880 0 880 0 80
27 c79 27 170 82 187 113 5 8 13 15 18 15 11 0 14 -478 4 -530 -14 -68 -98
-123 -239 -156 -75 -18 -135 -19 -935 -19 -775 0 -862 2 -933 17 -104 23 -181
61 -215 105 l-27 36 -3 274 c-3 250 2 308 22 258z"/>
<path d="M5977 7784 c-4 -4 -7 -22 -7 -40 0 -31 -2 -33 -37 -36 -33 -3 -38 -6
-38 -28 0 -22 5 -25 37 -28 35 -3 37 -5 40 -40 2 -29 7 -37 23 -37 16 0 21 8
23 37 3 35 5 37 40 40 32 3 37 6 37 28 0 22 -5 25 -37 28 -35 3 -37 5 -40 40
-3 35 -24 53 -41 36z"/>
<path d="M5372 7608 c-17 -17 -15 -54 4 -72 21 -21 40 -20 64 4 24 24 25 43 4
64 -18 19 -55 21 -72 4z"/>
<path d="M6552 7608 c-20 -20 -14 -66 9 -79 27 -14 64 1 72 30 11 44 -49 81
-81 49z"/>
<path d="M5197 7582 c-32 -35 -10 -82 38 -82 40 0 59 55 29 84 -21 21 -47 20
-67 -2z"/>
<path d="M6725 7580 c-24 -27 -13 -68 22 -76 33 -9 57 6 61 38 6 50 -49 76
-83 38z"/>
<path d="M5542 7568 c-7 -7 -12 -21 -12 -33 0 -28 19 -45 50 -45 31 0 50 17
50 45 0 28 -19 45 -50 45 -14 0 -31 -5 -38 -12z"/>
<path d="M6369 7559 c-17 -33 3 -69 39 -69 33 0 52 16 52 45 0 29 -19 45 -52
45 -18 0 -31 -7 -39 -21z"/>
<path d="M5847 7563 c-4 -3 -7 -43 -7 -89 0 -57 -4 -83 -13 -87 -24 -9 -119
12 -240 54 -182 62 -296 58 -403 -14 -130 -87 -148 -240 -52 -431 36 -72 118
-193 152 -225 33 -31 92 -37 153 -17 83 28 122 90 89 141 -24 36 -49 33 -41
-4 5 -23 2 -32 -16 -45 -27 -18 -42 -12 -34 15 5 14 -1 28 -19 46 -32 32 -33
57 -4 77 36 26 67 19 104 -20 41 -43 44 -32 7 22 -55 80 -59 137 -13 179 17
15 24 16 50 5 57 -24 69 -77 44 -192 -4 -16 -2 -28 4 -28 5 0 12 13 15 30 13
62 75 90 112 50 16 -18 17 -24 5 -61 -11 -33 -11 -42 -1 -49 17 -10 5 -30 -18
-30 -24 0 -41 20 -41 47 0 13 -4 23 -8 23 -16 0 -32 -24 -32 -48 0 -60 49 -92
139 -92 68 0 101 10 131 40 31 31 24 41 -16 24 -55 -23 -64 -15 -64 60 0 36 4
67 9 70 5 3 26 -1 46 -10 44 -18 49 -15 35 20 -5 15 -8 32 -4 37 3 5 41 9 85
9 85 0 89 -3 69 -54 -11 -30 -10 -31 36 -11 20 8 40 12 45 9 5 -3 9 -36 9 -75
0 -77 -3 -79 -64 -54 -44 19 -47 6 -6 -29 36 -30 81 -40 156 -34 73 6 106 36
102 93 -3 45 -28 56 -38 16 -7 -30 -31 -46 -55 -37 -13 5 -15 10 -6 19 6 8 8
33 4 65 -5 49 -4 52 22 64 39 17 75 -5 98 -62 l18 -45 -6 45 c-3 25 -9 64 -12
87 -5 39 -2 46 30 78 42 42 65 44 92 7 29 -40 25 -92 -11 -144 -46 -65 -51
-88 -9 -45 41 42 81 49 108 19 23 -26 21 -45 -8 -80 -14 -17 -23 -37 -19 -45
9 -24 -13 -30 -34 -9 -14 14 -18 28 -14 47 4 22 1 26 -14 23 -10 -2 -25 -15
-34 -31 -14 -25 -13 -30 5 -65 35 -66 147 -101 217 -68 33 16 90 90 166 217
66 110 92 261 59 342 -24 57 -82 112 -149 142 -99 45 -184 41 -363 -18 -77
-25 -156 -46 -175 -47 -72 -4 -69 -8 -72 88 -3 79 -5 87 -23 87 -19 0 -20 -8
-23 -217 l-2 -218 -100 0 -100 0 0 198 c0 108 -3 207 -6 220 -6 21 -33 30 -47
15z m-294 -170 l112 -37 -58 -8 c-58 -7 -138 -37 -167 -62 -8 -8 -42 -18 -75
-24 -33 -6 -72 -15 -86 -20 -40 -16 -88 -61 -111 -106 -19 -37 -22 -39 -29
-20 -33 91 -17 176 45 239 86 85 192 96 369 38z m1170 17 c118 -44 171 -153
133 -275 l-13 -40 -15 35 c-31 71 -94 116 -186 131 -31 5 -88 25 -127 44 -43
22 -93 38 -130 43 l-59 7 109 37 c130 44 205 49 288 18z m-883 -95 c0 -13 -4
-14 -20 -5 -11 6 -20 13 -20 15 0 3 9 5 20 5 11 0 20 -7 20 -15z m359 11 c-2
-2 -14 -9 -26 -15 -19 -10 -23 -9 -23 4 0 10 9 15 27 15 14 0 24 -2 22 -4z
m-479 -37 c25 -5 62 -21 83 -35 33 -21 37 -29 37 -65 l0 -40 -38 31 c-43 34
-109 57 -124 42 -6 -6 9 -21 39 -40 55 -35 100 -79 90 -88 -7 -7 -40 -7 -90 2
-29 5 -41 13 -48 33 -24 64 -119 124 -163 103 -41 -18 -79 -78 -84 -132 -2
-28 -8 -50 -12 -50 -4 0 -22 -13 -39 -29 -35 -33 -42 -82 -17 -129 43 -85 35
-118 -16 -64 -69 71 -63 155 16 261 14 19 26 39 26 43 0 19 -33 5 -71 -29 -46
-42 -64 -73 -75 -127 -7 -39 -7 -39 -20 -15 -20 35 -17 107 6 154 25 52 81 85
158 92 33 3 65 13 77 23 64 56 172 80 265 59z m748 -19 c26 -12 56 -29 67 -39
13 -12 41 -20 76 -23 115 -9 179 -72 179 -178 -1 -33 -7 -63 -15 -74 -14 -19
-15 -19 -15 -2 0 64 -67 164 -121 181 -35 11 -32 -1 11 -63 44 -61 60 -123 46
-176 -8 -31 -63 -96 -81 -96 -15 0 -7 31 27 107 17 38 18 44 4 77 -8 20 -29
44 -46 54 -26 15 -30 23 -30 58 0 69 -73 153 -122 141 -45 -12 -93 -52 -113
-94 -16 -35 -25 -42 -48 -43 -16 0 -36 -4 -46 -9 -10 -6 -27 -7 -39 -4 -20 5
-20 7 -5 29 8 13 42 42 75 64 43 29 56 42 44 46 -23 9 -86 -14 -128 -48 l-38
-29 0 40 c0 33 5 43 32 62 72 52 194 59 286 19z"/>
<path d="M5955 7516 c-13 -19 -14 -29 -6 -45 25 -45 91 -33 91 17 0 54 -56 72
-85 28z"/>
<path d="M5718 7519 c-25 -14 -24 -65 1 -79 31 -16 49 -12 67 15 15 23 15 27
0 50 -17 26 -40 31 -68 14z"/>
<path d="M6212 7518 c-7 -7 -12 -24 -12 -38 0 -31 17 -50 45 -50 28 0 45 19
45 50 0 31 -17 50 -45 50 -12 0 -26 -5 -33 -12z"/>
<path d="M5042 7488 c-18 -18 -14 -53 8 -73 39 -35 96 17 70 65 -12 23 -58 28
-78 8z"/>
<path d="M6884 7492 c-50 -34 2 -111 56 -82 23 12 28 58 8 78 -13 13 -47 16
-64 4z"/>
<path d="M5954 7375 c-15 -23 -15 -27 0 -50 29 -44 86 -28 86 25 0 53 -57 69
-86 25z"/>
<path d="M4955 7330 c-15 -16 -17 -26 -9 -48 8 -22 15 -27 44 -27 29 0 36 5
44 27 8 22 6 32 -9 48 -10 11 -26 20 -35 20 -9 0 -25 -9 -35 -20z"/>
<path d="M6970 7332 c-46 -37 9 -106 59 -75 22 14 25 57 6 77 -21 21 -38 20
-65 -2z"/>
<path d="M5968 7248 c-24 -20 -28 -44 -12 -67 17 -23 53 -28 72 -9 19 19 15
66 -7 78 -25 13 -34 13 -53 -2z"/>
<path d="M4955 7150 c-24 -27 -13 -68 22 -76 33 -9 57 6 61 38 6 50 -49 76
-83 38z"/>
<path d="M6965 7150 c-15 -16 -17 -26 -9 -48 8 -22 15 -27 44 -27 29 0 36 5
44 27 8 22 6 32 -9 48 -10 11 -26 20 -35 20 -9 0 -25 -9 -35 -20z"/>
<path d="M5022 6988 c-20 -20 -14 -66 9 -79 27 -14 64 1 72 30 11 44 -49 81
-81 49z"/>
<path d="M6902 6988 c-22 -22 -15 -67 12 -80 31 -14 53 -5 68 27 9 21 8 28 -7
45 -20 22 -55 26 -73 8z"/>
<path d="M5140 6832 c0 -7 11 -39 25 -72 14 -33 32 -88 40 -121 7 -34 19 -67
24 -72 7 -7 38 2 98 31 197 92 335 116 663 117 160 0 273 -5 325 -14 141 -23
263 -59 346 -100 45 -23 87 -41 95 -41 7 0 16 12 20 28 14 64 47 170 66 205
11 22 17 42 13 45 -9 10 -38 -32 -86 -124 l-43 -80 -75 32 c-176 76 -368 107
-656 107 -289 0 -509 -37 -667 -112 -34 -17 -62 -29 -63 -28 0 1 -17 36 -38
77 -40 78 -87 144 -87 122z"/>
<path d="M5962 6678 c-20 -20 -14 -66 9 -79 33 -17 69 3 69 39 0 33 -16 52
-45 52 -12 0 -26 -5 -33 -12z"/>
<path d="M5600 6641 c-16 -31 -12 -49 15 -67 23 -15 27 -15 50 0 43 28 26 86
-25 86 -19 0 -33 -7 -40 -19z"/>
<path d="M5801 6651 c-19 -12 -6 -43 16 -39 10 2 18 12 18 22 0 22 -14 29 -34
17z"/>
<path d="M6154 6645 c-4 -9 -2 -21 4 -27 15 -15 44 -1 40 19 -4 23 -36 29 -44
8z"/>
<path d="M6310 6641 c-16 -31 -12 -49 15 -67 23 -15 27 -15 50 0 27 18 33 54
13 74 -19 19 -66 15 -78 -7z"/>
<path d="M5451 6586 c-16 -19 -6 -36 20 -36 15 0 20 6 17 22 -4 27 -21 33 -37
14z"/>
<path d="M6504 6585 c-7 -18 3 -35 21 -35 21 0 28 19 15 35 -16 19 -29 19 -36
0z"/>
<path d="M5778 6549 c-122 -12 -278 -45 -354 -75 -232 -93 -228 -234 9 -322
68 -26 84 -28 42 -5 -112 58 -165 112 -165 166 0 73 187 148 443 178 146 17
484 6 607 -20 169 -35 280 -83 306 -133 12 -24 12 -32 0 -60 -17 -40 -56 -78
-116 -112 -57 -33 -37 -33 35 -1 141 62 182 144 110 223 -113 125 -530 198
-917 161z"/>
<path d="M5265 6527 c-18 -27 -12 -53 17 -68 27 -15 57 -2 64 28 14 55 -50 87
-81 40z"/>
<path d="M6652 6538 c-27 -27 -3 -88 34 -88 18 0 54 36 54 53 0 36 -63 60 -88
35z"/>
<path d="M5765 6414 c-155 -17 -302 -60 -342 -100 -115 -115 224 -219 652
-200 325 14 505 70 505 155 0 53 -63 88 -220 122 -76 17 -140 21 -325 24 -126
1 -248 1 -270 -1z m538 -68 c154 -26 241 -63 216 -92 -17 -21 -127 -52 -251
-70 -146 -21 -500 -15 -628 10 -101 21 -180 53 -180 73 0 31 154 75 325 93
120 12 408 4 518 -14z"/>
<path d="M4555 5630 c-27 -10 -77 -30 -110 -43 -33 -14 -77 -29 -97 -32 -21
-4 -38 -12 -38 -17 0 -19 83 0 185 43 70 29 115 42 152 43 35 1 53 5 53 14 0
19 -87 14 -145 -8z"/>
<path d="M4510 5444 c-47 -20 -111 -43 -142 -51 -32 -9 -58 -20 -58 -26 0 -17
81 3 179 45 73 31 112 41 161 44 82 4 85 18 5 22 -50 2 -74 -4 -145 -34z"/>
<path d="M4491 5269 c-52 -22 -112 -44 -134 -47 -21 -4 -38 -11 -37 -17 2 -18
60 -5 175 40 86 34 126 45 169 45 31 0 56 5 56 10 0 6 -29 10 -67 10 -57 0
-83 -7 -162 -41z"/>
<path d="M4615 5143 c-16 -2 -80 -24 -141 -49 -61 -24 -120 -44 -132 -44 -21
0 -36 -13 -26 -22 10 -11 96 13 187 51 69 30 108 41 146 41 53 0 68 13 29 24
-13 3 -25 5 -28 4 -3 0 -18 -3 -35 -5z"/>
<path d="M5010 5638 c0 -9 18 -13 53 -14 39 -1 81 -13 150 -43 101 -43 177
-61 177 -43 0 6 -15 13 -32 17 -18 4 -83 26 -144 51 -113 45 -204 59 -204 32z"/>
<path d="M4990 5468 c0 -9 21 -13 68 -14 55 0 82 -7 147 -36 99 -45 172 -65
187 -50 7 7 -6 13 -41 21 -28 6 -93 29 -144 51 -76 32 -106 40 -156 40 -42 0
-61 -4 -61 -12z"/>
<path d="M4990 5300 c0 -5 25 -10 55 -10 43 0 80 -10 163 -44 108 -45 174 -60
180 -41 2 6 -14 13 -35 17 -21 3 -83 25 -137 47 -80 33 -110 41 -162 41 -36 0
-64 -4 -64 -10z"/>
<path d="M5028 5142 c-38 -7 -15 -22 33 -22 38 0 77 -11 146 -41 98 -41 180
-63 188 -48 7 10 -3 15 -50 24 -22 3 -76 23 -120 42 -76 34 -160 53 -197 45z"/>
<path d="M6860 5640 c-14 -4 -63 -23 -110 -43 -47 -19 -102 -38 -122 -42 -21
-4 -38 -12 -38 -17 0 -20 86 1 181 43 67 29 109 41 146 42 32 1 55 7 57 15 6
14 -72 16 -114 2z"/>
<path d="M6776 5440 c-55 -22 -119 -45 -143 -51 -23 -6 -43 -16 -43 -21 0 -19
78 1 178 44 74 32 111 42 157 44 79 2 87 18 10 22 -51 2 -76 -4 -159 -38z"/>
<path d="M6771 5269 c-52 -22 -112 -44 -134 -47 -22 -4 -42 -13 -45 -20 -7
-21 60 -5 182 44 86 35 123 44 169 44 36 0 56 4 52 10 -3 6 -34 10 -68 10 -50
0 -80 -8 -156 -41z"/>
<path d="M6890 5143 c-28 -5 -93 -28 -185 -67 -33 -14 -72 -26 -87 -26 -26 0
-35 -9 -22 -22 9 -10 106 18 192 56 59 25 98 36 133 36 48 0 65 12 33 24 -16
6 -22 6 -64 -1z"/>
<path d="M7265 5640 c-8 -13 -10 -12 60 -14 46 -2 87 -13 176 -49 109 -44 169
-58 169 -38 0 4 -26 15 -57 24 -32 8 -96 31 -143 51 -86 36 -190 50 -205 26z"/>
<path d="M7265 5470 c-8 -12 -13 -11 65 -13 51 -2 85 -11 160 -43 100 -44 180
-64 180 -45 0 6 -12 13 -27 17 -54 12 -69 17 -159 55 -73 31 -104 39 -152 39
-34 0 -64 -4 -67 -10z"/>
<path d="M7265 5300 c-4 -6 17 -10 56 -10 50 0 80 -8 155 -40 91 -39 182 -65
191 -56 11 11 -9 24 -44 29 -21 4 -80 25 -131 47 -77 33 -104 40 -157 40 -35
0 -67 -4 -70 -10z"/>
<path d="M7295 5143 c-49 -12 -35 -23 28 -23 55 0 82 -7 159 -40 94 -40 172
-62 183 -52 12 12 3 20 -32 24 -21 3 -81 24 -133 46 -92 38 -163 54 -205 45z"/>
<path d="M6433 4123 c-7 -2 -13 -13 -13 -23 0 -23 175 -89 192 -72 18 18 -6
37 -80 67 -85 35 -85 34 -99 28z"/>
<path d="M5710 4022 c-66 -24 -75 -30 -75 -52 0 -15 6 -26 17 -28 22 -4 168
78 168 95 0 19 -25 15 -110 -15z"/>
<path d="M6460 3971 c0 -15 15 -24 62 -40 74 -25 88 -26 88 -5 0 9 -22 25 -55
40 -68 29 -95 31 -95 5z"/>
<path d="M5172 3924 c-22 -15 -31 -54 -11 -54 6 0 20 5 32 11 18 10 24 8 44
-17 19 -24 25 -27 33 -14 25 39 -6 90 -55 90 -11 0 -31 -7 -43 -16z"/>
<path d="M5726 3901 c-40 -8 -57 -38 -33 -56 16 -11 27 -10 83 13 75 32 84 53
22 51 -24 -1 -56 -4 -72 -8z"/>
<path d="M6737 3903 c-4 -3 -7 -12 -7 -19 0 -15 94 -84 115 -84 30 0 14 38
-32 74 -46 36 -63 42 -76 29z"/>
<path d="M6470 3852 c0 -13 14 -23 49 -34 28 -9 52 -13 55 -10 15 14 2 31 -34
46 -52 21 -70 20 -70 -2z"/>
<path d="M4920 3785 c-11 -13 -11 -19 2 -31 13 -13 20 -14 37 -4 13 6 21 19
19 28 -4 23 -41 27 -58 7z"/>
<path d="M6717 3773 c-16 -15 -4 -33 37 -57 53 -31 56 -31 56 -7 0 11 -15 31
-33 45 -35 27 -49 31 -60 19z"/>
<path d="M5713 3754 c-11 -28 12 -38 69 -28 38 6 54 14 56 27 3 15 -5 17 -58
17 -46 0 -62 -4 -67 -16z"/>
<path d="M5040 3751 c-35 -11 -92 -40 -112 -59 -24 -21 -23 -73 3 -106 34 -43
63 -31 38 16 -18 34 -2 61 61 102 76 49 80 68 10 47z"/>
<path d="M6467 3753 c-14 -13 -6 -22 30 -32 54 -15 76 6 28 27 -29 13 -49 15
-58 5z"/>
<path d="M6680 3656 c0 -19 48 -49 67 -41 14 5 13 9 -7 30 -25 27 -60 33 -60
11z"/>
<path d="M5721 3636 c-20 -24 -3 -36 50 -36 55 0 70 23 22 34 -16 4 -35 9 -44
12 -9 2 -22 -2 -28 -10z"/>
<path d="M6907 3614 c-9 -9 23 -54 39 -54 8 0 14 8 14 18 0 30 -35 54 -53 36z"/>
<path d="M6645 3580 c-8 -13 13 -40 31 -40 17 0 18 22 2 38 -15 15 -25 15 -33
2z"/>
<path d="M6854 3535 c-6 -16 9 -34 29 -35 13 0 8 27 -8 40 -12 10 -16 9 -21
-5z"/>
<path d="M6251 2617 c-10 -13 -9 -18 9 -27 28 -15 168 -14 186 1 24 20 5 27
-92 34 -74 6 -92 4 -103 -8z"/>
<path d="M6092 2492 c-10 -7 -9 -12 4 -23 22 -18 217 -20 235 -2 7 7 9 16 5
20 -11 11 -229 16 -244 5z"/>
<path d="M5976 2361 c-3 -5 2 -15 11 -22 21 -18 189 -19 218 -2 19 11 19 12
-8 22 -34 13 -214 15 -221 2z"/>
<path d="M5917 2233 c-10 -3 -16 -10 -14 -16 10 -31 167 -33 167 -1 0 10 -14
14 -54 14 -30 0 -60 2 -68 4 -7 2 -21 2 -31 -1z"/>
<path d="M3842 2647 c-6 -7 -7 -18 -2 -26 4 -8 6 -19 4 -25 -2 -6 -15 -86 -29
-178 -21 -138 -23 -171 -13 -188 7 -11 16 -20 20 -20 4 0 52 43 107 95 69 67
104 93 115 89 29 -11 17 21 -22 59 -21 20 -41 37 -45 37 -12 0 -8 -38 5 -42
12 -4 -60 -96 -111 -142 -21 -19 -21 -19 -21 1 0 26 39 235 45 241 2 3 7 -3
11 -12 7 -19 20 -21 27 -3 3 7 -14 39 -38 70 -33 44 -45 54 -53 44z"/>
<path d="M4087 2368 c-2 -7 0 -20 6 -28 7 -12 -6 -46 -47 -129 -47 -93 -60
-112 -76 -108 -10 3 -21 -1 -24 -9 -4 -11 38 -53 147 -144 18 -14 21 -13 43
15 13 17 24 35 24 42 0 21 -21 26 -39 9 -24 -22 -33 -20 -65 13 l-28 29 27 52
26 52 25 -23 c14 -13 23 -32 22 -43 -5 -35 18 -27 41 15 19 33 21 43 10 50 -7
4 -18 4 -25 -2 -8 -6 -19 -3 -34 9 l-22 18 26 52 c14 29 30 52 34 52 5 0 20
-13 35 -28 22 -23 26 -34 21 -59 -3 -18 -1 -33 5 -37 13 -8 56 73 44 84 -27
26 -159 130 -165 130 -3 0 -8 -6 -11 -12z"/>
<path d="M4343 2175 c-3 -10 0 -21 7 -25 9 -6 -2 -38 -46 -130 -46 -96 -61
-120 -75 -117 -21 6 -35 -23 -17 -35 7 -5 50 -31 96 -59 l84 -51 28 33 c34 39
35 43 17 58 -11 8 -19 5 -37 -14 l-23 -24 -38 20 c-22 11 -39 26 -39 34 0 8
26 66 57 129 49 99 59 113 74 105 12 -6 20 -5 25 3 7 12 -22 39 -76 71 -28 17
-31 17 -37 2z"/>
<path d="M4577 2036 c-3 -8 -1 -18 5 -24 8 -8 -3 -42 -36 -115 -49 -111 -56
-153 -29 -193 20 -32 83 -64 123 -64 48 0 100 55 146 154 29 65 43 85 56 82 9
-2 19 2 22 10 8 20 -92 70 -108 54 -8 -8 -7 -14 7 -21 23 -13 22 -17 -19 -104
-62 -131 -109 -164 -162 -115 -32 30 -28 69 22 175 38 81 48 95 67 93 44 -6
29 22 -29 51 -46 23 -61 27 -65 17z"/>
<path d="M4890 1841 c-17 -34 -17 -41 -5 -51 12 -10 19 -7 38 15 21 25 26 26
48 15 13 -7 25 -14 27 -15 2 -2 -22 -59 -54 -129 -53 -117 -58 -125 -80 -120
-17 4 -24 2 -24 -9 0 -20 119 -72 134 -57 7 7 4 14 -9 24 -21 15 -21 14 60
189 35 76 37 78 58 64 17 -12 21 -24 20 -51 -3 -49 27 -50 50 -1 9 20 17 38
17 41 0 5 -243 124 -254 124 -3 0 -15 -18 -26 -39z"/>
<path d="M7865 2352 c-107 -50 -142 -169 -85 -282 75 -148 286 -75 289 100 1
58 -19 110 -57 152 -46 48 -89 57 -147 30z m79 -53 c53 -41 83 -134 66 -199
-10 -38 -45 -70 -76 -70 -51 0 -120 89 -124 160 -4 66 0 81 26 105 33 31 73
32 108 4z"/>
<path d="M7623 2179 c-47 -33 -57 -60 -21 -56 22 2 24 -4 35 -93 7 -52 12
-110 10 -128 l-2 -33 -79 92 c-67 77 -76 93 -62 101 18 10 22 38 6 38 -6 0
-35 -14 -65 -31 -54 -30 -72 -59 -37 -59 9 0 67 -49 127 -110 60 -60 115 -110
121 -110 31 0 34 26 22 199 -8 122 -8 175 0 183 10 10 6 38 -7 38 -3 -1 -25
-14 -48 -31z"/>
<path d="M7218 1950 c-112 -57 -101 -32 -119 -260 -9 -111 -16 -148 -28 -157
-11 -8 -13 -15 -5 -23 15 -15 115 27 107 46 -3 9 -13 12 -25 8 -18 -5 -19 -1
-16 58 3 61 4 63 38 80 51 25 55 23 78 -29 19 -44 20 -49 5 -61 -12 -8 -14
-15 -6 -23 7 -7 41 5 114 41 57 29 105 54 107 55 2 2 -2 21 -9 43 -8 29 -16
38 -28 35 -13 -3 -16 -12 -13 -33 4 -26 -1 -31 -45 -54 l-50 -25 -21 45 c-12
24 -22 48 -22 52 0 5 16 16 36 25 28 14 39 15 50 6 27 -22 35 4 17 49 -11 29
-22 42 -32 40 -9 -2 -15 -12 -13 -23 1 -14 -9 -27 -37 -42 l-39 -22 -27 61
c-30 66 -30 66 33 94 31 14 34 14 52 -8 15 -18 21 -20 31 -11 10 10 9 20 -7
48 -10 19 -21 35 -24 34 -3 0 -49 -22 -102 -49z m-8 -191 c0 -7 -46 -29 -60
-29 -11 0 -13 82 -3 119 6 22 9 19 34 -30 15 -30 28 -57 29 -60z"/>
<path d="M5205 485 c-36 -94 -63 -155 -72 -155 -7 0 -13 -9 -13 -20 0 -18 7
-20 55 -20 48 0 55 2 55 20 0 12 -7 20 -16 20 -12 0 -15 6 -10 23 3 12 6 25 6
30 0 4 29 7 64 7 58 0 64 -2 70 -22 9 -34 8 -38 -9 -38 -8 0 -15 -9 -15 -20 0
-18 7 -20 65 -20 53 0 65 3 65 16 0 9 -8 18 -18 21 -13 3 -26 27 -42 76 -61
193 -81 237 -105 237 -20 0 -29 -17 -80 -155z m94 13 c12 -34 21 -66 21 -70 0
-4 -20 -8 -45 -8 -25 0 -45 4 -45 8 0 11 41 132 45 132 2 0 13 -28 24 -62z"/>
<path d="M5517 633 c-13 -12 -7 -33 8 -33 13 0 15 -22 15 -135 0 -113 -2 -135
-15 -135 -8 0 -15 -9 -15 -20 0 -18 7 -20 60 -20 53 0 60 2 60 20 0 11 -7 20
-15 20 -11 0 -15 12 -15 51 0 49 1 50 28 47 23 -2 32 -14 59 -70 32 -67 33
-68 73 -68 33 0 40 3 40 20 0 11 -6 20 -14 20 -8 0 -26 21 -41 48 -15 26 -34
54 -42 64 -13 14 -12 17 6 23 23 7 51 53 51 84 0 37 -41 70 -99 81 -62 11
-135 13 -144 3z m157 -49 c45 -45 21 -114 -39 -114 l-35 0 0 65 0 65 29 0 c16
0 37 -7 45 -16z"/>
<path d="M5860 621 c0 -12 6 -21 15 -21 13 0 15 -22 15 -134 0 -127 -1 -135
-21 -141 -35 -11 -15 -30 37 -33 137 -9 214 27 214 102 0 33 -27 67 -62 78 -6
2 1 16 16 31 35 36 33 81 -6 110 -22 16 -48 22 -118 25 -86 4 -90 4 -90 -17z
m168 -33 c13 -13 16 -57 4 -75 -7 -12 -54 -33 -73 -33 -5 0 -9 27 -9 60 l0 60
33 0 c18 0 38 -5 45 -12z m10 -154 c42 -29 23 -91 -34 -108 -42 -13 -54 2 -54
65 l0 59 33 0 c18 0 43 -7 55 -16z"/>
<path d="M6290 618 c-59 -30 -90 -84 -90 -158 0 -111 67 -174 174 -167 54 3
62 7 97 44 87 94 71 246 -31 287 -55 22 -98 20 -150 -6z m122 -28 c37 -29 51
-71 46 -140 -5 -68 -29 -109 -72 -124 -68 -25 -121 39 -120 142 1 68 20 106
65 129 34 18 52 16 81 -7z"/>
<path d="M6608 634 c-15 -15 -8 -34 12 -34 19 0 20 -7 20 -134 0 -125 -1 -134
-20 -139 -11 -3 -20 -12 -20 -21 0 -13 12 -16 65 -16 58 0 65 2 65 20 0 13 -7
20 -20 20 -17 0 -20 7 -20 50 0 49 1 50 29 50 26 0 33 -7 63 -67 32 -67 34
-68 76 -71 37 -3 42 -1 42 17 0 14 -6 21 -20 21 -11 0 -20 4 -20 8 0 5 -15 33
-33 64 -33 53 -33 56 -15 67 27 17 47 69 39 100 -11 40 -56 60 -152 67 -46 3
-87 3 -91 -2z m164 -51 c22 -20 24 -76 2 -97 -8 -9 -31 -16 -50 -16 -30 0 -34
3 -34 28 0 15 3 44 6 65 6 31 10 37 32 37 14 0 34 -7 44 -17z"/>
</g>
</svg>
