<!DOCTYPE svg PUBLIC "-//W3C//DTD SVG 1.1//EN" "http://www.w3.org/Graphics/SVG/1.1/DTD/svg11.dtd">
<!-- Uploaded to: SVG Repo, www.svgrepo.com, Transformed by: SVG Repo Mixer Tools -->
<svg height="800px" width="800px" version="1.1" id="Layer_1" xmlns="http://www.w3.org/2000/svg" xmlns:xlink="http://www.w3.org/1999/xlink" viewBox="-51.2 -51.2 614.40 614.40" xml:space="preserve" fill="#000000">
<g id="SVGRepo_bgCarrier" stroke-width="0">
<rect x="-51.2" y="-51.2" width="614.40" height="614.40" rx="0" fill="#7ed0ec" strokewidth="0"/>
</g>
<g id="SVGRepo_tracerCarrier" stroke-linecap="round" stroke-linejoin="round"/>
<g id="SVGRepo_iconCarrier"> <path style="fill:#A36B37;" d="M384.005,210.824v25.028c0,26.614-18.906,73.071-73.189,86.48c-9.648,2.393-20.405,3.729-32.38,3.729 h-45.379c-74.602,0-105.052-58.863-105.052-90.209v-25.028c0-62.852,50.952-113.814,113.814-113.814h28.36 c0.604,0,1.207,0.01,1.811,0.022c0.604,0.01,1.207,0.022,1.8,0.043C334.983,98.971,384.005,149.179,384.005,210.824z"/> <path style="fill:#7D522A;" d="M216.433,232.481c23.328,16.511,42.347,40.224,62.003,93.58h-45.379 c-74.602,0-105.052-58.863-105.052-90.209v-25.028c0-62.852,50.952-113.814,113.814-113.814h28.36c0.604,0,1.207,0.01,1.811,0.022 c0.604,0.01,1.207,0.022,1.8,0.043c-61.192,1.908-110.215,52.105-110.215,113.75C163.576,210.824,193.104,215.97,216.433,232.481z"/> <g> <path style="fill:#FFE666;" d="M167.06,221.704c0,0,57.874-61.178,88.67-61.178s88.702,61.178,88.702,61.178 s-40.704-90.643-88.687-90.643S167.06,221.704,167.06,221.704z"/> <path style="fill:#FFE666;" d="M184.757,189.026c0,0,37.117-54.549,20.463-73.084c0,0,28.199,2.906,50.78,13.271 C247.636,135.018,217.224,137.193,184.757,189.026z"/> <path style="fill:#FFE666;" d="M326.549,189.026c0,0-35.621-54.549-18.967-73.084c0,0-28.199,2.906-50.78,13.271 C265.167,135.018,294.081,137.193,326.549,189.026z"/> </g> <path style="fill:#FFF3DC;" d="M360.939,247.723c-0.231-1.374-5.933-34.029-30.846-67.931 c-11.808-16.068-29.267-33.95-54.357-48.133c16.584-5.256,34.721-8.433,54.389-9.482c4.459-0.238,7.88-4.045,7.642-8.503 c-0.237-4.46-4.069-7.895-8.503-7.642c-28.97,1.545-53.229,7.487-73.518,15.898c-20.289-8.411-44.548-14.353-73.518-15.898 c-4.442-0.253-8.266,3.183-8.503,7.642c-0.238,4.458,3.183,8.265,7.642,8.503c19.665,1.049,37.803,4.227,54.387,9.483 c-25.089,14.183-42.547,32.065-54.356,48.132c-24.912,33.901-30.614,66.557-30.845,67.931c-0.739,4.403,2.232,8.571,6.635,9.31 c0.452,0.076,0.903,0.113,1.347,0.113c3.877,0,7.3-2.797,7.963-6.747c0.05-0.298,5.27-30.199,27.928-61.031 c16.19-22.031,36.692-38.737,61.313-50.03c24.41,11.195,44.776,27.712,60.906,49.463c22.805,30.752,28.266,61.13,28.349,61.608 c0.668,3.946,4.088,6.736,7.961,6.736c0.444,0,0.894-0.037,1.347-0.113C358.707,256.295,361.678,252.127,360.939,247.723z"/> <path style="fill:#A36B37;" d="M199.244,414.991H56.756C25.411,414.991,0,389.58,0,358.235v-25.021 c0-62.859,50.958-113.817,113.817-113.817h28.367c62.859,0,113.817,50.958,113.817,113.817v25.021 C256,389.58,230.589,414.991,199.244,414.991z"/> <path style="fill:#7D522A;" d="M35.57,358.235v-25.021c0-61.653,49.023-111.851,110.215-113.754 c-1.196-0.038-2.396-0.063-3.602-0.063h-28.367C50.958,219.396,0,270.354,0,333.213v25.021c0,31.346,25.411,56.756,56.757,56.756 h35.57C60.981,414.991,35.57,389.58,35.57,358.235z"/> <g> <path style="fill:#FFE666;" d="M39.06,344.089c0,0,57.874-61.178,88.67-61.178s88.702,61.178,88.702,61.178 s-40.704-90.643-88.687-90.643S39.06,344.089,39.06,344.089z"/> <path style="fill:#FFE666;" d="M56.757,311.411c0,0,37.117-54.549,20.463-73.084c0,0,28.199,2.906,50.78,13.271 C119.636,257.401,89.224,259.578,56.757,311.411z"/> <path style="fill:#FFE666;" d="M198.549,311.411c0,0-35.621-54.549-18.967-73.084c0,0-28.199,2.906-50.78,13.271 C137.167,257.401,166.081,259.578,198.549,311.411z"/> </g> <path style="fill:#FFF3DC;" d="M232.939,370.107c-0.231-1.374-5.933-34.028-30.846-67.93c-11.807-16.068-29.265-33.95-54.355-48.133 c16.584-5.256,34.722-8.434,54.387-9.484c4.459-0.238,7.88-4.045,7.642-8.503c-0.237-4.459-4.067-7.909-8.503-7.642 c-28.97,1.545-53.229,7.487-73.518,15.898c-20.289-8.411-44.548-14.353-73.518-15.898c-4.441-0.266-8.266,3.184-8.503,7.642 c-0.238,4.458,3.183,8.265,7.642,8.503c19.665,1.049,37.802,4.227,54.387,9.484c-25.089,14.183-42.547,32.065-54.355,48.133 c-24.912,33.901-30.614,66.556-30.845,67.93c-0.738,4.398,2.226,8.556,6.623,9.301c0.457,0.078,0.91,0.115,1.359,0.115 c3.867,0,7.287-2.788,7.962-6.726c0.051-0.304,5.477-30.768,28.348-61.61c16.128-21.75,36.493-38.266,60.901-49.461 c24.408,11.195,44.772,27.712,60.901,49.461c22.806,30.753,28.267,61.132,28.349,61.607c0.668,3.946,4.088,6.736,7.961,6.736 c0.444,0,0.894-0.037,1.347-0.113C230.707,378.678,233.678,374.51,232.939,370.107z"/> <path style="fill:#A36B37;" d="M455.244,414.991H312.756c-31.346,0-56.756-25.411-56.756-56.756v-25.021 c0-62.859,50.958-113.817,113.817-113.817h28.367c62.859,0,113.817,50.958,113.817,113.817v25.021 C512,389.58,486.589,414.991,455.244,414.991z"/> <path style="fill:#7D522A;" d="M291.57,358.235v-25.021c0-61.653,49.023-111.851,110.215-113.754 c-1.196-0.038-2.396-0.063-3.602-0.063h-28.367C306.958,219.396,256,270.354,256,333.213v25.021 c0,31.346,25.411,56.756,56.757,56.756h35.57C316.981,414.991,291.57,389.58,291.57,358.235z"/> <g> <path style="fill:#FFE666;" d="M295.06,344.089c0,0,57.874-61.178,88.67-61.178s88.702,61.178,88.702,61.178 s-40.704-90.643-88.687-90.643S295.06,344.089,295.06,344.089z"/> <path style="fill:#FFE666;" d="M312.757,311.411c0,0,37.117-54.549,20.463-73.084c0,0,28.199,2.906,50.78,13.271 C375.636,257.401,345.224,259.578,312.757,311.411z"/> <path style="fill:#FFE666;" d="M454.549,311.411c0,0-35.621-54.549-18.967-73.084c0,0-28.199,2.906-50.78,13.271 C393.167,257.401,422.081,259.578,454.549,311.411z"/> </g> <path style="fill:#FFF3DC;" d="M488.939,370.107c-0.231-1.374-5.933-34.028-30.846-67.93c-11.807-16.068-29.266-33.95-54.355-48.133 c16.584-5.256,34.722-8.434,54.387-9.484c4.459-0.238,7.88-4.045,7.642-8.503c-0.237-4.459-4.071-7.909-8.503-7.642 c-28.97,1.545-53.229,7.487-73.518,15.898c-20.289-8.411-44.548-14.353-73.518-15.898c-4.444-0.266-8.266,3.184-8.503,7.642 c-0.238,4.458,3.183,8.265,7.642,8.503c19.665,1.049,37.802,4.227,54.387,9.484c-25.089,14.183-42.547,32.065-54.355,48.133 c-24.912,33.901-30.614,66.556-30.845,67.93c-0.738,4.398,2.226,8.556,6.623,9.301c0.457,0.078,0.91,0.115,1.359,0.115 c3.867,0,7.287-2.788,7.962-6.726c0.051-0.304,5.476-30.768,28.348-61.61c16.128-21.75,36.493-38.266,60.901-49.461 c24.408,11.195,44.772,27.712,60.901,49.461c22.806,30.753,28.267,61.132,28.349,61.607c0.668,3.946,4.088,6.736,7.961,6.736 c0.444,0,0.894-0.037,1.347-0.113C486.707,378.678,489.678,374.51,488.939,370.107z"/> </g>
</svg>