<?xml version="1.0" encoding="UTF-8" standalone="no" ?>
<!DOCTYPE svg PUBLIC "-//W3C//DTD SVG 1.1//EN" "http://www.w3.org/Graphics/SVG/1.1/DTD/svg11.dtd">
<svg xmlns="http://www.w3.org/2000/svg" xmlns:xlink="http://www.w3.org/1999/xlink" version="1.1" width="994" height="267" viewBox="0 0 994 267" xml:space="preserve">
<desc>Created with Fabric.js 3.6.6</desc>
<defs>
</defs>
<g transform="matrix(10.27 0 0 2.94 767.32 217.07)"  >
<path style="stroke: rgb(0,0,0); stroke-width: 0; stroke-dasharray: none; stroke-linecap: butt; stroke-dashoffset: 0; stroke-linejoin: miter; stroke-miterlimit: 4; fill: rgb(106,255,0); fill-rule: nonzero; opacity: 1;"  transform=" translate(-48, -48)" d="M 9.113 65.022 C 11.683 45.575 28.302 30.978 48 30.978 c 19.696 0 36.316 14.598 38.887 34.045 H 9.113 z" stroke-linecap="round" />
</g>
<g transform="matrix(12.45 0 0 2.94 138.2 219.07)"  >
<path style="stroke: rgb(0,0,0); stroke-width: 0; stroke-dasharray: none; stroke-linecap: butt; stroke-dashoffset: 0; stroke-linejoin: miter; stroke-miterlimit: 4; fill: rgb(106,255,0); fill-rule: nonzero; opacity: 1;"  transform=" translate(-48, -48)" d="M 9.113 65.022 C 11.683 45.575 28.302 30.978 48 30.978 c 19.696 0 36.316 14.598 38.887 34.045 H 9.113 z" stroke-linecap="round" />
</g>
<g transform="matrix(0.11 0 0 0.11 257.96 161.34)"  >
<g style=""   >
		<g transform="matrix(0.78 0 0 0.78 0.08 -70.82)"  >
<path style="stroke: none; stroke-width: 1; stroke-dasharray: none; stroke-linecap: butt; stroke-dashoffset: 0; stroke-linejoin: miter; stroke-miterlimit: 4; fill: rgb(28,165,56); fill-rule: nonzero; opacity: 1;"  transform=" translate(-512.39, -421.9)" d="M 512.386707 78.888218 S 330.634441 231.250755 330.634441 489.570997 c 0 186.392749 88.169184 275.335347 181.752266 275.335347 s 181.752266 -89.716012 181.752266 -275.335347 c -0.773414 -259.093656 -181.752266 -410.682779 -181.752266 -410.682779 z" stroke-linecap="round" />
</g>
		<g transform="matrix(0.78 0 0 0.78 -0.15 97.75)"  >
<path style="stroke: none; stroke-width: 1; stroke-dasharray: none; stroke-linecap: butt; stroke-dashoffset: 0; stroke-linejoin: miter; stroke-miterlimit: 4; fill: rgb(101,50,11); fill-rule: nonzero; opacity: 1;"  transform=" translate(-512, -637.68)" d="M 630.719033 418.416918 L 533.268882 568.459215 l -3.867069 -95.903324 l 64.193353 -125.293051 l -64.966767 99.770393 l -6.187311 -155.456194 h -6.960725 l -10.054381 232.797583 L 431.178248 409.909366 l 73.47432 143.854984 l -3.86707 92.036254 l -107.504531 -164.73716 L 498.465257 688.338369 l -12.374623 295.444108 h 64.193354 l -15.468278 -376.652568 l 95.903323 -188.712991 z" stroke-linecap="round" />
</g>
</g>
</g>
<g transform="matrix(0.09 0 0 0.09 239.06 173.85)"  >
<g style=""   >
		<g transform="matrix(0.78 0 0 0.78 0.08 -70.82)"  >
<path style="stroke: none; stroke-width: 1; stroke-dasharray: none; stroke-linecap: butt; stroke-dashoffset: 0; stroke-linejoin: miter; stroke-miterlimit: 4; fill: rgb(28,165,56); fill-rule: nonzero; opacity: 1;"  transform=" translate(-512.39, -421.9)" d="M 512.386707 78.888218 S 330.634441 231.250755 330.634441 489.570997 c 0 186.392749 88.169184 275.335347 181.752266 275.335347 s 181.752266 -89.716012 181.752266 -275.335347 c -0.773414 -259.093656 -181.752266 -410.682779 -181.752266 -410.682779 z" stroke-linecap="round" />
</g>
		<g transform="matrix(0.78 0 0 0.78 -0.15 97.75)"  >
<path style="stroke: none; stroke-width: 1; stroke-dasharray: none; stroke-linecap: butt; stroke-dashoffset: 0; stroke-linejoin: miter; stroke-miterlimit: 4; fill: rgb(101,50,11); fill-rule: nonzero; opacity: 1;"  transform=" translate(-512, -637.68)" d="M 630.719033 418.416918 L 533.268882 568.459215 l -3.867069 -95.903324 l 64.193353 -125.293051 l -64.966767 99.770393 l -6.187311 -155.456194 h -6.960725 l -10.054381 232.797583 L 431.178248 409.909366 l 73.47432 143.854984 l -3.86707 92.036254 l -107.504531 -164.73716 L 498.465257 688.338369 l -12.374623 295.444108 h 64.193354 l -15.468278 -376.652568 l 95.903323 -188.712991 z" stroke-linecap="round" />
</g>
</g>
</g>
<g transform="matrix(0.1 0 0 0.1 278.96 174.85)"  >
<g style=""   >
		<g transform="matrix(0.78 0 0 0.78 0.08 -70.82)"  >
<path style="stroke: none; stroke-width: 1; stroke-dasharray: none; stroke-linecap: butt; stroke-dashoffset: 0; stroke-linejoin: miter; stroke-miterlimit: 4; fill: rgb(28,165,56); fill-rule: nonzero; opacity: 1;"  transform=" translate(-512.39, -421.9)" d="M 512.386707 78.888218 S 330.634441 231.250755 330.634441 489.570997 c 0 186.392749 88.169184 275.335347 181.752266 275.335347 s 181.752266 -89.716012 181.752266 -275.335347 c -0.773414 -259.093656 -181.752266 -410.682779 -181.752266 -410.682779 z" stroke-linecap="round" />
</g>
		<g transform="matrix(0.78 0 0 0.78 -0.15 97.75)"  >
<path style="stroke: none; stroke-width: 1; stroke-dasharray: none; stroke-linecap: butt; stroke-dashoffset: 0; stroke-linejoin: miter; stroke-miterlimit: 4; fill: rgb(101,50,11); fill-rule: nonzero; opacity: 1;"  transform=" translate(-512, -637.68)" d="M 630.719033 418.416918 L 533.268882 568.459215 l -3.867069 -95.903324 l 64.193353 -125.293051 l -64.966767 99.770393 l -6.187311 -155.456194 h -6.960725 l -10.054381 232.797583 L 431.178248 409.909366 l 73.47432 143.854984 l -3.86707 92.036254 l -107.504531 -164.73716 L 498.465257 688.338369 l -12.374623 295.444108 h 64.193354 l -15.468278 -376.652568 l 95.903323 -188.712991 z" stroke-linecap="round" />
</g>
</g>
</g>
<g transform="matrix(0.28 0 0 0.28 700.29 113)"  >
<g style=""   >
		<g transform="matrix(0.78 0 0 0.78 -0.36 36.92)"  >
<path style="stroke: none; stroke-width: 1; stroke-dasharray: none; stroke-linecap: butt; stroke-dashoffset: 0; stroke-linejoin: miter; stroke-miterlimit: 4; fill: rgb(234,234,234); fill-rule: nonzero; opacity: 1;"  transform=" translate(-512, -560)" d="M 224 96 h 576 v 928 H 224 z" stroke-linecap="round" />
</g>
		<g transform="matrix(0.78 0 0 0.78 -0.28 -62.92)"  >
<path style="stroke: none; stroke-width: 1; stroke-dasharray: none; stroke-linecap: butt; stroke-dashoffset: 0; stroke-linejoin: miter; stroke-miterlimit: 4; fill: rgb(70,159,204); fill-rule: nonzero; opacity: 1;"  transform=" translate(-512, -432)" d="M 288 96 h 64 v 672 H 288 z M 416 96 h 64 v 672 h -64 z M 544 96 h 64 v 672 h -64 z M 672 96 h 64 v 672 h -64 z" stroke-linecap="round" />
</g>
		<g transform="matrix(0.78 0 0 0.78 -0.28 324.88)"  >
<path style="stroke: none; stroke-width: 1; stroke-dasharray: none; stroke-linecap: butt; stroke-dashoffset: 0; stroke-linejoin: miter; stroke-miterlimit: 4; fill: rgb(67,72,84); fill-rule: nonzero; opacity: 1;"  transform=" translate(-512, -928)" d="M 288 832 h 64 v 192 H 288 z M 416 832 h 64 v 192 h -64 z M 544 832 h 64 v 192 h -64 z M 672 832 h 64 v 192 h -64 z" stroke-linecap="round" />
</g>
		<g transform="matrix(0.78 0 0 0.78 -0.44 -362.56)"  >
<path style="stroke: none; stroke-width: 1; stroke-dasharray: none; stroke-linecap: butt; stroke-dashoffset: 0; stroke-linejoin: miter; stroke-miterlimit: 4; fill: rgb(239,77,77); fill-rule: nonzero; opacity: 1;"  transform=" translate(-512, -48)" d="M 864 65.984 c 0 16.576 -13.44 30.016 -30.016 30.016 H 190.016 A 30.016 30.016 0 0 1 160 65.984 V 30.016 C 160 13.44 173.44 0 190.016 0 h 644 c 16.544 0 29.984 13.44 29.984 30.016 v 35.968 z" stroke-linecap="round" />
</g>
		<g transform="matrix(0.78 0 0 0.78 -0.36 -312.52)"  >
<path style="stroke: none; stroke-width: 1; stroke-dasharray: none; stroke-linecap: butt; stroke-dashoffset: 0; stroke-linejoin: miter; stroke-miterlimit: 4; fill: rgb(0,0,0); fill-rule: nonzero; opacity: 1;"  transform=" translate(-512, -112)" d="M 224 96 h 64 v 32 H 224 z M 352 96 h 64 v 32 h -64 z M 480 96 h 64 v 32 h -64 z M 608 96 h 64 v 32 h -64 z M 736 96 h 64 v 32 h -64 z" stroke-linecap="round" />
</g>
		<g transform="matrix(0.78 0 0 0.78 -0.28 -312.52)"  >
<path style="stroke: none; stroke-width: 1; stroke-dasharray: none; stroke-linecap: butt; stroke-dashoffset: 0; stroke-linejoin: miter; stroke-miterlimit: 4; fill: rgb(0,0,0); fill-rule: nonzero; opacity: 1;"  transform=" translate(-512, -112)" d="M 288 96 h 64 v 32 H 288 z M 416 96 h 64 v 32 h -64 z M 544 96 h 64 v 32 h -64 z M 672 96 h 64 v 32 h -64 z" stroke-linecap="round" />
</g>
		<g transform="matrix(0.78 0 0 0.78 -0.64 324.88)"  >
<path style="stroke: none; stroke-width: 1; stroke-dasharray: none; stroke-linecap: butt; stroke-dashoffset: 0; stroke-linejoin: miter; stroke-miterlimit: 4; fill: rgb(58,173,115); fill-rule: nonzero; opacity: 1;"  transform=" translate(-512, -928)" d="M 238.24 1024 A 126.656 126.656 0 0 0 256 960 a 128 128 0 0 0 -256 0 c 0 23.424 6.752 45.088 17.76 64 h 220.48 z M 896 832 a 127.744 127.744 0 0 0 -116.224 75.04 A 94.848 94.848 0 0 0 736 896 a 96 96 0 0 0 -96 96 c 0 11.296 2.304 21.952 5.888 32 h 360.384 A 126.944 126.944 0 0 0 1024 960 a 128 128 0 0 0 -128 -128 z" stroke-linecap="round" />
</g>
		<g transform="matrix(0.78 0 0 0.78 156.85 349.92)"  >
<path style="stroke: none; stroke-width: 1; stroke-dasharray: none; stroke-linecap: butt; stroke-dashoffset: 0; stroke-linejoin: miter; stroke-miterlimit: 4; fill: rgb(0,0,0); fill-rule: nonzero; opacity: 1;"  transform=" translate(-712.88, -960)" d="M 779.776 907.04 A 94.848 94.848 0 0 0 736 896 a 96 96 0 0 0 -96 96 c 0 11.296 2.304 21.952 5.888 32 h 139.872 A 126.656 126.656 0 0 1 768 960 c 0 -18.944 4.384 -36.768 11.776 -52.96 z" stroke-linecap="round" />
</g>
</g>
</g>
<g transform="matrix(0.17 0 0 0.17 785.78 168.49)"  >
<g style=""   >
		<g transform="matrix(0.78 0 0 0.78 -0.56 36.92)"  >
<path style="stroke: none; stroke-width: 1; stroke-dasharray: none; stroke-linecap: butt; stroke-dashoffset: 0; stroke-linejoin: miter; stroke-miterlimit: 4; fill: rgb(234,234,234); fill-rule: nonzero; opacity: 1;"  transform=" translate(-512, -560)" d="M 64 96 h 896 v 928 H 64 z" stroke-linecap="round" />
</g>
		<g transform="matrix(0.78 0 0 0.78 -0.12 299.84)"  >
<path style="stroke: none; stroke-width: 1; stroke-dasharray: none; stroke-linecap: butt; stroke-dashoffset: 0; stroke-linejoin: miter; stroke-miterlimit: 4; fill: rgb(67,72,84); fill-rule: nonzero; opacity: 1;"  transform=" translate(-512, -896)" d="M 416 768 h 192 v 256 h -192 z" stroke-linecap="round" />
</g>
		<g transform="matrix(0.78 0 0 0.78 -0.44 24.56)"  >
<path style="stroke: none; stroke-width: 1; stroke-dasharray: none; stroke-linecap: butt; stroke-dashoffset: 0; stroke-linejoin: miter; stroke-miterlimit: 4; fill: rgb(70,159,204); fill-rule: nonzero; opacity: 1;"  transform=" translate(-512, -544)" d="M 416 576 h 192 v 128 h -192 z M 160 576 h 192 v 128 H 160 z M 160 768 h 192 v 128 H 160 z M 672 576 h 192 v 128 h -192 z M 672 768 h 192 v 128 h -192 z M 416 384 h 192 v 128 h -192 z M 160 384 h 192 v 128 H 160 z M 672 384 h 192 v 128 h -192 z M 416 192 h 192 v 128 h -192 z M 160 192 h 192 v 128 H 160 z M 672 192 h 192 v 128 h -192 z" stroke-linecap="round" />
</g>
		<g transform="matrix(0.78 0 0 0.78 -0.44 -12.88)"  >
<path style="stroke: none; stroke-width: 1; stroke-dasharray: none; stroke-linecap: butt; stroke-dashoffset: 0; stroke-linejoin: miter; stroke-miterlimit: 4; fill: rgb(0,0,0); fill-rule: nonzero; opacity: 1;"  transform=" translate(-512, -496)" d="M 160 192 h 192 v 32 H 160 z M 416 192 h 192 v 32 h -192 z M 672 192 h 192 v 32 h -192 z M 160 384 h 192 v 32 H 160 z M 416 384 h 192 v 32 h -192 z M 672 384 h 192 v 32 h -192 z M 160 576 h 192 v 32 H 160 z M 416 576 h 192 v 32 h -192 z M 672 576 h 192 v 32 h -192 z M 160 768 h 192 v 32 H 160 z M 672 768 h 192 v 32 h -192 z" stroke-linecap="round" />
</g>
		<g transform="matrix(0.78 0 0 0.78 -0.56 -312.52)"  >
<path style="stroke: none; stroke-width: 1; stroke-dasharray: none; stroke-linecap: butt; stroke-dashoffset: 0; stroke-linejoin: miter; stroke-miterlimit: 4; fill: rgb(0,0,0); fill-rule: nonzero; opacity: 1;"  transform=" translate(-512, -112)" d="M 64 96 h 896 v 32 H 64 z" stroke-linecap="round" />
</g>
		<g transform="matrix(0.78 0 0 0.78 -0.64 -362.56)"  >
<path style="stroke: none; stroke-width: 1; stroke-dasharray: none; stroke-linecap: butt; stroke-dashoffset: 0; stroke-linejoin: miter; stroke-miterlimit: 4; fill: rgb(239,77,77); fill-rule: nonzero; opacity: 1;"  transform=" translate(-512, -48)" d="M 1024 64 a 32 32 0 0 1 -32 32 H 32 a 32 32 0 0 1 -32 -32 V 32 a 32 32 0 0 1 32 -32 h 960 a 32 32 0 0 1 32 32 v 32 z" stroke-linecap="round" />
</g>
		<g transform="matrix(0.78 0 0 0.78 -0.64 324.88)"  >
<path style="stroke: none; stroke-width: 1; stroke-dasharray: none; stroke-linecap: butt; stroke-dashoffset: 0; stroke-linejoin: miter; stroke-miterlimit: 4; fill: rgb(58,173,115); fill-rule: nonzero; opacity: 1;"  transform=" translate(-512, -928)" d="M 238.24 1024 A 126.656 126.656 0 0 0 256 960 a 128 128 0 0 0 -256 0 c 0 23.424 6.752 45.088 17.76 64 h 220.48 z M 896 832 a 127.744 127.744 0 0 0 -116.224 75.04 A 94.848 94.848 0 0 0 736 896 a 96 96 0 0 0 -96 96 c 0 11.296 2.304 21.952 5.888 32 h 360.384 A 126.944 126.944 0 0 0 1024 960 a 128 128 0 0 0 -128 -128 z" stroke-linecap="round" />
</g>
		<g transform="matrix(0.78 0 0 0.78 156.85 349.92)"  >
<path style="stroke: none; stroke-width: 1; stroke-dasharray: none; stroke-linecap: butt; stroke-dashoffset: 0; stroke-linejoin: miter; stroke-miterlimit: 4; fill: rgb(0,0,0); fill-rule: nonzero; opacity: 1;"  transform=" translate(-712.88, -960)" d="M 779.776 907.04 A 94.848 94.848 0 0 0 736 896 a 96 96 0 0 0 -96 96 c 0 11.296 2.304 21.952 5.888 32 h 139.872 A 126.656 126.656 0 0 1 768 960 c 0 -18.944 4.384 -36.768 11.776 -52.96 z" stroke-linecap="round" />
</g>
</g>
</g>
</svg>