<svg id="visual" viewBox="0 0 900 100" width="900" height="100" xmlns="http://www.w3.org/2000/svg" xmlns:xlink="http://www.w3.org/1999/xlink" version="1.1"><rect x="0" y="0" width="900" height="100" fill="#ffffff"></rect><path d="M0 38L53 42L106 48L159 61L212 53L265 44L318 30L371 36L424 63L476 54L529 39L582 66L635 44L688 60L741 57L794 65L847 50L900 46L900 101L847 101L794 101L741 101L688 101L635 101L582 101L529 101L476 101L424 101L371 101L318 101L265 101L212 101L159 101L106 101L53 101L0 101Z" fill="#00cc8e"></path><path d="M0 68L53 64L106 69L159 50L212 70L265 72L318 60L371 79L424 62L476 60L529 59L582 66L635 44L688 62L741 44L794 46L847 77L900 62L900 101L847 101L794 101L741 101L688 101L635 101L582 101L529 101L476 101L424 101L371 101L318 101L265 101L212 101L159 101L106 101L53 101L0 101Z" fill="#119c64"></path><path d="M0 86L53 80L106 74L159 75L212 66L265 83L318 83L371 88L424 73L476 77L529 72L582 83L635 74L688 69L741 65L794 78L847 72L900 69L900 101L847 101L794 101L741 101L688 101L635 101L582 101L529 101L476 101L424 101L371 101L318 101L265 101L212 101L159 101L106 101L53 101L0 101Z" fill="#0d6e3f"></path></svg>