<svg id="visual" viewBox="0 0 900 100" width="900" height="100" xmlns="http://www.w3.org/2000/svg" xmlns:xlink="http://www.w3.org/1999/xlink" version="1.1"><rect x="0" y="0" width="900" height="100" fill="#212529"></rect><path d="M0 82L10 81C20 80 40 78 60 73.2C80 68.3 100 60.7 120 58.5C140 56.3 160 59.7 180 64.2C200 68.7 220 74.3 240 74.8C260 75.3 280 70.7 300 66.5C320 62.3 340 58.7 360 61.3C380 64 400 73 420 72.2C440 71.3 460 60.7 480 59.2C500 57.7 520 65.3 540 69.5C560 73.7 580 74.3 600 71C620 67.7 640 60.3 660 60.2C680 60 700 67 720 70.3C740 73.7 760 73.3 780 74C800 74.7 820 76.3 840 75.3C860 74.3 880 70.7 890 68.8L900 67L900 0L890 0C880 0 860 0 840 0C820 0 800 0 780 0C760 0 740 0 720 0C700 0 680 0 660 0C640 0 620 0 600 0C580 0 560 0 540 0C520 0 500 0 480 0C460 0 440 0 420 0C400 0 380 0 360 0C340 0 320 0 300 0C280 0 260 0 240 0C220 0 200 0 180 0C160 0 140 0 120 0C100 0 80 0 60 0C40 0 20 0 10 0L0 0Z" fill="#198754"></path><path d="M0 50L10 49.5C20 49 40 48 60 48.3C80 48.7 100 50.3 120 53.3C140 56.3 160 60.7 180 63.3C200 66 220 67 240 63.5C260 60 280 52 300 50.3C320 48.7 340 53.3 360 54.3C380 55.3 400 52.7 420 51.2C440 49.7 460 49.3 480 48.2C500 47 520 45 540 44.3C560 43.7 580 44.3 600 45.2C620 46 640 47 660 50.5C680 54 700 60 720 58.7C740 57.3 760 48.7 780 46.2C800 43.7 820 47.3 840 51C860 54.7 880 58.3 890 60.2L900 62L900 0L890 0C880 0 860 0 840 0C820 0 800 0 780 0C760 0 740 0 720 0C700 0 680 0 660 0C640 0 620 0 600 0C580 0 560 0 540 0C520 0 500 0 480 0C460 0 440 0 420 0C400 0 380 0 360 0C340 0 320 0 300 0C280 0 260 0 240 0C220 0 200 0 180 0C160 0 140 0 120 0C100 0 80 0 60 0C40 0 20 0 10 0L0 0Z" fill="#16804e"></path><path d="M0 36L10 37.5C20 39 40 42 60 41.3C80 40.7 100 36.3 120 34C140 31.7 160 31.3 180 31.5C200 31.7 220 32.3 240 33.2C260 34 280 35 300 36.2C320 37.3 340 38.7 360 40.5C380 42.3 400 44.7 420 46.3C440 48 460 49 480 48.7C500 48.3 520 46.7 540 43.7C560 40.7 580 36.3 600 33.8C620 31.3 640 30.7 660 33.8C680 37 700 44 720 44.2C740 44.3 760 37.7 780 36C800 34.3 820 37.7 840 40C860 42.3 880 43.7 890 44.3L900 45L900 0L890 0C880 0 860 0 840 0C820 0 800 0 780 0C760 0 740 0 720 0C700 0 680 0 660 0C640 0 620 0 600 0C580 0 560 0 540 0C520 0 500 0 480 0C460 0 440 0 420 0C400 0 380 0 360 0C340 0 320 0 300 0C280 0 260 0 240 0C220 0 200 0 180 0C160 0 140 0 120 0C100 0 80 0 60 0C40 0 20 0 10 0L0 0Z" fill="#137a49"></path><path d="M0 32L10 32.2C20 32.3 40 32.7 60 33.7C80 34.7 100 36.3 120 36.5C140 36.7 160 35.3 180 32C200 28.7 220 23.3 240 23.7C260 24 280 30 300 31.5C320 33 340 30 360 27.7C380 25.3 400 23.7 420 24C440 24.3 460 26.7 480 27.3C500 28 520 27 540 26C560 25 580 24 600 24.5C620 25 640 27 660 28.3C680 29.7 700 30.3 720 29.5C740 28.7 760 26.3 780 27C800 27.7 820 31.3 840 32.8C860 34.3 880 33.7 890 33.3L900 33L900 0L890 0C880 0 860 0 840 0C820 0 800 0 780 0C760 0 740 0 720 0C700 0 680 0 660 0C640 0 620 0 600 0C580 0 560 0 540 0C520 0 500 0 480 0C460 0 440 0 420 0C400 0 380 0 360 0C340 0 320 0 300 0C280 0 260 0 240 0C220 0 200 0 180 0C160 0 140 0 120 0C100 0 80 0 60 0C40 0 20 0 10 0L0 0Z" fill="#107444"></path><path d="M0 13L10 14.5C20 16 40 19 60 19C80 19 100 16 120 13.7C140 11.3 160 9.7 180 8.8C200 8 220 8 240 10.2C260 12.3 280 16.7 300 18.8C320 21 340 21 360 20.3C380 19.7 400 18.3 420 17.2C440 16 460 15 480 13.5C500 12 520 10 540 11.5C560 13 580 18 600 19C620 20 640 17 660 15.8C680 14.7 700 15.3 720 15.8C740 16.3 760 16.7 780 17.8C800 19 820 21 840 21C860 21 880 19 890 18L900 17L900 0L890 0C880 0 860 0 840 0C820 0 800 0 780 0C760 0 740 0 720 0C700 0 680 0 660 0C640 0 620 0 600 0C580 0 560 0 540 0C520 0 500 0 480 0C460 0 440 0 420 0C400 0 380 0 360 0C340 0 320 0 300 0C280 0 260 0 240 0C220 0 200 0 180 0C160 0 140 0 120 0C100 0 80 0 60 0C40 0 20 0 10 0L0 0Z" fill="#0d6e3f"></path></svg>