<svg xmlns="http://www.w3.org/2000/svg" viewBox="0 0 514.303 155.709"><defs><style>.a{fill:#59611d;}.b{fill:#fff;}.c{fill:#e1251b;}.d{fill:white;stroke:#231f20;stroke-width:0.25px;}</style></defs><path class="a" d="M146.969,22.613a1,1,0,0,0-.928-.885c-2.3-.15-56.5-3.673-62.833-3.728-6.948-.027-59.517,3.574-61.75,3.728a1,1,0,0,0-.921.864c-9.195,58.185,8.35,96.138,24.69,117.727,17.725,23.42,37.945,33.2,38.147,33.293a1.01,1.01,0,0,0,.429.1,1,1,0,0,0,.43-.1c.2-.1,20.4-9.895,38.1-33.325C138.648,118.689,156.163,80.741,146.969,22.613Z" transform="translate(-18 -18)"></path><path class="b" d="M120.41,137.632c-16.92,22.395-36.2,31.75-36.392,31.842a.494.494,0,0,1-.429,0c-.193-.092-19.49-9.423-36.427-31.8-15.624-20.646-32.4-56.946-23.6-112.63a.5.5,0,0,1,.459-.421c.525-.036,52.494-3.635,59.205-3.575,6.066.048,59.735,3.54,60.277,3.575a.5.5,0,0,1,.461.421C152.773,80.673,136.018,116.975,120.41,137.632ZM25.251,26.519C8.605,131.825,83.8,167.552,83.8,167.552s75.132-35.813,58.482-141.033c0,0-53.051-3.455-59.043-3.5-6.6-.058-57.991,3.5-57.991,3.5" transform="translate(-18 -18)"></path><path class="b" d="M114.773,130.146c-14.394,19.049-30.8,27.007-30.964,27.085a.49.49,0,0,1-.215.049.5.5,0,0,1-.214-.048c-.164-.079-16.583-8.019-30.991-27.059C39.1,112.612,24.832,81.739,32.321,34.385a.434.434,0,0,1,.459-.427c1.821-.126,44.694-3.07,50.335-3.034,5.146.041,50.772,3,51.232,3.034a.5.5,0,0,1,.352.179.524.524,0,0,1,.115.248C142.3,81.7,128.05,112.577,114.773,130.146Zm-80.945-94.5C19.674,125.169,83.594,155.527,83.594,155.527s63.867-30.435,49.7-119.881c0,0-45.081-2.93-50.174-2.968-5.624-.055-49.293,2.968-49.293,2.968" transform="translate(-18 -18)"></path><path class="b" d="M48.681,46.3a7.363,7.363,0,0,1,5.474-2.189q4.432,0,6.483,2.933a6.386,6.386,0,0,1,1.222,3.3H58.142a5.034,5.034,0,0,0-.907-1.922,3.666,3.666,0,0,0-2.945-1.149A3.6,3.6,0,0,0,51.161,48.9a7.894,7.894,0,0,0-1.154,4.6,7,7,0,0,0,1.213,4.466,3.8,3.8,0,0,0,3.073,1.483,3.493,3.493,0,0,0,2.918-1.279,5.563,5.563,0,0,0,.921-2.051h3.687a7.938,7.938,0,0,1-2.441,4.706,7.09,7.09,0,0,1-5.03,1.821A7.582,7.582,0,0,1,48.377,60.2a9.853,9.853,0,0,1-2.164-6.748c0-3.094.82-5.471,2.468-7.15" transform="translate(-18 -18)"></path><path class="b" d="M70.923,56.688A3.657,3.657,0,0,0,71.6,58.5a3.926,3.926,0,0,0,3.167,1.1,6.825,6.825,0,0,0,2.18-.288,2.056,2.056,0,0,0,1.588-2.051,1.508,1.508,0,0,0-.776-1.36,8.323,8.323,0,0,0-2.469-.828l-1.925-.422a12.042,12.042,0,0,1-3.905-1.357,4.323,4.323,0,0,1-1.792-3.829,5.072,5.072,0,0,1,1.754-3.954,7.515,7.515,0,0,1,5.166-1.572,7.93,7.93,0,0,1,4.859,1.48,5.256,5.256,0,0,1,2.109,4.306H77.987a2.548,2.548,0,0,0-1.438-2.268,4.886,4.886,0,0,0-2.219-.444,4.273,4.273,0,0,0-2.351.57,1.851,1.851,0,0,0-.876,1.614,1.525,1.525,0,0,0,.87,1.417,11.084,11.084,0,0,0,2.357.734l3.125.734a7.943,7.943,0,0,1,3.078,1.284,4.344,4.344,0,0,1,1.584,3.615,5.083,5.083,0,0,1-1.883,4.036,7.991,7.991,0,0,1-5.318,1.6,8.719,8.719,0,0,1-5.523-1.575,5.217,5.217,0,0,1-2.018-4.348h3.548" transform="translate(-18 -18)"></path><path class="b" d="M89.846,46.3a7.333,7.333,0,0,1,5.46-2.189c2.96,0,5.12.98,6.505,2.933a6.55,6.55,0,0,1,1.213,3.3h-3.73a4.823,4.823,0,0,0-.9-1.922,4.048,4.048,0,0,0-6.073.479,7.858,7.858,0,0,0-1.148,4.6,6.938,6.938,0,0,0,1.214,4.466,3.8,3.8,0,0,0,3.077,1.483,3.47,3.47,0,0,0,2.908-1.279,5.484,5.484,0,0,0,.919-2.051h3.7a7.983,7.983,0,0,1-2.442,4.706,7.1,7.1,0,0,1-5.028,1.821A7.547,7.547,0,0,1,89.545,60.2a9.833,9.833,0,0,1-2.177-6.748c0-3.094.821-5.471,2.478-7.15" transform="translate(-18 -18)"></path><polygon class="b" points="104.559 29.582 95.147 29.582 95.147 33.349 103.774 33.349 103.774 36.42 95.147 36.42 95.147 40.972 104.992 40.972 104.992 44.157 91.518 44.157 91.518 26.446 104.559 26.446 104.559 29.582"></polygon><path class="b" d="M69.209,70.143a7.325,7.325,0,0,1,5.468-2.18c2.958,0,5.122.966,6.491,2.929a6.327,6.327,0,0,1,1.214,3.3H78.671a5.086,5.086,0,0,0-.913-1.921,3.676,3.676,0,0,0-2.944-1.156,3.616,3.616,0,0,0-3.13,1.627,7.915,7.915,0,0,0-1.152,4.609,6.986,6.986,0,0,0,1.211,4.465,3.819,3.819,0,0,0,3.08,1.484,3.512,3.512,0,0,0,2.913-1.272,5.569,5.569,0,0,0,.917-2.054h3.689a7.934,7.934,0,0,1-2.437,4.706A7.138,7.138,0,0,1,74.87,86.5a7.562,7.562,0,0,1-5.962-2.449,9.841,9.841,0,0,1-2.169-6.755q0-4.629,2.47-7.148" transform="translate(-18 -18)"></path><path class="b" d="M78.775,98.421a3.478,3.478,0,0,0-2.063-2.537,5.149,5.149,0,0,0-2.035-.389A4.447,4.447,0,0,0,71.144,97.1a7.31,7.31,0,0,0-1.38,4.849c0,2.176.5,3.716,1.5,4.623a4.913,4.913,0,0,0,3.4,1.347,4.431,4.431,0,0,0,3.057-1.061,4.629,4.629,0,0,0,1.482-2.8H75.088V101.1h7.406v9.5H80.032l-.374-2.209a8.229,8.229,0,0,1-1.935,1.764,6.727,6.727,0,0,1-3.615.905,7.543,7.543,0,0,1-5.787-2.435,9.259,9.259,0,0,1-2.359-6.7,9.805,9.805,0,0,1,2.378-6.9,8.14,8.14,0,0,1,6.291-2.594,8.253,8.253,0,0,1,5.445,1.717,6.353,6.353,0,0,1,2.358,4.266H78.775" transform="translate(-18 -18)"></path><path class="b" d="M69.209,119.355a7.326,7.326,0,0,1,5.468-2.2c2.958,0,5.122.989,6.491,2.942a6.327,6.327,0,0,1,1.214,3.3H78.671a5.132,5.132,0,0,0-.913-1.921,3.664,3.664,0,0,0-2.944-1.157,3.627,3.627,0,0,0-3.13,1.635,7.887,7.887,0,0,0-1.152,4.6,7.014,7.014,0,0,0,1.211,4.466,3.809,3.809,0,0,0,3.08,1.482,3.511,3.511,0,0,0,2.913-1.271,5.557,5.557,0,0,0,.917-2.06h3.689a7.936,7.936,0,0,1-2.437,4.715,7.125,7.125,0,0,1-5.035,1.814,7.561,7.561,0,0,1-5.962-2.453,9.823,9.823,0,0,1-2.169-6.758q0-4.631,2.47-7.14" transform="translate(-18 -18)"></path><path class="b" d="M107.479,114.369h-1.755v-9.032l-10.2,1.346,1.556-2.584c.12-.206.113-.212-.046-.362l-8.986-6.452,3.16-.737a.352.352,0,0,0,.19-.512l-1.507-4.6,4.73,1.517c.275.035.341.008.423-.138L95,88.991l6.117,6.083c0-.013-.01-.028-.017-.044L98.716,83.38l4.515,2.084a.552.552,0,0,0,.462-.031l2.155-6.817,2.167,6.816a.549.549,0,0,0,.478.022l4.492-2.073L110.622,95c-.014.033-.026.061-.034.085l6.139-6.095-.058,3.822c.087.149.154.174.452.133l4.711-1.511-1.522,4.594c-.091.258-.029.4.229.529l3.123.73-8.989,6.465c-.157.143-.157.143-.029.345l1.558,2.6-8.723-1.382Z" transform="translate(-18 -18)"></path><path class="b" d="M96.8,119.387V118.5a7.755,7.755,0,0,0,.873-.076,1.238,1.238,0,0,0,.638-.349,1.049,1.049,0,0,0,.249-.478.8.8,0,0,0,.062-.266h1.085v6.633H98.369v-4.573H96.8" transform="translate(-18 -18)"></path><path class="b" d="M101.894,121.105a1.631,1.631,0,0,1,.738-.677,1.563,1.563,0,0,1-.638-.689,2.266,2.266,0,0,1-.141-.708,1.629,1.629,0,0,1,.55-1.23,2.607,2.607,0,0,1,3.095,0,1.624,1.624,0,0,1,.549,1.23,1.988,1.988,0,0,1-.14.708,1.312,1.312,0,0,1-.63.643,1.794,1.794,0,0,1,.736.723,1.9,1.9,0,0,1,.258,1.01,1.878,1.878,0,0,1-.631,1.429,2.4,2.4,0,0,1-1.739.6,2.239,2.239,0,0,1-1.691-.6,1.963,1.963,0,0,1-.582-1.429,1.984,1.984,0,0,1,.266-1.01m1.359,1.688a.921.921,0,0,0,.7.266.939.939,0,0,0,.7-.266,1.073,1.073,0,0,0,.255-.761,1.093,1.093,0,0,0-.255-.773.96.96,0,0,0-.7-.256.92.92,0,0,0-.7.256,1.065,1.065,0,0,0-.265.773,1.035,1.035,0,0,0,.257.761m.078-3.025a.783.783,0,0,0,.627.231.765.765,0,0,0,.616-.231.84.84,0,0,0,.225-.58.9.9,0,0,0-.225-.623.83.83,0,0,0-.616-.214.849.849,0,0,0-.627.214.888.888,0,0,0-.215.623.828.828,0,0,0,.215.58" transform="translate(-18 -18)"></path><path class="b" d="M107.129,121.105a1.609,1.609,0,0,1,.745-.677,1.523,1.523,0,0,1-.644-.689,1.993,1.993,0,0,1-.142-.708,1.651,1.651,0,0,1,.554-1.23,2.177,2.177,0,0,1,1.544-.509,2.213,2.213,0,0,1,1.556.509,1.645,1.645,0,0,1,.545,1.23,2.032,2.032,0,0,1-.148.708,1.267,1.267,0,0,1-.632.643,1.786,1.786,0,0,1,.744.723,2.052,2.052,0,0,1,.26,1.01,1.877,1.877,0,0,1-.633,1.429,2.4,2.4,0,0,1-1.728.6,2.284,2.284,0,0,1-1.71-.6,2.055,2.055,0,0,1-.311-2.439m1.356,1.688a1.074,1.074,0,0,0,1.415,0,1.256,1.256,0,0,0-.005-1.534.948.948,0,0,0-.709-.256.925.925,0,0,0-.7.256,1.287,1.287,0,0,0,0,1.534m.082-3.025a.957.957,0,0,0,1.247,0,.827.827,0,0,0,.213-.58.887.887,0,0,0-.213-.623,1.015,1.015,0,0,0-1.247,0,.892.892,0,0,0-.223.623.834.834,0,0,0,.223.58" transform="translate(-18 -18)"></path><path class="b" d="M116.833,118.434a7.723,7.723,0,0,0-.835,1.025,8.707,8.707,0,0,0-.872,1.524,9.378,9.378,0,0,0-.509,1.515,6.283,6.283,0,0,0-.221,1.462h-1.371a8.01,8.01,0,0,1,1.193-3.712,8.166,8.166,0,0,1,1.2-1.662H112.1l.021-1.169h4.715v1.017" transform="translate(-18 -18)"></path><path class="c" d="M106.056,114.037h1.091v-9.115l8.4,1.332-1.19-1.984a.5.5,0,0,1,.1-.777l8.412-6.051-2.449-.576a.7.7,0,0,1-.432-.947l1.316-3.97L117.2,93.267c-.413.061-.643.024-.839-.334l-.021-.038v-.044l.047-3.051-5.768,5.726-.085-.016a.351.351,0,0,1-.267-.17.524.524,0,0,1,.045-.444l2.221-10.939L108.6,85.765a.906.906,0,0,1-.8-.067l-.063-.031-.021-.067-1.87-5.885-1.881,5.951-.062.031a.918.918,0,0,1-.786.079l-3.947-1.819,2.24,10.975a.486.486,0,0,1,.024.412.341.341,0,0,1-.253.166l-.086.017-.062-.062-5.7-5.667.033,3.095-.019.036c-.184.36-.426.4-.811.345l-4.137-1.326,1.3,3.975a.676.676,0,0,1-.366.929l-.039.014-2.469.577,8.408,6.039a.518.518,0,0,1,.122.786l-1.2,2,9.9-1.305Z" transform="translate(-18 -18)"></path><path class="d" d="M194.292,70.154a12.99,12.99,0,0,1-2.285,1.4,12.725,12.725,0,0,1-2.629.907,13.743,13.743,0,0,1-3.083.326,12.458,12.458,0,0,1-5.042-1.015,12.334,12.334,0,0,1-4.008-2.775,12.6,12.6,0,0,1-2.629-4.153,13.821,13.821,0,0,1-.943-5.114v-.073a13.5,13.5,0,0,1,.961-5.078,13.263,13.263,0,0,1,2.648-4.189,12.268,12.268,0,0,1,9.085-3.862,15.042,15.042,0,0,1,3.083.29,11.919,11.919,0,0,1,2.557.834,13.377,13.377,0,0,1,2.213,1.288,21.1,21.1,0,0,1,2.013,1.65l-1.342,1.378a20.692,20.692,0,0,0-1.741-1.487,10.983,10.983,0,0,0-1.941-1.179,11.463,11.463,0,0,0-2.248-.779,11.284,11.284,0,0,0-2.63-.291,10.291,10.291,0,0,0-7.635,3.283,11.356,11.356,0,0,0-2.248,3.609,12.039,12.039,0,0,0-.816,4.461v.072a11.928,11.928,0,0,0,.834,4.479,11.545,11.545,0,0,0,2.267,3.627,10.477,10.477,0,0,0,3.391,2.431,10.151,10.151,0,0,0,4.243.888,10.587,10.587,0,0,0,4.788-1.015,15.366,15.366,0,0,0,3.953-2.938l1.27,1.233A23.785,23.785,0,0,1,194.292,70.154Z" transform="translate(-18 -18)"></path><path class="d" d="M213.316,72.349V69.266a9.266,9.266,0,0,1-1.142,1.287,7.8,7.8,0,0,1-1.542,1.125,8.883,8.883,0,0,1-1.977.8,8.982,8.982,0,0,1-2.412.308,9.359,9.359,0,0,1-2.575-.362,7.388,7.388,0,0,1-2.285-1.089,5.777,5.777,0,0,1-1.65-1.813,4.941,4.941,0,0,1-.635-2.539v-.073a5.4,5.4,0,0,1,.6-2.575,5.474,5.474,0,0,1,1.65-1.886,7.687,7.687,0,0,1,2.539-1.161,12.765,12.765,0,0,1,3.3-.4,22.546,22.546,0,0,1,3.373.218,25.5,25.5,0,0,1,2.757.58v-.793a5.3,5.3,0,0,0-1.614-4.22,6.6,6.6,0,0,0-4.48-1.406,11,11,0,0,0-3.119.417,15.344,15.344,0,0,0-2.684,1.07l-.653-1.561a18.749,18.749,0,0,1,3.083-1.186,12.708,12.708,0,0,1,3.482-.445,8.288,8.288,0,0,1,5.659,1.814,6.854,6.854,0,0,1,2.067,5.44V72.349Zm.036-9.035q-1.161-.289-2.72-.56a21,21,0,0,0-3.555-.27,7.467,7.467,0,0,0-4.515,1.173,3.7,3.7,0,0,0-1.578,3.124v.072a3.6,3.6,0,0,0,.435,1.788A4.11,4.11,0,0,0,202.6,69.96a5.569,5.569,0,0,0,1.723.83,7.128,7.128,0,0,0,2.031.289,8.577,8.577,0,0,0,2.684-.415,7.383,7.383,0,0,0,2.231-1.156,5.547,5.547,0,0,0,1.523-1.788,4.8,4.8,0,0,0,.562-2.311Z" transform="translate(-18 -18)"></path><path class="d" d="M234.969,72.349V61.359a6.673,6.673,0,0,0-1.524-4.588,5.5,5.5,0,0,0-4.352-1.723,6.453,6.453,0,0,0-2.539.49,6.3,6.3,0,0,0-2.031,1.36,6.16,6.16,0,0,0-1.36,2.086,7.054,7.054,0,0,0-.49,2.665v10.7H220.9v-18.5h1.777V57.3a8.632,8.632,0,0,1,2.539-2.757,7.027,7.027,0,0,1,4.135-1.124,8.21,8.21,0,0,1,3.119.562,6.519,6.519,0,0,1,3.79,3.99,9.193,9.193,0,0,1,.49,3.064V72.349Z" transform="translate(-18 -18)"></path><path class="d" d="M255.279,72.349V69.266a9.211,9.211,0,0,1-1.143,1.287,7.767,7.767,0,0,1-1.541,1.125,8.916,8.916,0,0,1-4.389,1.106,9.359,9.359,0,0,1-2.575-.362,7.377,7.377,0,0,1-2.285-1.089,5.765,5.765,0,0,1-1.65-1.813,4.941,4.941,0,0,1-.635-2.539v-.073a5.412,5.412,0,0,1,.6-2.575,5.488,5.488,0,0,1,1.651-1.886,7.69,7.69,0,0,1,2.538-1.161,12.779,12.779,0,0,1,3.3-.4,22.546,22.546,0,0,1,3.373.218,25.5,25.5,0,0,1,2.757.58v-.793a5.3,5.3,0,0,0-1.614-4.22,6.6,6.6,0,0,0-4.48-1.406,11,11,0,0,0-3.119.417,15.344,15.344,0,0,0-2.684,1.07l-.653-1.561a18.749,18.749,0,0,1,3.083-1.186,12.7,12.7,0,0,1,3.482-.445,8.283,8.283,0,0,1,5.658,1.814,6.851,6.851,0,0,1,2.068,5.44V72.349Zm.036-9.035q-1.161-.289-2.72-.56a21,21,0,0,0-3.555-.27,7.465,7.465,0,0,0-4.515,1.173,3.7,3.7,0,0,0-1.578,3.124v.072a3.6,3.6,0,0,0,.435,1.788,4.11,4.11,0,0,0,1.179,1.319,5.559,5.559,0,0,0,1.723.83,7.128,7.128,0,0,0,2.031.289A8.577,8.577,0,0,0,251,70.664a7.383,7.383,0,0,0,2.231-1.156,5.547,5.547,0,0,0,1.523-1.788,4.8,4.8,0,0,0,.562-2.311Z" transform="translate(-18 -18)"></path><path class="d" d="M278.273,72.349V68.214a16.9,16.9,0,0,1-1.36,1.741,8.474,8.474,0,0,1-3.736,2.448,7.927,7.927,0,0,1-2.52.381,8.669,8.669,0,0,1-3.283-.653,8.864,8.864,0,0,1-2.883-1.886,9.326,9.326,0,0,1-2.049-3.029,10.027,10.027,0,0,1-.78-4.043V63.1a10.035,10.035,0,0,1,.78-4.044,9.55,9.55,0,0,1,2.049-3.047,9,9,0,0,1,2.883-1.922,8.662,8.662,0,0,1,5.822-.309,8.122,8.122,0,0,1,2.085.98,9.348,9.348,0,0,1,1.668,1.415,13.071,13.071,0,0,1,1.324,1.668V45.872h1.778V72.349Zm.109-9.285a8.083,8.083,0,0,0-.636-3.246,7.686,7.686,0,0,0-4.109-4.117,7.14,7.14,0,0,0-2.817-.58,7.442,7.442,0,0,0-2.854.544,6.706,6.706,0,0,0-2.309,1.559,7.281,7.281,0,0,0-1.546,2.485,9.22,9.22,0,0,0-.563,3.318V63.1a8.991,8.991,0,0,0,.581,3.3,7.521,7.521,0,0,0,1.582,2.52,6.985,6.985,0,0,0,2.327,1.6,7.149,7.149,0,0,0,5.6-.018,7.608,7.608,0,0,0,2.418-1.632,8.06,8.06,0,0,0,1.691-2.5,7.951,7.951,0,0,0,.636-3.228Z" transform="translate(-18 -18)"></path><path class="d" d="M286.288,49.027V46.6H288.5v2.43Zm.218,23.322v-18.5h1.777v18.5Z" transform="translate(-18 -18)"></path><path class="d" d="M307.433,72.349V69.266a9.138,9.138,0,0,1-1.142,1.287,7.767,7.767,0,0,1-1.541,1.125,8.916,8.916,0,0,1-4.389,1.106,9.354,9.354,0,0,1-2.575-.362,7.367,7.367,0,0,1-2.285-1.089,5.768,5.768,0,0,1-1.651-1.813,4.951,4.951,0,0,1-.634-2.539v-.073a5.4,5.4,0,0,1,.6-2.575,5.488,5.488,0,0,1,1.651-1.886A7.672,7.672,0,0,1,298,61.286a12.768,12.768,0,0,1,3.3-.4,22.546,22.546,0,0,1,3.373.218,25.433,25.433,0,0,1,2.756.58v-.793a5.3,5.3,0,0,0-1.613-4.22,6.6,6.6,0,0,0-4.48-1.406,11,11,0,0,0-3.119.417,15.344,15.344,0,0,0-2.684,1.07l-.653-1.561a18.749,18.749,0,0,1,3.083-1.186,12.7,12.7,0,0,1,3.482-.445,8.283,8.283,0,0,1,5.658,1.814,6.851,6.851,0,0,1,2.068,5.44V72.349Zm.037-9.035q-1.161-.289-2.72-.56a21,21,0,0,0-3.555-.27,7.471,7.471,0,0,0-4.516,1.173,3.7,3.7,0,0,0-1.577,3.124v.072a3.6,3.6,0,0,0,.435,1.788,4.1,4.1,0,0,0,1.179,1.319,5.559,5.559,0,0,0,1.723.83,7.121,7.121,0,0,0,2.03.289,8.579,8.579,0,0,0,2.685-.415,7.4,7.4,0,0,0,2.231-1.156,5.544,5.544,0,0,0,1.522-1.788,4.8,4.8,0,0,0,.563-2.311Z" transform="translate(-18 -18)"></path><path class="d" d="M329.086,72.349V61.359a6.673,6.673,0,0,0-1.524-4.588,5.5,5.5,0,0,0-4.352-1.723,6.457,6.457,0,0,0-2.539.49,6.3,6.3,0,0,0-2.031,1.36,6.16,6.16,0,0,0-1.36,2.086,7.054,7.054,0,0,0-.49,2.665v10.7h-1.777v-18.5h1.777V57.3a8.632,8.632,0,0,1,2.539-2.757,7.027,7.027,0,0,1,4.135-1.124,8.21,8.21,0,0,1,3.119.562,6.512,6.512,0,0,1,3.79,3.99,9.193,9.193,0,0,1,.49,3.064V72.349Z" transform="translate(-18 -18)"></path><path class="d" d="M363.813,68.6a6.56,6.56,0,0,1-1.74,2.194,8.175,8.175,0,0,1-2.648,1.415,10.81,10.81,0,0,1-3.392.508,14.223,14.223,0,0,1-5.5-1.016,16.9,16.9,0,0,1-4.733-3.047l1.233-1.414a18.088,18.088,0,0,0,2.086,1.686,11.714,11.714,0,0,0,2.122,1.161,11.9,11.9,0,0,0,2.285.689,13.536,13.536,0,0,0,2.611.236,8.574,8.574,0,0,0,2.612-.381,6.2,6.2,0,0,0,2.031-1.052,4.874,4.874,0,0,0,1.306-1.6,4.371,4.371,0,0,0,.471-2.013v-.072a5.018,5.018,0,0,0-.308-1.814,3.5,3.5,0,0,0-1.125-1.45,8.151,8.151,0,0,0-2.194-1.179,22.67,22.67,0,0,0-3.554-.962,24.575,24.575,0,0,1-3.918-1.106A9.634,9.634,0,0,1,348.8,57.9a5.107,5.107,0,0,1-1.506-1.976,6.619,6.619,0,0,1-.471-2.576v-.072a5.733,5.733,0,0,1,.616-2.63,6.673,6.673,0,0,1,1.7-2.121,8.018,8.018,0,0,1,2.575-1.415,10.062,10.062,0,0,1,3.265-.508,13.466,13.466,0,0,1,4.769.762,14.3,14.3,0,0,1,3.935,2.321l-1.2,1.487a10.9,10.9,0,0,0-7.581-2.865,8.055,8.055,0,0,0-2.557.381,6.286,6.286,0,0,0-1.959,1.033,4.547,4.547,0,0,0-1.251,1.524,4.082,4.082,0,0,0-.435,1.85v.072a5.147,5.147,0,0,0,.308,1.832,3.58,3.58,0,0,0,1.124,1.487,8.022,8.022,0,0,0,2.268,1.215,25.927,25.927,0,0,0,3.7,1.015,14.622,14.622,0,0,1,6.384,2.557,5.515,5.515,0,0,1,1.958,4.444v.072A6.273,6.273,0,0,1,363.813,68.6Z" transform="translate(-18 -18)"></path><path class="d" d="M386.736,66.8a9.67,9.67,0,0,1-2,3.083A9.56,9.56,0,0,1,381.713,72a9.211,9.211,0,0,1-3.808.78,9.082,9.082,0,0,1-3.791-.78,9.709,9.709,0,0,1-2.992-2.085,9.38,9.38,0,0,1-1.977-3.047,9.742,9.742,0,0,1-.707-3.7V63.1a9.708,9.708,0,0,1,2.7-6.782,9.588,9.588,0,0,1,3.029-2.123,9.217,9.217,0,0,1,3.808-.779,9.1,9.1,0,0,1,3.79.779,9.763,9.763,0,0,1,2.993,2.086,9.427,9.427,0,0,1,1.976,3.047,9.723,9.723,0,0,1,.707,3.7V63.1A9.719,9.719,0,0,1,386.736,66.8Zm-1.179-3.7a8.345,8.345,0,0,0-.583-3.123,7.8,7.8,0,0,0-1.622-2.545,7.53,7.53,0,0,0-2.441-1.7,7.408,7.408,0,0,0-3.006-.614,7.313,7.313,0,0,0-3.044.632,7.48,7.48,0,0,0-2.406,1.7,7.729,7.729,0,0,0-1.567,2.509,8.363,8.363,0,0,0-.564,3.069V63.1a8.349,8.349,0,0,0,.583,3.123,7.815,7.815,0,0,0,1.622,2.546,7.516,7.516,0,0,0,2.441,1.7,7.41,7.41,0,0,0,3.007.614,7.312,7.312,0,0,0,3.043-.632,7.473,7.473,0,0,0,2.406-1.7,7.714,7.714,0,0,0,1.566-2.51,8.359,8.359,0,0,0,.565-3.069Z" transform="translate(-18 -18)"></path><path class="d" d="M404.835,71.732a8.436,8.436,0,0,1-4.334,1.052,8.907,8.907,0,0,1-3.718-.78,9.656,9.656,0,0,1-2.988-2.085,9.493,9.493,0,0,1-1.976-3.047,9.669,9.669,0,0,1-.712-3.7V63.1a9.665,9.665,0,0,1,.712-3.7,9.926,9.926,0,0,1,1.976-3.083,9.39,9.39,0,0,1,2.988-2.123,8.922,8.922,0,0,1,3.718-.779,9.457,9.457,0,0,1,2.375.278,9.1,9.1,0,0,1,1.977.76,9.649,9.649,0,0,1,1.65,1.1,16.067,16.067,0,0,1,1.4,1.307l-1.27,1.306a14.127,14.127,0,0,0-2.647-2.14,6.515,6.515,0,0,0-3.518-.906,7.084,7.084,0,0,0-2.956.614,7.3,7.3,0,0,0-2.358,1.679,7.981,7.981,0,0,0-1.578,2.509,8.248,8.248,0,0,0-.58,3.1V63.1a8.146,8.146,0,0,0,.6,3.123,8.058,8.058,0,0,0,1.631,2.546,7.529,7.529,0,0,0,2.413,1.7,7.207,7.207,0,0,0,2.974.614,6.886,6.886,0,0,0,3.5-.888,10.852,10.852,0,0,0,2.7-2.2l1.233,1.089A13.147,13.147,0,0,1,404.835,71.732Z" transform="translate(-18 -18)"></path><path class="d" d="M412.578,49.027V46.6h2.213v2.43Zm.218,23.322v-18.5h1.777v18.5Z" transform="translate(-18 -18)"></path><path class="d" d="M422.409,66.893a7.957,7.957,0,0,0,1.636,2.274,6.744,6.744,0,0,0,2.237,1.425,7.213,7.213,0,0,0,2.637.487,7.54,7.54,0,0,0,3.691-.834,10.881,10.881,0,0,0,2.672-2.067l1.234,1.088a12.9,12.9,0,0,1-3.215,2.521,9.094,9.094,0,0,1-4.454,1,8.946,8.946,0,0,1-3.471-.689,8.779,8.779,0,0,1-2.908-1.959,9.259,9.259,0,0,1-1.982-3.046,10.348,10.348,0,0,1-.727-3.954v-.072a10.451,10.451,0,0,1,.671-3.754,9.643,9.643,0,0,1,1.85-3.065,8.818,8.818,0,0,1,2.774-2.068,7.991,7.991,0,0,1,3.482-.761,8.081,8.081,0,0,1,3.518.743,7.912,7.912,0,0,1,2.666,2.05,9.324,9.324,0,0,1,1.7,3.065,11.8,11.8,0,0,1,.6,3.826v.4a2.347,2.347,0,0,1-.036.326H421.645A8.07,8.07,0,0,0,422.409,66.893Zm12.728-4.663a10.523,10.523,0,0,0-.563-2.7,7.549,7.549,0,0,0-1.273-2.285,6.107,6.107,0,0,0-2.019-1.595,6.623,6.623,0,0,0-5.382-.055,6.475,6.475,0,0,0-2.091,1.505,8.163,8.163,0,0,0-1.473,2.285,8.545,8.545,0,0,0-.691,2.848Z" transform="translate(-18 -18)"></path><path class="d" d="M449.41,72.512a7.027,7.027,0,0,1-1.578.163,6.886,6.886,0,0,1-2.031-.29,4.26,4.26,0,0,1-2.756-2.521,5.866,5.866,0,0,1-.4-2.267V55.483h-2.684V53.851h2.684V47.939h1.777v5.912h6.492v1.632h-6.492V67.388a3.318,3.318,0,0,0,1.033,2.787,4.252,4.252,0,0,0,2.666.8,5.971,5.971,0,0,0,1.306-.137,8.171,8.171,0,0,0,1.415-.479v1.668A7.717,7.717,0,0,1,449.41,72.512Z" transform="translate(-18 -18)"></path><path class="d" d="M464.045,73a10.411,10.411,0,0,1-2.7,4.08,5.374,5.374,0,0,1-3.464,1.179,7.956,7.956,0,0,1-1.886-.2,11.162,11.162,0,0,1-1.777-.612l.616-1.578a6.546,6.546,0,0,0,1.415.526,7.718,7.718,0,0,0,1.741.163,4.014,4.014,0,0,0,1.342-.217,3.229,3.229,0,0,0,1.16-.742,6.834,6.834,0,0,0,1.052-1.358,15.894,15.894,0,0,0,1.016-2.028l-8.886-18.36h2.067l7.689,16.539L470.1,53.851h1.958Z" transform="translate(-18 -18)"></path><path class="d" d="M494.692,47.5a7.694,7.694,0,0,0-1.342-.109q-3.737,0-3.736,4.679v1.777h6.456v1.632h-6.456V72.349h-1.777V55.483h-2.684V53.851h2.684V52.038a6.758,6.758,0,0,1,1.451-4.643,5.151,5.151,0,0,1,4.062-1.632,9.06,9.06,0,0,1,1.487.109,7.477,7.477,0,0,1,1.269.326v1.668A11.226,11.226,0,0,0,494.692,47.5Z" transform="translate(-18 -18)"></path><path class="d" d="M516,66.8a9.616,9.616,0,0,1-5.023,5.2,9.208,9.208,0,0,1-3.808.78,9.074,9.074,0,0,1-3.79-.78,9.69,9.69,0,0,1-2.993-2.085,9.413,9.413,0,0,1-1.977-3.047,9.742,9.742,0,0,1-.707-3.7V63.1a9.708,9.708,0,0,1,2.7-6.782,9.6,9.6,0,0,1,3.028-2.123,9.228,9.228,0,0,1,3.809-.779,9.1,9.1,0,0,1,3.79.779,9.758,9.758,0,0,1,2.992,2.086A9.38,9.38,0,0,1,516,59.328a9.742,9.742,0,0,1,.708,3.7V63.1A9.739,9.739,0,0,1,516,66.8Zm-1.179-3.7a8.345,8.345,0,0,0-.583-3.123,7.8,7.8,0,0,0-1.622-2.545,7.519,7.519,0,0,0-2.441-1.7,7.408,7.408,0,0,0-3.006-.614,7.313,7.313,0,0,0-3.044.632,7.469,7.469,0,0,0-2.406,1.7,7.729,7.729,0,0,0-1.567,2.509,8.363,8.363,0,0,0-.564,3.069V63.1a8.33,8.33,0,0,0,.584,3.123,7.8,7.8,0,0,0,1.621,2.546,7.516,7.516,0,0,0,2.441,1.7,7.413,7.413,0,0,0,3.007.614,7.312,7.312,0,0,0,3.043-.632,7.458,7.458,0,0,0,2.405-1.7,7.719,7.719,0,0,0,1.568-2.51,8.359,8.359,0,0,0,.564-3.069Z" transform="translate(-18 -18)"></path><path class="d" d="M531.434,55.52a7.912,7.912,0,0,0-3.047.6,7.3,7.3,0,0,0-2.556,1.777,8.684,8.684,0,0,0-1.76,2.9,11.166,11.166,0,0,0-.652,3.971v7.581h-1.778v-18.5h1.778v5.26a10.416,10.416,0,0,1,1.378-2.286,9.115,9.115,0,0,1,1.886-1.8,8.017,8.017,0,0,1,2.3-1.125,8.257,8.257,0,0,1,2.63-.344V55.52Z" transform="translate(-18 -18)"></path><path class="d" d="M199.413,122.335a16.337,16.337,0,0,1-2.877,1.758,16.076,16.076,0,0,1-3.31,1.142,17.319,17.319,0,0,1-3.882.41,15.609,15.609,0,0,1-11.393-4.771,15.875,15.875,0,0,1-3.31-5.229,17.393,17.393,0,0,1-1.187-6.438v-.092a17,17,0,0,1,1.21-6.393A16.715,16.715,0,0,1,178,97.448a15.452,15.452,0,0,1,11.439-4.863,18.942,18.942,0,0,1,3.881.365A15.052,15.052,0,0,1,196.536,94a16.8,16.8,0,0,1,2.786,1.621,26.658,26.658,0,0,1,2.534,2.077l-1.689,1.736a25.639,25.639,0,0,0-2.192-1.873,13.832,13.832,0,0,0-2.443-1.484A14.406,14.406,0,0,0,192.7,95.1a14.22,14.22,0,0,0-3.311-.366,12.95,12.95,0,0,0-9.612,4.133,14.318,14.318,0,0,0-2.831,4.543,15.164,15.164,0,0,0-1.027,5.617v.091a15.029,15.029,0,0,0,1.05,5.64,14.573,14.573,0,0,0,2.854,4.566,13.208,13.208,0,0,0,4.27,3.06,12.768,12.768,0,0,0,5.342,1.118,13.326,13.326,0,0,0,6.028-1.279,19.323,19.323,0,0,0,4.977-3.7l1.6,1.552A30.075,30.075,0,0,1,199.413,122.335Z" transform="translate(-18 -18)"></path><path class="d" d="M207.427,95.736v-3.06h2.785v3.06ZM207.7,125.1V101.809h2.237V125.1Z" transform="translate(-18 -18)"></path><path class="d" d="M228.066,125.28h-1.918l-10.457-23.471h2.6l8.813,20.777,8.9-20.777h2.512Z" transform="translate(-18 -18)"></path><path class="d" d="M244,95.736v-3.06h2.785v3.06Zm.274,29.361V101.809h2.237V125.1Z" transform="translate(-18 -18)"></path><path class="d" d="M254.961,125.1V91.763H257.2V125.1Z" transform="translate(-18 -18)"></path><path class="d" d="M278.841,125.1V93.133h22.74v2.146H281.216v12.649h18.311v2.146H281.216v12.877H301.81V125.1Z" transform="translate(-18 -18)"></path><path class="d" d="M325.966,125.1V111.261a8.4,8.4,0,0,0-1.918-5.776,6.929,6.929,0,0,0-5.48-2.169,8.154,8.154,0,0,0-3.2.616,7.925,7.925,0,0,0-2.557,1.713,7.771,7.771,0,0,0-1.713,2.626,8.9,8.9,0,0,0-.616,3.356V125.1h-2.238V101.809h2.238v4.338a10.854,10.854,0,0,1,3.2-3.47,8.849,8.849,0,0,1,5.206-1.416,10.322,10.322,0,0,1,3.927.708,8.2,8.2,0,0,1,4.772,5.023,11.588,11.588,0,0,1,.616,3.858V125.1Z" transform="translate(-18 -18)"></path><path class="d" d="M356.352,126.193a9.44,9.44,0,0,1-2.38,3.448,10.426,10.426,0,0,1-3.638,2.123,13.874,13.874,0,0,1-4.576.731,17.4,17.4,0,0,1-10.706-3.608l1.325-1.826a15.063,15.063,0,0,0,9.429,3.288,11.408,11.408,0,0,0,3.685-.568,7.655,7.655,0,0,0,4.783-4.513,10.285,10.285,0,0,0,.687-3.915v-3.379a15.89,15.89,0,0,1-1.735,2.054,12.437,12.437,0,0,1-2.146,1.713,10.479,10.479,0,0,1-2.649,1.187,11.161,11.161,0,0,1-3.2.434,11.5,11.5,0,0,1-7.694-2.991,11.049,11.049,0,0,1-2.534-3.448,10.348,10.348,0,0,1-.959-4.52v-.091a10.66,10.66,0,0,1,.959-4.567,10.915,10.915,0,0,1,2.534-3.493,11.5,11.5,0,0,1,7.694-2.991,11.436,11.436,0,0,1,5.891,1.576,10.971,10.971,0,0,1,2.146,1.666,16.689,16.689,0,0,1,1.689,1.964v-4.658H357.2V121.49A12.266,12.266,0,0,1,356.352,126.193ZM355.1,112.266a8.042,8.042,0,0,0-.824-3.653,8.956,8.956,0,0,0-2.175-2.808,9.565,9.565,0,0,0-3.089-1.781,10.615,10.615,0,0,0-3.57-.617,9.848,9.848,0,0,0-3.479.617,8.685,8.685,0,0,0-2.884,1.758,8.166,8.166,0,0,0-1.946,2.763,9.074,9.074,0,0,0-.709,3.675v.092a8.766,8.766,0,0,0,.732,3.607,8.629,8.629,0,0,0,1.969,2.808,9.288,9.288,0,0,0,6.317,2.489,10.256,10.256,0,0,0,3.57-.639,9.923,9.923,0,0,0,3.089-1.8,9.028,9.028,0,0,0,2.175-2.786,7.9,7.9,0,0,0,.824-3.63Z" transform="translate(-18 -18)"></path><path class="d" d="M365.052,95.736v-3.06h2.786v3.06Zm.274,29.361V101.809h2.238V125.1Z" transform="translate(-18 -18)"></path><path class="d" d="M393.408,125.1V111.261a8.4,8.4,0,0,0-1.917-5.776,6.929,6.929,0,0,0-5.48-2.169,8.154,8.154,0,0,0-3.2.616,7.925,7.925,0,0,0-2.557,1.713,7.771,7.771,0,0,0-1.713,2.626,8.9,8.9,0,0,0-.616,3.356V125.1h-2.238V101.809h2.238v4.338a10.843,10.843,0,0,1,3.2-3.47,8.847,8.847,0,0,1,5.206-1.416,10.322,10.322,0,0,1,3.927.708,8.2,8.2,0,0,1,4.772,5.023,11.588,11.588,0,0,1,.616,3.858V125.1Z" transform="translate(-18 -18)"></path><path class="d" d="M404.736,118.229a10.007,10.007,0,0,0,2.059,2.862,8.474,8.474,0,0,0,2.817,1.8,9.075,9.075,0,0,0,3.318.613,9.479,9.479,0,0,0,4.647-1.05,13.7,13.7,0,0,0,3.366-2.6l1.552,1.37a16.238,16.238,0,0,1-4.047,3.173,11.434,11.434,0,0,1-5.606,1.256,11.249,11.249,0,0,1-4.372-.868,11.066,11.066,0,0,1-3.661-2.465,11.66,11.66,0,0,1-2.494-3.836,13.015,13.015,0,0,1-.916-4.977v-.092a13.137,13.137,0,0,1,.845-4.726,12.148,12.148,0,0,1,2.329-3.858,11.1,11.1,0,0,1,3.493-2.6,10.045,10.045,0,0,1,4.383-.959,10.167,10.167,0,0,1,4.43.936,9.973,9.973,0,0,1,3.356,2.58,11.778,11.778,0,0,1,2.147,3.859,14.873,14.873,0,0,1,.753,4.817v.5a2.805,2.805,0,0,1-.046.41H403.774A10.124,10.124,0,0,0,404.736,118.229Zm16.025-5.872a13.36,13.36,0,0,0-.71-3.4,9.463,9.463,0,0,0-1.6-2.876,7.684,7.684,0,0,0-2.541-2.01,8.344,8.344,0,0,0-6.776-.068A8.132,8.132,0,0,0,406.5,105.9a10.28,10.28,0,0,0-1.855,2.877,10.764,10.764,0,0,0-.869,3.584Z" transform="translate(-18 -18)"></path><path class="d" d="M430.719,118.229a10.007,10.007,0,0,0,2.059,2.862,8.48,8.48,0,0,0,2.816,1.8,9.085,9.085,0,0,0,3.319.613,9.479,9.479,0,0,0,4.647-1.05,13.7,13.7,0,0,0,3.366-2.6l1.552,1.37a16.238,16.238,0,0,1-4.047,3.173,11.435,11.435,0,0,1-5.607,1.256,11.248,11.248,0,0,1-4.371-.868,11.055,11.055,0,0,1-3.661-2.465,11.644,11.644,0,0,1-2.494-3.836,13.015,13.015,0,0,1-.916-4.977v-.092a13.137,13.137,0,0,1,.845-4.726,12.148,12.148,0,0,1,2.329-3.858,11.1,11.1,0,0,1,3.493-2.6,10.045,10.045,0,0,1,4.383-.959,10.173,10.173,0,0,1,4.43.936,9.973,9.973,0,0,1,3.356,2.58,11.778,11.778,0,0,1,2.147,3.859,14.9,14.9,0,0,1,.753,4.817v.5a2.805,2.805,0,0,1-.046.41H429.757A10.124,10.124,0,0,0,430.719,118.229Zm16.024-5.872a13.275,13.275,0,0,0-.71-3.4,9.461,9.461,0,0,0-1.6-2.876,7.678,7.678,0,0,0-2.542-2.01,8.342,8.342,0,0,0-6.775-.068,8.132,8.132,0,0,0-2.633,1.895,10.28,10.28,0,0,0-1.855,2.877,10.74,10.74,0,0,0-.869,3.584Z" transform="translate(-18 -18)"></path><path class="d" d="M467.292,103.91a9.963,9.963,0,0,0-3.836.753,9.167,9.167,0,0,0-3.219,2.238,10.909,10.909,0,0,0-2.215,3.652,14.066,14.066,0,0,0-.822,5V125.1h-2.237V101.809H457.2v6.621a13.23,13.23,0,0,1,1.735-2.877,11.554,11.554,0,0,1,2.375-2.26,10.07,10.07,0,0,1,2.9-1.415,10.358,10.358,0,0,1,3.31-.434v2.466Z" transform="translate(-18 -18)"></path><path class="d" d="M472.589,95.736v-3.06h2.785v3.06Zm.274,29.361V101.809H475.1V125.1Z" transform="translate(-18 -18)"></path><path class="d" d="M500.945,125.1V111.261a8.4,8.4,0,0,0-1.918-5.776,6.925,6.925,0,0,0-5.479-2.169,8.156,8.156,0,0,0-3.2.616,7.932,7.932,0,0,0-2.556,1.713,7.756,7.756,0,0,0-1.713,2.626,8.9,8.9,0,0,0-.616,3.356V125.1h-2.238V101.809h2.238v4.338a10.843,10.843,0,0,1,3.2-3.47,8.844,8.844,0,0,1,5.205-1.416,10.323,10.323,0,0,1,3.928.708,8.2,8.2,0,0,1,4.771,5.023,11.588,11.588,0,0,1,.616,3.858V125.1Z" transform="translate(-18 -18)"></path><path class="d" d="M531.332,126.193a9.462,9.462,0,0,1-2.379,3.448,10.426,10.426,0,0,1-3.64,2.123,13.863,13.863,0,0,1-4.575.731,17.4,17.4,0,0,1-10.706-3.608l1.324-1.826a15.068,15.068,0,0,0,9.43,3.288,11.413,11.413,0,0,0,3.685-.568,7.66,7.66,0,0,0,4.784-4.513,10.286,10.286,0,0,0,.686-3.915v-3.379a15.89,15.89,0,0,1-1.735,2.054,12.437,12.437,0,0,1-2.146,1.713,10.488,10.488,0,0,1-2.648,1.187,11.171,11.171,0,0,1-3.2.434,11.5,11.5,0,0,1-7.7-2.991,11.067,11.067,0,0,1-2.535-3.448,10.362,10.362,0,0,1-.958-4.52v-.091a10.675,10.675,0,0,1,.958-4.567,10.933,10.933,0,0,1,2.535-3.493,11.5,11.5,0,0,1,7.7-2.991,11.429,11.429,0,0,1,5.889,1.576,10.947,10.947,0,0,1,2.147,1.666,16.689,16.689,0,0,1,1.689,1.964v-4.658h2.237V121.49A12.267,12.267,0,0,1,531.332,126.193Zm-1.253-13.927a8.055,8.055,0,0,0-.824-3.653,8.985,8.985,0,0,0-2.175-2.808,9.591,9.591,0,0,0-3.09-1.781,10.615,10.615,0,0,0-3.57-.617,9.848,9.848,0,0,0-3.479.617,8.7,8.7,0,0,0-2.884,1.758,8.18,8.18,0,0,0-1.946,2.763,9.074,9.074,0,0,0-.709,3.675v.092a8.751,8.751,0,0,0,.733,3.607,8.624,8.624,0,0,0,1.967,2.808,9.293,9.293,0,0,0,6.318,2.489,10.256,10.256,0,0,0,3.57-.639,9.951,9.951,0,0,0,3.09-1.8,9.058,9.058,0,0,0,2.175-2.786,7.908,7.908,0,0,0,.824-3.63Z" transform="translate(-18 -18)"></path></svg>