<!DOCTYPE svg PUBLIC "-//W3C//DTD SVG 1.1//EN" "http://www.w3.org/Graphics/SVG/1.1/DTD/svg11.dtd">
<!-- Uploaded to: SVG Repo, www.svgrepo.com, Transformed by: SVG Repo Mixer Tools -->
<svg fill="#0d6e3f" height="800px" width="800px" version="1.1" id="Capa_1" xmlns="http://www.w3.org/2000/svg" xmlns:xlink="http://www.w3.org/1999/xlink" viewBox="-48.99 -48.99 587.86 587.86" xml:space="preserve">
<g id="SVGRepo_bgCarrier" stroke-width="0">
<rect x="-48.99" y="-48.99" width="587.86" height="587.86" rx="0" fill="#7ed0ec" strokewidth="0"/>
</g>
<g id="SVGRepo_tracerCarrier" stroke-linecap="round" stroke-linejoin="round"/>
<g id="SVGRepo_iconCarrier"> <g> <g> <path d="M244.992,135.283c-2.5,0-4.6,2.1-4.6,4.6l0,0l0,0c0,2.2,1.6,4.1,3.7,4.5c0.3,0.1,0.6,0.1,0.9,0.1c0.3,0,0.6,0,0.9-0.1 c2.1-0.4,3.7-2.3,3.7-4.5l0,0l0,0C249.592,137.383,247.492,135.283,244.992,135.283z"/> <circle cx="244.992" cy="153.283" r="4.6"/> <circle cx="244.992" cy="166.683" r="4.6"/> <path d="M244.992,95.083c-2.5,0-4.6,2.1-4.6,4.6s2.1,4.6,4.6,4.6s4.6-2.1,4.6-4.6C249.592,97.183,247.492,95.083,244.992,95.083z"/> <circle cx="244.992" cy="113.083" r="4.6"/> <circle cx="244.992" cy="126.483" r="4.6"/> <circle cx="244.992" cy="374.883" r="4.6"/> <circle cx="244.992" cy="388.283" r="4.6"/> <path d="M244.992,325.783c2.5,0,4.6-2.1,4.6-4.6s-2.1-4.6-4.6-4.6s-4.6,2.1-4.6,4.6 C240.392,323.783,242.392,325.783,244.992,325.783z"/> <circle cx="244.992" cy="334.683" r="4.6"/> <circle cx="244.992" cy="348.083" r="4.6"/> <path d="M244.092,365.983c0.3,0.1,0.6,0.1,0.9,0.1s0.6,0,0.9-0.1c2.1-0.4,3.7-2.3,3.7-4.5l0,0l0,0c0-2.5-2.1-4.6-4.6-4.6 s-4.6,2.1-4.6,4.6l0,0l0,0C240.392,363.683,241.992,365.483,244.092,365.983z"/> <circle cx="359.292" cy="307.483" r="4.6"/> <circle cx="371.292" cy="313.583" r="4.6"/> <path d="M313.592,279.083c-2.3-1.1-5-0.2-6.2,2c-1.1,2.3-0.3,5,2,6.2s5,0.3,6.2-2 C316.792,282.983,315.892,280.283,313.592,279.083z"/> <circle cx="323.492" cy="289.283" r="4.6"/> <circle cx="335.392" cy="295.383" r="4.6"/> <path d="M349.492,297.283L349.492,297.283L349.492,297.283c-2.3-1.2-5-0.3-6.2,2s-0.3,5,2,6.2l0,0l0,0c2,1,4.3,0.4,5.7-1.2 c0.2-0.2,0.4-0.5,0.5-0.8s0.3-0.6,0.3-0.9C352.392,300.583,351.392,298.383,349.492,297.283z"/> <path d="M140.492,297.283L140.492,297.283L140.492,297.283c-2.3,1.2-3.2,3.9-2,6.2c0.1,0.3,0.3,0.5,0.5,0.8 c1.3,1.7,3.7,2.2,5.7,1.2l0,0l0,0c2.3-1.1,3.2-3.9,2-6.2C145.492,297.083,142.692,296.183,140.492,297.283z"/> <circle cx="130.592" cy="307.483" r="4.6"/> <circle cx="118.692" cy="313.583" r="4.6"/> <path d="M176.292,279.083c-2.3,1.2-3.2,3.9-2,6.2c1.1,2.3,3.9,3.2,6.2,2c2.3-1.1,3.2-3.9,2-6.2S178.592,277.983,176.292,279.083z"/> <circle cx="166.492" cy="289.283" r="4.6"/> <circle cx="154.492" cy="295.383" r="4.6"/> <path d="M144.692,182.483L144.692,182.483L144.692,182.483c-2-1-4.3-0.4-5.7,1.2c-0.2,0.2-0.4,0.5-0.5,0.8s-0.3,0.6-0.3,0.9 c-0.6,2.1,0.4,4.3,2.3,5.3l0,0l0,0c2.3,1.1,5,0.2,6.2-2S146.892,183.683,144.692,182.483z"/> <circle cx="130.692" cy="180.483" r="4.6"/> <circle cx="118.692" cy="174.483" r="4.6"/> <path d="M180.492,200.783c-2.3-1.2-5-0.3-6.2,2c-1.1,2.3-0.3,5,2,6.2c2.3,1.1,5,0.2,6.2-2 C183.692,204.683,182.792,201.883,180.492,200.783z"/> <circle cx="166.492" cy="198.783" r="4.6"/> <circle cx="154.492" cy="192.683" r="4.6"/> <circle cx="359.292" cy="180.483" r="4.6"/> <circle cx="371.292" cy="174.483" r="4.6"/> <path d="M309.492,200.783c-2.3,1.1-3.2,3.9-2,6.2c1.1,2.3,3.9,3.2,6.2,2c2.3-1.2,3.2-3.9,2-6.2 C314.492,200.483,311.792,199.583,309.492,200.783z"/> <circle cx="323.492" cy="198.783" r="4.6"/> <circle cx="335.492" cy="192.683" r="4.6"/> <path d="M350.992,183.783c-1.3-1.7-3.7-2.2-5.7-1.2l0,0l0,0c-2.3,1.1-3.2,3.9-2,6.2c1.1,2.3,3.9,3.2,6.2,2l0,0l0,0 c2.3-1.1,3.2-3.9,2-6.2C351.392,184.283,351.192,183.983,350.992,183.783z"/> <path d="M281.492,69.683c-0.6-0.8-1.4-1.5-2.2-2.1c-9.4-7.3-18.8-12-20.9-13c-0.2-0.1-0.4-0.4-0.4-0.6c0-0.9,0-3.2,0-5.8 c2-2.7,3.2-5.7,3.6-8.4c0.9-0.1,2.2-1.4,3.5-6.1c1.8-6.4-0.1-7.3-1.7-7.2c0.3-0.9,0.5-1.8,0.7-2.6c2.8-16.6-5.4-17.1-5.4-17.1 s-1.4-2.6-4.9-4.6c-2.4-1.4-5.7-2.5-10.1-2.1c-1.4,0.1-2.8,0.3-4,0.8l0,0c-1.6,0.5-3.1,1.3-4.4,2.3c-1.6,1-3.2,2.3-4.6,3.8 c-2.2,2.2-4.1,5.1-4.9,8.6c-0.7,2.7-0.5,5.4,0,8.4l0,0c0.2,0.9,0.4,1.7,0.7,2.6c-1.6-0.2-3.6,0.8-1.7,7.2c1.3,4.7,2.6,6,3.5,6.1 c0.4,2.7,1.7,5.8,3.6,8.5v5.5c0,0.3-0.1,0.5-0.4,0.6c-2,1-11.5,5.8-20.9,13c-0.8,0.6-1.5,1.3-2.2,2.1c9.9,8.3,22.6,13.3,36.5,13.3 C258.792,82.883,271.592,77.983,281.492,69.683z"/> <path d="M279.292,474.383c-9.4-7.3-18.8-12-20.9-13c-0.2-0.1-0.4-0.4-0.4-0.6c0-0.9,0-3.2,0-5.8c2-2.7,3.2-5.7,3.6-8.4 c0.9-0.1,2.2-1.4,3.5-6.1c1.8-6.4-0.1-7.3-1.7-7.2c0.3-0.9,0.5-1.8,0.7-2.6c2.8-16.6-5.4-17.1-5.4-17.1s-1.4-2.6-4.9-4.6 c-2.4-1.4-5.7-2.5-10.1-2.1c-1.4,0.1-2.8,0.3-4,0.8l0,0c-1.6,0.5-3.1,1.3-4.4,2.3c-1.6,1-3.2,2.3-4.6,3.8 c-2.2,2.2-4.1,5.1-4.9,8.6c-0.7,2.7-0.5,5.4,0,8.4l0,0c0.2,0.9,0.4,1.7,0.7,2.6c-1.6-0.2-3.6,0.8-1.7,7.2c1.3,4.7,2.6,6,3.5,6.1 c0.4,2.7,1.7,5.8,3.6,8.5v5.7c0,0.3-0.1,0.5-0.4,0.6c-2,1-11.5,5.8-20.9,13c-0.8,0.6-1.5,1.3-2.2,2.1c9.9,8.3,22.6,13.3,36.5,13.3 c13.9,0,26.6-5,36.5-13.3C280.892,475.683,280.092,474.983,279.292,474.383z"/> <path d="M459.692,338.283c-9.4-7.3-18.8-12-20.9-13c-0.2-0.1-0.4-0.4-0.4-0.6c0-0.9,0-3.2,0-5.8c2-2.7,3.2-5.7,3.6-8.4 c0.9-0.1,2.2-1.4,3.5-6.1c1.8-6.4-0.1-7.3-1.7-7.2c0.3-0.9,0.5-1.8,0.7-2.6c2.8-16.6-5.4-17.1-5.4-17.1s-1.4-2.6-4.9-4.6 c-2.4-1.4-5.7-2.5-10.1-2.1c-1.4,0.1-2.8,0.3-4,0.8l0,0c-1.6,0.5-3.1,1.3-4.4,2.3c-1.6,1-3.2,2.3-4.6,3.8 c-2.2,2.2-4.1,5.1-4.9,8.6c-0.7,2.7-0.5,5.4,0,8.4l0,0c0.2,0.9,0.4,1.7,0.7,2.6c-1.6-0.2-3.6,0.8-1.7,7.2c1.3,4.7,2.6,6,3.5,6.1 c0.4,2.7,1.7,5.8,3.6,8.5v5.7c0,0.3-0.1,0.5-0.4,0.6c-2,1-11.5,5.8-20.9,13c-0.8,0.6-1.5,1.3-2.2,2.1c9.9,8.3,22.6,13.3,36.5,13.3 s26.6-5,36.5-13.3C461.192,339.583,460.492,338.883,459.692,338.283z"/> <path d="M461.792,182.883c-0.6-0.8-1.4-1.5-2.2-2.1c-9.4-7.3-18.8-12-20.9-13c-0.2-0.1-0.4-0.4-0.4-0.6c0-0.9,0-3.2,0-5.8 c2-2.7,3.2-5.7,3.6-8.4c0.9-0.1,2.2-1.4,3.5-6.1c1.8-6.4-0.1-7.3-1.7-7.2c0.3-0.9,0.5-1.8,0.7-2.6c2.8-16.6-5.4-17.1-5.4-17.1 s-1.4-2.6-4.9-4.6c-2.4-1.4-5.7-2.5-10.1-2.1c-1.4,0.1-2.8,0.3-4,0.8l0,0c-1.6,0.5-3.1,1.3-4.4,2.3c-1.6,1-3.2,2.3-4.6,3.8 c-2.2,2.2-4.1,5.1-4.9,8.6c-0.7,2.7-0.5,5.4,0,8.4l0,0c0.2,0.9,0.4,1.7,0.7,2.6c-1.6-0.2-3.6,0.8-1.7,7.2c1.3,4.7,2.6,6,3.5,6.1 c0.4,2.7,1.7,5.8,3.6,8.5v5.7c0,0.3-0.1,0.5-0.4,0.6c-2,1-11.5,5.8-20.9,13c-0.8,0.6-1.5,1.3-2.2,2.1c9.9,8.3,22.6,13.3,36.5,13.3 C439.192,196.183,451.992,191.183,461.792,182.883z"/> <path d="M98.992,338.283c-9.4-7.3-18.8-12-20.9-13c-0.2-0.1-0.4-0.4-0.4-0.6c0-0.9,0-3.2,0-5.8c2-2.7,3.2-5.7,3.6-8.4 c0.9-0.1,2.2-1.4,3.5-6.1c1.8-6.4-0.1-7.3-1.7-7.2c0.3-0.9,0.5-1.8,0.7-2.6c2.8-16.6-5.4-17.1-5.4-17.1s-1.4-2.6-4.9-4.6 c-2.4-1.4-5.7-2.5-10.1-2.1c-1.4,0.1-2.8,0.3-4,0.8l0,0c-1.6,0.5-3.1,1.3-4.4,2.3c-1.6,1-3.2,2.3-4.6,3.8 c-2.2,2.2-4.1,5.1-4.9,8.6c-0.7,2.7-0.5,5.4,0,8.4l0,0c0.2,0.9,0.4,1.7,0.7,2.6c-1.6-0.2-3.6,0.8-1.7,7.2c1.3,4.7,2.6,6,3.5,6.1 c0.4,2.7,1.7,5.8,3.6,8.5v5.7c0,0.3-0.1,0.5-0.4,0.6c-2,1-11.5,5.8-20.9,13c-0.8,0.6-1.5,1.3-2.2,2.1c9.9,8.3,22.6,13.3,36.5,13.3 s26.6-5,36.5-13.3C100.492,339.583,99.792,338.883,98.992,338.283z"/> <path d="M98.992,180.783c-9.4-7.3-18.8-12-20.9-13c-0.2-0.1-0.4-0.4-0.4-0.6c0-0.9,0-3.2,0-5.8c2-2.7,3.2-5.7,3.6-8.4 c0.9-0.1,2.2-1.4,3.5-6.1c1.8-6.4-0.1-7.3-1.7-7.2c0.3-0.9,0.5-1.8,0.7-2.6c2.8-16.6-5.4-17.1-5.4-17.1s-1.4-2.6-4.9-4.6 c-2.4-1.4-5.7-2.5-10.1-2.1c-1.4,0.1-2.8,0.3-4,0.8l0,0c-1.6,0.5-3.1,1.3-4.4,2.3c-1.6,1-3.2,2.3-4.6,3.8 c-2.2,2.2-4.1,5.1-4.9,8.6c-0.7,2.7-0.5,5.4,0,8.4l0,0c0.2,0.9,0.4,1.7,0.7,2.6c-1.6-0.2-3.6,0.8-1.7,7.2c1.3,4.7,2.6,6,3.5,6.1 c0.4,2.7,1.7,5.8,3.6,8.5v5.7c0,0.3-0.1,0.5-0.4,0.6c-2,1-11.5,5.8-20.9,13c-0.8,0.6-1.5,1.3-2.2,2.1c9.9,8.3,22.6,13.3,36.5,13.3 s26.6-5,36.5-13.3C100.492,182.083,99.792,181.383,98.992,180.783z"/> <path d="M257.792,260.183L257.792,260.183v-4.6c0,0,14.7,0.5,21.6-6.7c0,0-10.1-2.9-8.3-21.3c1.8-18.5-2.3-34.7-17.1-33.3 c0,0-6.4-7.7-19.2-2.9c-4.4,1.7-16.2,5.9-15.6,31.5c0.6,25.6-9.1,25.7-9.1,25.7s5,7.3,21.9,7.1v4.8l12.9,37.6l12.9-37.5V260.183z"/> <path d="M289.792,284.283c-0.8-4.6-3.8-8.6-8.1-10.7l-16.2-8c-0.9-0.5-1.8-1-2.8-1.5l5.1,15.1l-7.1-0.6l-15.7,19.5l-15.8-19.4 l-7.1,0.6l5.2-15.1l-3.2,1.7l-15.8,7.8c-4.2,2.1-7.2,6.1-8.1,10.7l-2.6,14.3c-0.2,1.1,0.6,2,1.7,2h45.1h1.2h45.1 c1.1,0,1.9-1,1.7-2L289.792,284.283z"/> </g> </g> </g>
</svg>