<?xml version="1.0" encoding="utf-8"?>
<!-- Uploaded to: SVG Repo, www.svgrepo.com, Generator: SVG Repo Mixer Tools -->
<svg width="800px" height="800px" viewBox="0 -82.5 374.623 374.623" xmlns="http://www.w3.org/2000/svg">
  <g id="Group_23" data-name="Group 23" transform="translate(-3664.688 -53.065)">
    <g id="Group_19" data-name="Group 19">
      <g id="Group_17" data-name="Group 17">
        <rect id="Rectangle_5" data-name="Rectangle 5" width="44.454" height="107.721" transform="translate(3782.862 130.504)" fill="#cd91bf"/>
        <path id="Path_85" data-name="Path 85" d="M3818.055,96.9l44.454-42.336V238.225h-44.454Z" fill="#cd91bf" fill-rule="evenodd"/>
        <path id="Path_86" data-name="Path 86" d="M3854.636,134.977l13.742-16.991,13.76-17.118,13.76,17.118,13.742,16.991V238.225h-55Z" fill="#cd91bf" fill-rule="evenodd"/>
        <path id="Path_87" data-name="Path 87" d="M3899.676,184.677h29.636V173.1h24.42v65.125h-54.056Z" fill="#cd91bf" fill-rule="evenodd"/>
        <path id="Path_88" data-name="Path 88" d="M3941.229,146.244h8.335V135.13h32.076v11.114h8.335v91.981h-48.746Z" fill="#cd91bf" fill-rule="evenodd"/>
        <path id="Path_89" data-name="Path 89" d="M3737.482,171.249h58.009v9.262h-5.556v57.714h-52.452V180.511h-5.557v-9.262Z" fill="#cd91bf" fill-rule="evenodd"/>
        <path id="Path_90" data-name="Path 90" d="M3706.458,114.885h6.818V104.571h6.482V97.625h5.8V58.962h6.251V97.625h5.8v6.946h6.483v10.314h6.818v123.34h-44.454Z" fill="#cd91bf" fill-rule="evenodd"/>
      </g>
      <g id="Group_18" data-name="Group 18">
        <rect id="Rectangle_6" data-name="Rectangle 6" width="9.261" height="107.721" transform="translate(3818.055 130.504)" fill="#9f3a8d"/>
        <path id="Path_91" data-name="Path 91" d="M3862.509,125.243V238.225h-7.872V134.977Z" fill="#9f3a8d" fill-rule="evenodd"/>
        <rect id="Rectangle_7" data-name="Rectangle 7" width="9.964" height="53.548" transform="translate(3899.676 184.677)" fill="#9f3a8d"/>
        <path id="Path_92" data-name="Path 92" d="M3941.229,173.1h12.5v65.125h-12.5Z" fill="#9f3a8d" fill-rule="evenodd"/>
        <path id="Path_93" data-name="Path 93" d="M3737.482,171.249h13.429v66.976h-13.429V180.511h-5.557v-9.262Z" fill="#9f3a8d" fill-rule="evenodd"/>
        <path id="Path_94" data-name="Path 94" d="M3782.862,171.249h12.629v9.262h-5.556v57.714h-7.073Z" fill="#9f3a8d" fill-rule="evenodd"/>
      </g>
    </g>
    <path id="Path_95" data-name="Path 95" d="M4035.8,251.311c-15.617-15.9-35.479-23.4-61.815-18.1-27.188-20.606-68.838-23.079-96.751-8.376-37.049-22.5-78.3-29.76-128.532-4.388-30.152-1.946-55.316,9.069-76.33,30.864Z" fill="#91ca9d" fill-rule="evenodd"/>
    <path id="Path_96" data-name="Path 96" d="M4022.972,224.7v26.61h-5.467V224.7h-14.841l17.574-61.24,17.575,61.24Z" fill="#29a555" fill-rule="evenodd"/>
    <path id="Path_97" data-name="Path 97" d="M3724.748,172.879l8.526,20.423,8.525,20.423h-14.318v22.826h-5.467V213.725H3707.7l8.525-20.423Z" fill="#29a555" fill-rule="evenodd"/>
    <path id="Path_98" data-name="Path 98" d="M3978.726,223.634V241.76h-5.466V223.575c-9.5-1.11-11.908-7.752-10.244-17.423a66.04,66.04,0,0,1,6.512-18.925c2.34-4.288,4.9-7.21,7.066-7.1,6.143.307,11.611,20.978,12.429,26.449C3990.484,216.326,3988.539,222.748,3978.726,223.634Z" fill="#29a555" fill-rule="evenodd"/>
    <rect id="Rectangle_8" data-name="Rectangle 8" width="363.411" height="9.884" transform="translate(3672.273 251.297)" fill="#29a555"/>
    <path id="Path_99" data-name="Path 99" d="M3681.574,219.625c-13.59-1.377-17.052-10.669-14.712-24.272a91.854,91.854,0,0,1,9.052-26.308c3.253-5.961,6.81-10.023,9.824-9.873,8.539.427,16.14,29.163,17.278,36.768,2.054,13.711-.735,22.688-14.785,23.756v31.615h-6.657Z" fill="#29a555" fill-rule="evenodd"/>
    <path id="Path_100" data-name="Path 100" d="M3760.862,232.274h3.514V223.76h51.136v8.514h3.514v19.037h-6.314v-9.685h-45.536v9.685h-6.314Z" fill="#29a555" fill-rule="evenodd"/>
    <path id="Path_101" data-name="Path 101" d="M3846.831,251.311l2.288-22.989h-16.054l2.288,22.989Z" fill="#29a555" fill-rule="evenodd"/>
    <path id="Path_102" data-name="Path 102" d="M3965.914,251.311a49.12,49.12,0,0,0-4.928-7.234c-11.279-13.523-32.671-26.035-58.689-27.375a84.634,84.634,0,0,0-20.111,5.766c.356-.067,3.293-.214,3.634-.23q1.056-.051,2.1-.073c24.894-.554,44.409,10.07,55.015,22.692a37.238,37.238,0,0,1,4.379,6.454Z" fill="#29a555" fill-rule="evenodd"/>
    <path id="Path_103" data-name="Path 103" d="M3871.171,244.765h4.542l1.211-14.18h1.31V184.6h-3.765v-6.618h1.74a9.927,9.927,0,0,1,.513-17.581h-2.253v-6.618h4.1v-4.722h5.6v4.722h4.1v6.618h-2.253a9.926,9.926,0,0,1,.513,17.581h1.74V184.6H3884.5v45.98h1.31l1.212,14.18h4.541v6.546h-20.391Z" fill="#29a555" fill-rule="evenodd"/>
    <g id="Group_22" data-name="Group 22">
      <path id="Path_104" data-name="Path 104" d="M3789.385,129h44.454a1.5,1.5,0,0,1,1.5,1.5v76.432a1.5,1.5,0,0,1-1.5,1.5,1.466,1.466,0,0,1-.405-.056,110.948,110.948,0,0,0-21.241-2.441,114.74,114.74,0,0,0-22.544,1.868,1.493,1.493,0,0,1-1.734-1.207,1.462,1.462,0,0,1-.024-.264h-.006V130.5a1.5,1.5,0,0,1,1.5-1.5Zm42.954,3h-41.454V204.56a117.3,117.3,0,0,1,21.354-1.609,113.731,113.731,0,0,1,20.1,2.149Z" fill="#1a1818" fill-rule="evenodd"/>
      <path id="Path_105" data-name="Path 105" d="M3823.619,95.743,3868,53.477a1.5,1.5,0,0,1,2.528,1.084h0V220.153a1.5,1.5,0,0,1-2.317,1.258A141.572,141.572,0,0,0,3846.9,212.1a116.589,116.589,0,0,0-22.5-5.263,1.494,1.494,0,0,1-1.307-1.482h-.006V96.9a1.5,1.5,0,0,1,.541-1.154Zm43.913-37.687-41.454,39.479v106.51a120.038,120.038,0,0,1,21.779,5.215,142.757,142.757,0,0,1,19.675,8.416Z" fill="#1a1818" fill-rule="evenodd"/>
      <path id="Path_106" data-name="Path 106" d="M3860.064,133.952l13.672-16.9L3887.5,99.93a1.5,1.5,0,0,1,2.352.026l13.74,17.093,13.742,16.99a1.485,1.485,0,0,1,.329.938h.005v80.507a1.5,1.5,0,0,1-1.5,1.5c-.035,0-.07,0-.1,0a95.714,95.714,0,0,0-16.089,1.647,83.144,83.144,0,0,0-14.928,4.277A1.5,1.5,0,0,1,3883,221.51h0V184.6a1.5,1.5,0,0,1,1.5-1.5h2.265v-3.617h-.241a1.5,1.5,0,0,1-.686-2.834,8.679,8.679,0,0,0,3.115-3.1,8.383,8.383,0,0,0-.132-8.657,8.684,8.684,0,0,0-3.478-3.158,1.494,1.494,0,0,1,.668-2.83V158.9h.754v-3.617h-2.6a1.5,1.5,0,0,1-1.5-1.5v-3.222h-2.6v3.222a1.5,1.5,0,0,1-1.5,1.5h-2.6V158.9h.753a1.5,1.5,0,0,1,.555,2.9,8.693,8.693,0,0,0-3.365,3.1,8.38,8.38,0,0,0-.131,8.657,8.67,8.67,0,0,0,3.172,3.129,1.5,1.5,0,0,1-.744,2.8v0h-.24V183.1h2.265a1.5,1.5,0,0,1,1.5,1.5v39.713a1.5,1.5,0,0,1-.945,1.393l-.367.188h0l-.5.261a1.492,1.492,0,0,1-1.511-.075q-3.831-2.325-7.855-4.491-3.98-2.138-8.02-4.02a1.5,1.5,0,0,1-.87-1.36h0V134.977a1.5,1.5,0,0,1,.4-1.025Zm16-15.028L3862.66,135.5v79.762q3.688,1.743,7.312,3.693,3.357,1.8,6.76,3.837V186.1h-2.265a1.5,1.5,0,0,1-1.5-1.5v-6.617a1.521,1.521,0,0,1,.094-.525,11.572,11.572,0,0,1-1.86-2.393,11.323,11.323,0,0,1,.166-11.751,11.581,11.581,0,0,1,1.782-2.2,1.494,1.494,0,0,1-.182-.717v-6.617a1.5,1.5,0,0,1,1.5-1.5h2.6v-3.222a1.5,1.5,0,0,1,1.5-1.5h5.6a1.5,1.5,0,0,1,1.5,1.5v3.222h2.6a1.5,1.5,0,0,1,1.5,1.5V160.4a1.494,1.494,0,0,1-.182.717,11.581,11.581,0,0,1,1.782,2.2,11.323,11.323,0,0,1,.166,11.751,11.632,11.632,0,0,1-1.86,2.393,1.521,1.521,0,0,1,.094.525V184.6a1.5,1.5,0,0,1-1.5,1.5H3886v33.238a87.317,87.317,0,0,1,13.422-3.657,98.368,98.368,0,0,1,15.244-1.66V135.5l-13.408-16.577-12.594-15.668Z" fill="#1a1818" fill-rule="evenodd"/>
      <path id="Path_107" data-name="Path 107" d="M3906.2,183.176h28.135V173.1a1.5,1.5,0,0,1,1.5-1.5h24.419a1.5,1.5,0,0,1,1.5,1.5v51.763a1.5,1.5,0,0,1-2.237,1.306,93.711,93.711,0,0,0-25.613-7.922,99.988,99.988,0,0,0-27.53-.6,1.5,1.5,0,0,1-1.664-1.312c-.006-.059-.009-.118-.01-.176h0v-31.48a1.5,1.5,0,0,1,1.5-1.5Zm29.636,3H3907.7v28.308a103.207,103.207,0,0,1,26.674.809,97.411,97.411,0,0,1,24.381,7.22V174.6h-21.419v10.077A1.5,1.5,0,0,1,3935.836,186.177Z" fill="#1a1818" fill-rule="evenodd"/>
      <path id="Path_108" data-name="Path 108" d="M3947.753,144.744h6.835V135.13a1.5,1.5,0,0,1,1.5-1.5h32.076a1.5,1.5,0,0,1,1.5,1.5v9.614h6.835a1.5,1.5,0,0,1,1.5,1.5v85.584a1.5,1.5,0,0,1-1.5,1.5,1.474,1.474,0,0,1-.267-.024,67.279,67.279,0,0,0-8.3-.25,78.214,78.214,0,0,0-8.988.813,1.5,1.5,0,0,1-1.7-1.266,1.452,1.452,0,0,1-.016-.217h0v-8.75a1.5,1.5,0,0,1,1.49-1.5c4.257-.409,6.781-1.949,8.057-4.4,1.366-2.62,1.454-6.368.768-10.946a83.235,83.235,0,0,0-5.735-18.658c-1.717-3.657-3.588-6.429-5.282-6.514a3.472,3.472,0,0,0-2.189,1.312,22.667,22.667,0,0,0-3.494,5.011,59.122,59.122,0,0,0-3.841,8.9,62.786,62.786,0,0,0-2.507,9.565c-.777,4.52-.63,8.282.785,10.973,1.347,2.56,3.952,4.219,8.152,4.71a1.5,1.5,0,0,1,1.328,1.488h0v9.1a1.5,1.5,0,0,1-2.484,1.133,79.07,79.07,0,0,0-11.646-7.086,89.243,89.243,0,0,0-13.32-5.328,1.5,1.5,0,0,1-1.053-1.43h0V146.244a1.5,1.5,0,0,1,1.5-1.5Zm8.335,3h-6.835v71.119a92.076,92.076,0,0,1,12.711,5.17,82.847,82.847,0,0,1,9.794,5.737v-4.9c-4.532-.816-7.471-2.94-9.131-6.1-1.748-3.326-1.975-7.721-1.089-12.871a65.7,65.7,0,0,1,2.624-10.034,62.162,62.162,0,0,1,4.051-9.354,25.661,25.661,0,0,1,4-5.691c1.449-1.457,2.956-2.265,4.45-2.19,3.034.151,5.693,3.648,7.849,8.237a86.948,86.948,0,0,1,5.993,19.489c.775,5.173.62,9.515-1.073,12.763-1.62,3.107-4.533,5.136-9.206,5.839v5.708q3.882-.489,7.622-.6a71.035,71.035,0,0,1,7.152.138V147.744h-6.835a1.5,1.5,0,0,1-1.5-1.5V136.63h-29.076v9.614A1.5,1.5,0,0,1,3956.088,147.744Z" fill="#1a1818" fill-rule="evenodd"/>
      <path id="Path_109" data-name="Path 109" d="M3744,169.749h58.009a1.5,1.5,0,0,1,1.5,1.5v9.262a1.5,1.5,0,0,1-1.5,1.5h-4.056v23.258a1.5,1.5,0,0,1-1.389,1.5,127.132,127.132,0,0,0-22.854,5.008,161.539,161.539,0,0,0-24.344,10.009,1.5,1.5,0,0,1-.768.157h0q-1.248-.081-2.321-.125-1.2-.049-2.306-.072a1.5,1.5,0,0,1-1.465-1.5h-.006V182.011h-4.057a1.5,1.5,0,0,1-1.5-1.5v-9.262a1.5,1.5,0,0,1,1.5-1.5Zm52.453,3h-56.51v6.262H3744a1.5,1.5,0,0,1,1.5,1.5v38.283q.453.015.894.033,1.046.044,1.988.1a164.352,164.352,0,0,1,24.437-10.014,130.916,130.916,0,0,1,22.134-4.965V180.511a1.5,1.5,0,0,1,1.5-1.5h4.056v-6.262Z" fill="#1a1818" fill-rule="evenodd"/>
      <g id="Group_20" data-name="Group 20">
        <path id="Path_110" data-name="Path 110" d="M3712.981,113.385h5.318v-8.814a1.5,1.5,0,0,1,1.5-1.5h4.982V97.625a1.5,1.5,0,0,1,1.5-1.5h4.3V58.962a1.5,1.5,0,0,1,1.5-1.5h6.251a1.5,1.5,0,0,1,1.5,1.5V96.125h4.3a1.5,1.5,0,0,1,1.5,1.5v5.446h4.983a1.5,1.5,0,0,1,1.5,1.5v8.814h5.318a1.5,1.5,0,0,1,1.5,1.5V216.324a1.5,1.5,0,0,1-1.007,1.416q-2.067.91-4.2,1.916-2.172,1.024-4.356,2.127a1.5,1.5,0,0,1-.768.157h0a101.153,101.153,0,0,0-10.675-.136,92.681,92.681,0,0,0-10.226.988,1.5,1.5,0,0,1-1.7-1.26,1.535,1.535,0,0,1-.017-.223h0v-7.585a1.5,1.5,0,0,1,1.5-1.5h12.069l-7.66-18.349-7.143-17.11-7.142,17.11-3.241,7.762a1.5,1.5,0,0,1-2.88-.574h0V114.885a1.5,1.5,0,0,1,1.5-1.5Zm24.83,105.431a104,104,0,0,1,10.576.111q2.047-1.027,4.063-1.978,1.734-.817,3.485-1.6V116.385h-5.318a1.5,1.5,0,0,1-1.5-1.5v-8.814h-4.983a1.5,1.5,0,0,1-1.5-1.5V99.125h-4.3a1.5,1.5,0,0,1-1.5-1.5V60.462h-3.251V97.625a1.5,1.5,0,0,1-1.5,1.5h-4.3v5.446a1.5,1.5,0,0,1-1.5,1.5H3721.3v8.814a1.5,1.5,0,0,1-1.5,1.5h-5.318v77.2l.357-.856,8.463-20.273a1.994,1.994,0,0,1,1.3-1.041,1.551,1.551,0,0,1,1.529.892l8.526,20.422,8.488,20.335a1.5,1.5,0,0,1-1.346,2.163H3728.98v4.355q4.313-.577,8.831-.764Zm-15.55,4.985a1.5,1.5,0,0,0,1.252-1.479v-8.6a1.5,1.5,0,0,0-1.5-1.5h-9.032a1.5,1.5,0,0,0-1.5,1.5v11.068h.006a1.475,1.475,0,0,0,.076.469,1.494,1.494,0,0,0,1.887.949q2.173-.72,4.4-1.331,2.1-.575,4.409-1.079Zm-5.193-1.8q1.755-.48,3.445-.873v-5.9h-6.032v7.522Q3715.768,222.352,3717.068,222Z" fill="#1a1818" fill-rule="evenodd"/>
      </g>
      <path id="Path_111" data-name="Path 111" d="M4032.106,249.81q-1.69-1.569-3.445-3-2.049-1.674-4.19-3.162v6.166Zm-1.558-5.325a78.355,78.355,0,0,1,6.231,5.694,1.5,1.5,0,0,1-.984,2.632H4022.97a1.5,1.5,0,0,1-1.5-1.5V240.855h.005a1.5,1.5,0,0,1,2.292-1.265,68.877,68.877,0,0,1,6.781,4.9ZM4016,238.71a57.579,57.579,0,0,0-16.642-5.032,69.661,69.661,0,0,0-19.137.01v8.072a1.5,1.5,0,0,1-1.5,1.5h-5.467a1.5,1.5,0,0,1-1.5-1.5v-8.328c-11.893-8.608-26.433-13.809-41.292-15.678-15.348-1.93-31.024-.306-44.468,4.785V229.1a1.5,1.5,0,0,1,1.308,1.409l1.089,12.759h3.165a1.5,1.5,0,0,1,1.5,1.5v5.045H4016v-11.1Zm-16.22-8a60.526,60.526,0,0,1,18.285,5.673,1.5,1.5,0,0,1,.935,1.39v13.535a1.5,1.5,0,0,1-1.5,1.5H3891.56a1.5,1.5,0,0,1-1.5-1.5v-5.046h-3.041a1.5,1.5,0,0,1-1.494-1.376l-1.094-12.805a1.5,1.5,0,0,1-1.434-1.5v-9.073h0a1.5,1.5,0,0,1,.952-1.394c14.1-5.558,30.676-7.366,46.877-5.329,15.566,1.958,30.807,7.467,43.218,16.611a1.5,1.5,0,0,1,.711,1.276v7.584h2.466v-7.876h0a1.5,1.5,0,0,1,1.282-1.483,73.37,73.37,0,0,1,21.276-.188Zm-122.5-7.591.223-.114a1.5,1.5,0,0,1,2.229,1.311v6.266a1.5,1.5,0,0,1-1.433,1.5l-1.09,12.761a1.5,1.5,0,0,1-1.5,1.421h-3.042v5.046a1.5,1.5,0,0,1-1.5,1.5h-182.94a1.5,1.5,0,0,1-1.5-1.5v-13.8h0a1.492,1.492,0,0,1,.629-1.219,96.413,96.413,0,0,1,16.457-9.526,89.637,89.637,0,0,1,17.8-5.892,1.539,1.539,0,0,1,.393-.052,1.5,1.5,0,0,1,1.5,1.5v12.729h2.467v-13.74h0a1.5,1.5,0,0,1,1.277-1.483,95.843,95.843,0,0,1,10.554-1.012,104.042,104.042,0,0,1,10.578.112c25.231-12.676,48.241-17.2,69.617-15.735,21.2,1.454,40.766,8.8,59.274,19.929Zm-.548,3.124a1.523,1.523,0,0,1-.357-.182c-18.3-11.106-37.634-18.447-58.568-19.883-20.965-1.437-43.579,3.046-68.436,15.6a1.5,1.5,0,0,1-.768.157h0a101.416,101.416,0,0,0-10.675-.136q-4.526.186-8.948.8v13.944a1.5,1.5,0,0,1-1.5,1.5h-5.467a1.5,1.5,0,0,1-1.5-1.5V224.2a86.57,86.57,0,0,0-15.464,5.294,93.327,93.327,0,0,0-15.32,8.784V249.81h179.94v-5.045a1.5,1.5,0,0,1,1.5-1.5h3.166l1.093-12.8a1.5,1.5,0,0,1,1.3-1.364v-2.852Zm-196.66,19.716q-1.066.954-2.14,1.96-.993.93-1.971,1.888h4.111v-3.848Zm-4.192-.22q2.232-2.091,4.621-4.107a1.5,1.5,0,0,1,2.571,1.05v8.626a1.5,1.5,0,0,1-1.5,1.5h-9.205v-.005a1.5,1.5,0,0,1-1.079-2.533Q3673.559,247.919,3675.88,245.742Z" fill="#1a1818" fill-rule="evenodd"/>
      <path id="Path_112" data-name="Path 112" d="M4024.471,226.2v25.111a1.5,1.5,0,0,1-1.5,1.5H4017.5a1.5,1.5,0,0,1-1.5-1.5V226.2h-13.341a1.5,1.5,0,0,1-1.5-1.5,1.469,1.469,0,0,1,.08-.485L4018.8,163.05a1.5,1.5,0,0,1,2.883,0l17.575,61.24a1.5,1.5,0,0,1-1.442,1.909h-13.341Zm-3,23.61V224.7a1.5,1.5,0,0,1,1.5-1.5h12.853l-15.586-54.307L4004.652,223.2H4017.5a1.5,1.5,0,0,1,1.5,1.5v25.11Z" fill="#1a1818" fill-rule="evenodd"/>
      <g id="Group_21" data-name="Group 21">
        <path id="Path_113" data-name="Path 113" d="M3726.129,172.3l0,.005a1.5,1.5,0,0,0-2.768-.005l-8.525,20.422-8.488,20.335a1.5,1.5,0,0,0,1.346,2.163h12.817v21.326a1.5,1.5,0,0,0,1.5,1.5h5.467a1.5,1.5,0,0,0,1.5-1.5V215.225H3741.8v0a1.478,1.478,0,0,0,.575-.114,1.5,1.5,0,0,0,.808-1.958l-8.525-20.423-8.524-20.417,0-.005Zm5.76,21.571,7.66,18.349H3727.48a1.5,1.5,0,0,0-1.5,1.5v21.326h-2.467V213.725a1.5,1.5,0,0,0-1.5-1.5h-12.068l7.659-18.349,7.142-17.11Z" fill="#1a1818" fill-rule="evenodd"/>
      </g>
      <path id="Path_114" data-name="Path 114" d="M3980.225,224.959v16.8a1.5,1.5,0,0,1-1.5,1.5h-5.467a1.5,1.5,0,0,1-1.5-1.5V224.867c-4.532-.816-7.471-2.94-9.131-6.1-1.748-3.326-1.975-7.721-1.089-12.871a65.7,65.7,0,0,1,2.624-10.034,62.162,62.162,0,0,1,4.051-9.354,25.661,25.661,0,0,1,4-5.691c1.449-1.457,2.956-2.265,4.45-2.19,3.034.151,5.693,3.648,7.849,8.237a86.948,86.948,0,0,1,5.993,19.489c.775,5.173.62,9.515-1.073,12.763-1.62,3.107-4.533,5.136-9.206,5.839Zm-3,15.3V223.634h.006a1.5,1.5,0,0,1,1.36-1.488c4.332-.391,6.892-1.937,8.181-4.409,1.366-2.62,1.454-6.368.768-10.946a83.235,83.235,0,0,0-5.735-18.658c-1.717-3.657-3.588-6.429-5.282-6.514a3.472,3.472,0,0,0-2.189,1.312,22.667,22.667,0,0,0-3.494,5.011,59.122,59.122,0,0,0-3.841,8.9,62.786,62.786,0,0,0-2.507,9.565c-.777,4.52-.63,8.282.785,10.973,1.34,2.546,3.923,4.2,8.082,4.7a1.5,1.5,0,0,1,1.4,1.5V240.26Z" fill="#1a1818" fill-rule="evenodd"/>
      <path id="Path_115" data-name="Path 115" d="M3672.271,249.8h363.41a1.5,1.5,0,0,1,1.5,1.5v9.884a1.5,1.5,0,0,1-1.5,1.5h-363.41a1.5,1.5,0,0,1-1.5-1.5V251.3a1.5,1.5,0,0,1,1.5-1.5Zm361.91,3h-360.41v6.884h360.41Z" fill="#1a1818" fill-rule="evenodd"/>
      <path id="Path_116" data-name="Path 116" d="M3680.072,220.947c-6.568-.955-10.793-3.814-13.148-8.164-2.444-4.514-2.765-10.559-1.541-17.682a91.043,91.043,0,0,1,3.626-13.858,85.86,85.86,0,0,1,5.591-12.913,35.047,35.047,0,0,1,5.461-7.78c1.9-1.908,3.845-2.967,5.745-2.872,3.956.2,7.5,4.916,10.41,11.113a120.32,120.32,0,0,1,8.281,26.931c1.072,7.158.852,13.133-1.518,17.546-2.292,4.27-6.473,6.989-13.25,7.788v30.255a1.5,1.5,0,0,1-1.5,1.5h-6.657a1.5,1.5,0,0,1-1.5-1.5V220.947Zm-10.511-9.583c2.017,3.727,5.871,6.112,12.051,6.762a1.5,1.5,0,0,1,1.46,1.5V249.81h3.657V219.7h0a1.5,1.5,0,0,1,1.387-1.494c6.45-.489,10.277-2.723,12.224-6.351,2.024-3.769,2.171-9.14,1.19-15.694a116.54,116.54,0,0,0-8.023-26.1c-2.474-5.265-5.227-9.26-7.843-9.391-.988-.049-2.182.684-3.484,1.994a32.184,32.184,0,0,0-4.957,7.1,82.7,82.7,0,0,0-5.38,12.456,87.957,87.957,0,0,0-3.508,13.39C3667.223,202.085,3667.463,207.488,3669.561,211.364Z" fill="#1a1818" fill-rule="evenodd"/>
      <path id="Path_117" data-name="Path 117" d="M3760.86,230.774h2.014V223.76a1.5,1.5,0,0,1,1.5-1.5h51.136a1.5,1.5,0,0,1,1.5,1.5v7.014h2.015a1.5,1.5,0,0,1,1.5,1.5v19.037a1.5,1.5,0,0,1-1.5,1.5h-6.314a1.5,1.5,0,0,1-1.5-1.5v-8.185h-42.536v8.185a1.5,1.5,0,0,1-1.5,1.5h-6.314a1.5,1.5,0,0,1-1.5-1.5V232.274a1.5,1.5,0,0,1,1.5-1.5Zm3.514,3h-2.014V249.81h3.314v-8.184a1.5,1.5,0,0,1,1.5-1.5h45.537a1.5,1.5,0,0,1,1.5,1.5v8.184h3.314V233.774h-2.015a1.5,1.5,0,0,1-1.5-1.5V225.26h-48.136v7.014A1.5,1.5,0,0,1,3764.374,233.774Z" fill="#1a1818" fill-rule="evenodd"/>
      <path id="Path_118" data-name="Path 118" d="M3845.476,249.81l1.989-19.989h-12.749l1.989,19.989Zm5.13-21.342-2.277,22.873a1.5,1.5,0,0,1-1.5,1.47h-11.477v-.005a1.5,1.5,0,0,1-1.489-1.349l-2.275-22.867a1.5,1.5,0,0,1,1.476-1.769h16.053v.005c.049,0,.1,0,.147.007A1.5,1.5,0,0,1,3850.606,228.468Z" fill="#1a1818" fill-rule="evenodd"/>
      <path id="Path_119" data-name="Path 119" d="M3963.3,249.81c-.218-.338-.445-.679-.676-1.017-1.06-1.556-2.173-3.014-2.791-3.755v-.006c-5.872-7.04-14.574-13.812-25.3-18.813a87.17,87.17,0,0,0-32.17-8.015,88.3,88.3,0,0,0-8.859,1.91q-.985.267-1.958.555a77.3,77.3,0,0,1,27.913,5.708,64.069,64.069,0,0,1,24.609,17.519c.721.858,1.822,2.3,2.782,3.713.517.761,1,1.523,1.374,2.2Zm1.8-2.705a33.549,33.549,0,0,1,2.148,3.531l1.1,2.175h-22.012l-.4-.9a18.917,18.917,0,0,0-1.556-2.629c-.907-1.337-1.932-2.679-2.594-3.467a61.047,61.047,0,0,0-23.461-16.675,75.049,75.049,0,0,0-30.383-5.484c-.307.006-.647.017-1.023.03h-.006c-.292.01-.638.025-1.028.043l-.6.03h0l-.71.038-1.577.084v-3.391l.955-.376a82.724,82.724,0,0,1,8.785-2.9,91.353,91.353,0,0,1,9.324-1.995l.31-.017a90.15,90.15,0,0,1,33.435,8.292c11.119,5.186,20.178,12.251,26.324,19.619l0,0C3962.8,243.911,3963.981,245.462,3965.1,247.1Z" fill="#1a1818" fill-rule="evenodd"/>
    </g>
  </g>
</svg>