<?xml version="1.0" encoding="UTF-8" standalone="no" ?>
<!DOCTYPE svg PUBLIC "-//W3C//DTD SVG 1.1//EN" "http://www.w3.org/Graphics/SVG/1.1/DTD/svg11.dtd">
<svg xmlns="http://www.w3.org/2000/svg" xmlns:xlink="http://www.w3.org/1999/xlink" version="1.1" width="640" height="480" viewBox="0 0 640 480" xml:space="preserve">
<desc>Created with Fabric.js 3.6.6</desc>
<defs>
</defs>
<g transform="matrix(1.06 0 0 1.06 330.88 244.62)"  >
<g style=""   >
		<g transform="matrix(2.14 0 0 2.14 -100.08 56.81)"  >
<rect style="stroke: none; stroke-width: 1; stroke-dasharray: none; stroke-linecap: butt; stroke-dashoffset: 0; stroke-linejoin: miter; stroke-miterlimit: 4; fill: rgb(205,145,191); fill-rule: nonzero; opacity: 1;"  x="-22.225" y="-53.86" rx="0" ry="0" width="44.45" height="107.72" />
</g>
		<g transform="matrix(2.14 0 0 2.14 -24.92 -24.1)"  >
<path style="stroke: none; stroke-width: 1; stroke-dasharray: none; stroke-linecap: butt; stroke-dashoffset: 0; stroke-linejoin: miter; stroke-miterlimit: 4; fill: rgb(205,145,191); fill-rule: evenodd; opacity: 1;"  transform=" translate(-3840.28, -146.39)" d="M 3818.055 96.9 l 44.454 -42.336 V 238.225 h -44.454 Z" stroke-linecap="round" />
</g>
		<g transform="matrix(2.14 0 0 2.14 64.48 25.23)"  >
<path style="stroke: none; stroke-width: 1; stroke-dasharray: none; stroke-linecap: butt; stroke-dashoffset: 0; stroke-linejoin: miter; stroke-miterlimit: 4; fill: rgb(205,145,191); fill-rule: evenodd; opacity: 1;"  transform=" translate(-3882.14, -169.55)" d="M 3854.636 134.977 l 13.742 -16.991 l 13.76 -17.118 l 13.76 17.118 l 13.742 16.991 V 238.225 h -55 Z" stroke-linecap="round" />
</g>
		<g transform="matrix(2.14 0 0 2.14 159.65 102.19)"  >
<path style="stroke: none; stroke-width: 1; stroke-dasharray: none; stroke-linecap: butt; stroke-dashoffset: 0; stroke-linejoin: miter; stroke-miterlimit: 4; fill: rgb(205,145,191); fill-rule: evenodd; opacity: 1;"  transform=" translate(-3926.7, -205.66)" d="M 3899.676 184.677 h 29.636 V 173.1 h 24.42 v 65.125 h -54.056 Z" stroke-linecap="round" />
</g>
		<g transform="matrix(2.14 0 0 2.14 242.71 61.74)"  >
<path style="stroke: none; stroke-width: 1; stroke-dasharray: none; stroke-linecap: butt; stroke-dashoffset: 0; stroke-linejoin: miter; stroke-miterlimit: 4; fill: rgb(205,145,191); fill-rule: evenodd; opacity: 1;"  transform=" translate(-3965.6, -186.68)" d="M 3941.229 146.244 h 8.335 V 135.13 h 32.076 v 11.114 h 8.335 v 91.981 h -48.746 Z" stroke-linecap="round" />
</g>
		<g transform="matrix(2.14 0 0 2.14 -188.4 100.22)"  >
<path style="stroke: none; stroke-width: 1; stroke-dasharray: none; stroke-linecap: butt; stroke-dashoffset: 0; stroke-linejoin: miter; stroke-miterlimit: 4; fill: rgb(205,145,191); fill-rule: evenodd; opacity: 1;"  transform=" translate(-3763.71, -204.74)" d="M 3737.482 171.249 h 58.009 v 9.262 h -5.556 v 57.714 h -52.452 V 180.511 h -5.557 v -9.262 Z" stroke-linecap="round" />
</g>
		<g transform="matrix(2.14 0 0 2.14 -263.23 -19.42)"  >
<path style="stroke: none; stroke-width: 1; stroke-dasharray: none; stroke-linecap: butt; stroke-dashoffset: 0; stroke-linejoin: miter; stroke-miterlimit: 4; fill: rgb(205,145,191); fill-rule: evenodd; opacity: 1;"  transform=" translate(-3728.68, -148.59)" d="M 3706.458 114.885 h 6.818 V 104.571 h 6.482 V 97.625 h 5.8 V 58.962 h 6.251 V 97.625 h 5.8 v 6.946 h 6.483 v 10.314 h 6.818 v 123.34 h -44.454 Z" stroke-linecap="round" />
</g>
		<g transform="matrix(2.14 0 0 2.14 -62.58 56.81)"  >
<rect style="stroke: none; stroke-width: 1; stroke-dasharray: none; stroke-linecap: butt; stroke-dashoffset: 0; stroke-linejoin: miter; stroke-miterlimit: 4; fill: rgb(159,58,141); fill-rule: nonzero; opacity: 1;"  x="-4.63" y="-53.86" rx="0" ry="0" width="9.26" height="107.72" />
</g>
		<g transform="matrix(2.14 0 0 2.14 14.05 51.2)"  >
<path style="stroke: none; stroke-width: 1; stroke-dasharray: none; stroke-linecap: butt; stroke-dashoffset: 0; stroke-linejoin: miter; stroke-miterlimit: 4; fill: rgb(159,58,141); fill-rule: evenodd; opacity: 1;"  transform=" translate(-3858.57, -181.73)" d="M 3862.509 125.243 V 238.225 h -7.872 V 134.977 Z" stroke-linecap="round" />
</g>
		<g transform="matrix(2.14 0 0 2.14 112.47 114.53)"  >
<rect style="stroke: none; stroke-width: 1; stroke-dasharray: none; stroke-linecap: butt; stroke-dashoffset: 0; stroke-linejoin: miter; stroke-miterlimit: 4; fill: rgb(159,58,141); fill-rule: nonzero; opacity: 1;"  x="-4.98" y="-26.775" rx="0" ry="0" width="9.96" height="53.55" />
</g>
		<g transform="matrix(2.14 0 0 2.14 203.92 102.19)"  >
<path style="stroke: none; stroke-width: 1; stroke-dasharray: none; stroke-linecap: butt; stroke-dashoffset: 0; stroke-linejoin: miter; stroke-miterlimit: 4; fill: rgb(159,58,141); fill-rule: evenodd; opacity: 1;"  transform=" translate(-3947.48, -205.66)" d="M 3941.229 173.1 h 12.5 v 65.125 h -12.5 Z" stroke-linecap="round" />
</g>
		<g transform="matrix(2.14 0 0 2.14 -236.09 100.22)"  >
<path style="stroke: none; stroke-width: 1; stroke-dasharray: none; stroke-linecap: butt; stroke-dashoffset: 0; stroke-linejoin: miter; stroke-miterlimit: 4; fill: rgb(159,58,141); fill-rule: evenodd; opacity: 1;"  transform=" translate(-3741.42, -204.74)" d="M 3737.482 171.249 h 13.429 v 66.976 h -13.429 V 180.511 h -5.557 v -9.262 Z" stroke-linecap="round" />
</g>
		<g transform="matrix(2.14 0 0 2.14 -134.13 100.22)"  >
<path style="stroke: none; stroke-width: 1; stroke-dasharray: none; stroke-linecap: butt; stroke-dashoffset: 0; stroke-linejoin: miter; stroke-miterlimit: 4; fill: rgb(159,58,141); fill-rule: evenodd; opacity: 1;"  transform=" translate(-3789.18, -204.74)" d="M 3782.862 171.249 h 12.629 v 9.262 h -5.556 v 57.714 h -7.073 Z" stroke-linecap="round" />
</g>
		<g transform="matrix(2.14 0 0 2.14 5.28 149.58)"  >
<path style="stroke: none; stroke-width: 1; stroke-dasharray: none; stroke-linecap: butt; stroke-dashoffset: 0; stroke-linejoin: miter; stroke-miterlimit: 4; fill: rgb(145,202,157); fill-rule: evenodd; opacity: 1;"  transform=" translate(-3854.09, -227.87)" d="M 4035.8 251.311 c -15.617 -15.9 -35.479 -23.4 -61.815 -18.1 c -27.188 -20.606 -68.838 -23.079 -96.751 -8.376 c -37.049 -22.5 -78.3 -29.76 -128.532 -4.388 c -30.152 -1.946 -55.316 9.069 -76.33 30.864 Z" stroke-linecap="round" />
</g>
		<g transform="matrix(2.14 0 0 2.14 359.35 105.93)"  >
<path style="stroke: none; stroke-width: 1; stroke-dasharray: none; stroke-linecap: butt; stroke-dashoffset: 0; stroke-linejoin: miter; stroke-miterlimit: 4; fill: rgb(41,165,85); fill-rule: evenodd; opacity: 1;"  transform=" translate(-4020.24, -207.38)" d="M 4022.972 224.7 v 26.61 h -5.467 V 224.7 h -14.841 l 17.574 -61.24 l 17.575 61.24 Z" stroke-linecap="round" />
</g>
		<g transform="matrix(2.14 0 0 2.14 -271.66 100.17)"  >
<path style="stroke: none; stroke-width: 1; stroke-dasharray: none; stroke-linecap: butt; stroke-dashoffset: 0; stroke-linejoin: miter; stroke-miterlimit: 4; fill: rgb(41,165,85); fill-rule: evenodd; opacity: 1;"  transform=" translate(-3724.75, -204.71)" d="M 3724.748 172.879 l 8.526 20.423 l 8.525 20.423 h -14.318 v 22.826 h -5.467 V 213.725 H 3707.7 l 8.525 -20.423 Z" stroke-linecap="round" />
</g>
		<g transform="matrix(2.14 0 0 2.14 264.85 113.46)"  >
<path style="stroke: none; stroke-width: 1; stroke-dasharray: none; stroke-linecap: butt; stroke-dashoffset: 0; stroke-linejoin: miter; stroke-miterlimit: 4; fill: rgb(41,165,85); fill-rule: evenodd; opacity: 1;"  transform=" translate(-3975.99, -210.94)" d="M 3978.726 223.634 V 241.76 h -5.466 V 223.575 c -9.5 -1.11 -11.908 -7.752 -10.244 -17.423 a 66.04 66.04 0 0 1 6.512 -18.925 c 2.34 -4.288 4.9 -7.21 7.066 -7.1 c 6.143 0.307 11.611 20.978 12.429 26.449 C 3990.484 216.326 3988.539 222.748 3978.726 223.634 Z" stroke-linecap="round" />
</g>
		<g transform="matrix(2.14 0 0 2.14 5.05 210.07)"  >
<rect style="stroke: none; stroke-width: 1; stroke-dasharray: none; stroke-linecap: butt; stroke-dashoffset: 0; stroke-linejoin: miter; stroke-miterlimit: 4; fill: rgb(41,165,85); fill-rule: nonzero; opacity: 1;"  x="-181.705" y="-4.94" rx="0" ry="0" width="363.41" height="9.88" />
</g>
		<g transform="matrix(2.14 0 0 2.14 -356.75 101.35)"  >
<path style="stroke: none; stroke-width: 1; stroke-dasharray: none; stroke-linecap: butt; stroke-dashoffset: 0; stroke-linejoin: miter; stroke-miterlimit: 4; fill: rgb(41,165,85); fill-rule: evenodd; opacity: 1;"  transform=" translate(-3684.9, -205.24)" d="M 3681.574 219.625 c -13.59 -1.377 -17.052 -10.669 -14.712 -24.272 a 91.854 91.854 0 0 1 9.052 -26.308 c 3.253 -5.961 6.81 -10.023 9.824 -9.873 c 8.539 0.427 16.14 29.163 17.278 36.768 c 2.054 13.711 -0.735 22.688 -14.785 23.756 v 31.615 h -6.657 Z" stroke-linecap="round" />
</g>
		<g transform="matrix(2.14 0 0 2.14 -132.38 170.18)"  >
<path style="stroke: none; stroke-width: 1; stroke-dasharray: none; stroke-linecap: butt; stroke-dashoffset: 0; stroke-linejoin: miter; stroke-miterlimit: 4; fill: rgb(41,165,85); fill-rule: evenodd; opacity: 1;"  transform=" translate(-3789.94, -237.54)" d="M 3760.862 232.274 h 3.514 V 223.76 h 51.136 v 8.514 h 3.514 v 19.037 h -6.314 v -9.685 h -45.536 v 9.685 h -6.314 Z" stroke-linecap="round" />
</g>
		<g transform="matrix(2.14 0 0 2.14 -23.25 175.04)"  >
<path style="stroke: none; stroke-width: 1; stroke-dasharray: none; stroke-linecap: butt; stroke-dashoffset: 0; stroke-linejoin: miter; stroke-miterlimit: 4; fill: rgb(41,165,85); fill-rule: evenodd; opacity: 1;"  transform=" translate(-3841.09, -239.82)" d="M 3846.831 251.311 l 2.288 -22.989 h -16.054 l 2.288 22.989 Z" stroke-linecap="round" />
</g>
		<g transform="matrix(2.14 0 0 2.14 154.05 162.65)"  >
<path style="stroke: none; stroke-width: 1; stroke-dasharray: none; stroke-linecap: butt; stroke-dashoffset: 0; stroke-linejoin: miter; stroke-miterlimit: 4; fill: rgb(41,165,85); fill-rule: evenodd; opacity: 1;"  transform=" translate(-3924.05, -234.01)" d="M 3965.914 251.311 a 49.12 49.12 0 0 0 -4.928 -7.234 c -11.279 -13.523 -32.671 -26.035 -58.689 -27.375 a 84.634 84.634 0 0 0 -20.111 5.766 c 0.356 -0.067 3.293 -0.214 3.634 -0.23 q 1.056 -0.051 2.1 -0.073 c 24.894 -0.554 44.409 10.07 55.015 22.692 a 37.238 37.238 0 0 1 4.379 6.454 Z" stroke-linecap="round" />
</g>
		<g transform="matrix(2.14 0 0 2.14 62.77 90.58)"  >
<path style="stroke: none; stroke-width: 1; stroke-dasharray: none; stroke-linecap: butt; stroke-dashoffset: 0; stroke-linejoin: miter; stroke-miterlimit: 4; fill: rgb(41,165,85); fill-rule: evenodd; opacity: 1;"  transform=" translate(-3881.37, -200.18)" d="M 3871.171 244.765 h 4.542 l 1.211 -14.18 h 1.31 V 184.6 h -3.765 v -6.618 h 1.74 a 9.927 9.927 0 0 1 0.513 -17.581 h -2.253 v -6.618 h 4.1 v -4.722 h 5.6 v 4.722 h 4.1 v 6.618 h -2.253 a 9.926 9.926 0 0 1 0.513 17.581 h 1.74 V 184.6 H 3884.5 v 45.98 h 1.31 l 1.212 14.18 h 4.541 v 6.546 h -20.391 Z" stroke-linecap="round" />
</g>
		<g transform="matrix(2.14 0 0 2.14 -86.13 23.33)"  >
<path style="stroke: none; stroke-width: 1; stroke-dasharray: none; stroke-linecap: butt; stroke-dashoffset: 0; stroke-linejoin: miter; stroke-miterlimit: 4; fill: rgb(26,24,24); fill-rule: evenodd; opacity: 1;"  transform=" translate(-3811.61, -168.72)" d="M 3789.385 129 h 44.454 a 1.5 1.5 0 0 1 1.5 1.5 v 76.432 a 1.5 1.5 0 0 1 -1.5 1.5 a 1.466 1.466 0 0 1 -0.405 -0.056 a 110.948 110.948 0 0 0 -21.241 -2.441 a 114.74 114.74 0 0 0 -22.544 1.868 a 1.493 1.493 0 0 1 -1.734 -1.207 a 1.462 1.462 0 0 1 -0.024 -0.264 h -0.006 V 130.5 a 1.5 1.5 0 0 1 1.5 -1.5 Z m 42.954 3 h -41.454 V 204.56 a 117.3 117.3 0 0 1 21.354 -1.609 a 113.731 113.731 0 0 1 20.1 2.149 Z" stroke-linecap="round" />
</g>
		<g transform="matrix(2.14 0 0 2.14 -10.98 -43.43)"  >
<path style="stroke: none; stroke-width: 1; stroke-dasharray: none; stroke-linecap: butt; stroke-dashoffset: 0; stroke-linejoin: miter; stroke-miterlimit: 4; fill: rgb(26,24,24); fill-rule: evenodd; opacity: 1;"  transform=" translate(-3846.81, -137.36)" d="M 3823.619 95.743 L 3868 53.477 a 1.5 1.5 0 0 1 2.528 1.084 h 0 V 220.153 a 1.5 1.5 0 0 1 -2.317 1.258 A 141.572 141.572 0 0 0 3846.9 212.1 a 116.589 116.589 0 0 0 -22.5 -5.263 a 1.494 1.494 0 0 1 -1.307 -1.482 h -0.006 V 96.9 a 1.5 1.5 0 0 1 0.541 -1.154 Z m 43.913 -37.687 l -41.454 39.479 v 106.51 a 120.038 120.038 0 0 1 21.779 5.215 a 142.757 142.757 0 0 1 19.675 8.416 Z" stroke-linecap="round" />
</g>
		<g transform="matrix(2.14 0 0 2.14 78.44 10.91)"  >
<path style="stroke: none; stroke-width: 1; stroke-dasharray: none; stroke-linecap: butt; stroke-dashoffset: 0; stroke-linejoin: miter; stroke-miterlimit: 4; fill: rgb(26,24,24); fill-rule: evenodd; opacity: 1;"  transform=" translate(-3888.66, -162.85)" d="M 3860.064 133.952 l 13.672 -16.9 L 3887.5 99.93 a 1.5 1.5 0 0 1 2.352 0.026 l 13.74 17.093 l 13.742 16.99 a 1.485 1.485 0 0 1 0.329 0.938 h 0.005 v 80.507 a 1.5 1.5 0 0 1 -1.5 1.5 c -0.035 0 -0.07 0 -0.1 0 a 95.714 95.714 0 0 0 -16.089 1.647 a 83.144 83.144 0 0 0 -14.928 4.277 A 1.5 1.5 0 0 1 3883 221.51 h 0 V 184.6 a 1.5 1.5 0 0 1 1.5 -1.5 h 2.265 v -3.617 h -0.241 a 1.5 1.5 0 0 1 -0.686 -2.834 a 8.679 8.679 0 0 0 3.115 -3.1 a 8.383 8.383 0 0 0 -0.132 -8.657 a 8.684 8.684 0 0 0 -3.478 -3.158 a 1.494 1.494 0 0 1 0.668 -2.83 V 158.9 h 0.754 v -3.617 h -2.6 a 1.5 1.5 0 0 1 -1.5 -1.5 v -3.222 h -2.6 v 3.222 a 1.5 1.5 0 0 1 -1.5 1.5 h -2.6 V 158.9 h 0.753 a 1.5 1.5 0 0 1 0.555 2.9 a 8.693 8.693 0 0 0 -3.365 3.1 a 8.38 8.38 0 0 0 -0.131 8.657 a 8.67 8.67 0 0 0 3.172 3.129 a 1.5 1.5 0 0 1 -0.744 2.8 v 0 h -0.24 V 183.1 h 2.265 a 1.5 1.5 0 0 1 1.5 1.5 v 39.713 a 1.5 1.5 0 0 1 -0.945 1.393 l -0.367 0.188 h 0 l -0.5 0.261 a 1.492 1.492 0 0 1 -1.511 -0.075 q -3.831 -2.325 -7.855 -4.491 q -3.98 -2.138 -8.02 -4.02 a 1.5 1.5 0 0 1 -0.87 -1.36 h 0 V 134.977 a 1.5 1.5 0 0 1 0.4 -1.025 Z m 16 -15.028 L 3862.66 135.5 v 79.762 q 3.688 1.743 7.312 3.693 q 3.357 1.8 6.76 3.837 V 186.1 h -2.265 a 1.5 1.5 0 0 1 -1.5 -1.5 v -6.617 a 1.521 1.521 0 0 1 0.094 -0.525 a 11.572 11.572 0 0 1 -1.86 -2.393 a 11.323 11.323 0 0 1 0.166 -11.751 a 11.581 11.581 0 0 1 1.782 -2.2 a 1.494 1.494 0 0 1 -0.182 -0.717 v -6.617 a 1.5 1.5 0 0 1 1.5 -1.5 h 2.6 v -3.222 a 1.5 1.5 0 0 1 1.5 -1.5 h 5.6 a 1.5 1.5 0 0 1 1.5 1.5 v 3.222 h 2.6 a 1.5 1.5 0 0 1 1.5 1.5 V 160.4 a 1.494 1.494 0 0 1 -0.182 0.717 a 11.581 11.581 0 0 1 1.782 2.2 a 11.323 11.323 0 0 1 0.166 11.751 a 11.632 11.632 0 0 1 -1.86 2.393 a 1.521 1.521 0 0 1 0.094 0.525 V 184.6 a 1.5 1.5 0 0 1 -1.5 1.5 H 3886 v 33.238 a 87.317 87.317 0 0 1 13.422 -3.657 a 98.368 98.368 0 0 1 15.244 -1.66 V 135.5 l -13.408 -16.577 l -12.594 -15.668 Z" stroke-linecap="round" />
</g>
		<g transform="matrix(2.14 0 0 2.14 173.59 87.91)"  >
<path style="stroke: none; stroke-width: 1; stroke-dasharray: none; stroke-linecap: butt; stroke-dashoffset: 0; stroke-linejoin: miter; stroke-miterlimit: 4; fill: rgb(26,24,24); fill-rule: evenodd; opacity: 1;"  transform=" translate(-3933.23, -198.98)" d="M 3906.2 183.176 h 28.135 V 173.1 a 1.5 1.5 0 0 1 1.5 -1.5 h 24.419 a 1.5 1.5 0 0 1 1.5 1.5 v 51.763 a 1.5 1.5 0 0 1 -2.237 1.306 a 93.711 93.711 0 0 0 -25.613 -7.922 a 99.988 99.988 0 0 0 -27.53 -0.6 a 1.5 1.5 0 0 1 -1.664 -1.312 c -0.006 -0.059 -0.009 -0.118 -0.01 -0.176 h 0 v -31.48 a 1.5 1.5 0 0 1 1.5 -1.5 Z m 29.636 3 H 3907.7 v 28.308 a 103.207 103.207 0 0 1 26.674 0.809 a 97.411 97.411 0 0 1 24.381 7.22 V 174.6 h -21.419 v 10.077 A 1.5 1.5 0 0 1 3935.836 186.177 Z" stroke-linecap="round" />
</g>
		<g transform="matrix(2.14 0 0 2.14 256.65 55.8)"  >
<path style="stroke: none; stroke-width: 1; stroke-dasharray: none; stroke-linecap: butt; stroke-dashoffset: 0; stroke-linejoin: miter; stroke-miterlimit: 4; fill: rgb(26,24,24); fill-rule: evenodd; opacity: 1;"  transform=" translate(-3972.13, -183.9)" d="M 3947.753 144.744 h 6.835 V 135.13 a 1.5 1.5 0 0 1 1.5 -1.5 h 32.076 a 1.5 1.5 0 0 1 1.5 1.5 v 9.614 h 6.835 a 1.5 1.5 0 0 1 1.5 1.5 v 85.584 a 1.5 1.5 0 0 1 -1.5 1.5 a 1.474 1.474 0 0 1 -0.267 -0.024 a 67.279 67.279 0 0 0 -8.3 -0.25 a 78.214 78.214 0 0 0 -8.988 0.813 a 1.5 1.5 0 0 1 -1.7 -1.266 a 1.452 1.452 0 0 1 -0.016 -0.217 h 0 v -8.75 a 1.5 1.5 0 0 1 1.49 -1.5 c 4.257 -0.409 6.781 -1.949 8.057 -4.4 c 1.366 -2.62 1.454 -6.368 0.768 -10.946 a 83.235 83.235 0 0 0 -5.735 -18.658 c -1.717 -3.657 -3.588 -6.429 -5.282 -6.514 a 3.472 3.472 0 0 0 -2.189 1.312 a 22.667 22.667 0 0 0 -3.494 5.011 a 59.122 59.122 0 0 0 -3.841 8.9 a 62.786 62.786 0 0 0 -2.507 9.565 c -0.777 4.52 -0.63 8.282 0.785 10.973 c 1.347 2.56 3.952 4.219 8.152 4.71 a 1.5 1.5 0 0 1 1.328 1.488 h 0 v 9.1 a 1.5 1.5 0 0 1 -2.484 1.133 a 79.07 79.07 0 0 0 -11.646 -7.086 a 89.243 89.243 0 0 0 -13.32 -5.328 a 1.5 1.5 0 0 1 -1.053 -1.43 h 0 V 146.244 a 1.5 1.5 0 0 1 1.5 -1.5 Z m 8.335 3 h -6.835 v 71.119 a 92.076 92.076 0 0 1 12.711 5.17 a 82.847 82.847 0 0 1 9.794 5.737 v -4.9 c -4.532 -0.816 -7.471 -2.94 -9.131 -6.1 c -1.748 -3.326 -1.975 -7.721 -1.089 -12.871 a 65.7 65.7 0 0 1 2.624 -10.034 a 62.162 62.162 0 0 1 4.051 -9.354 a 25.661 25.661 0 0 1 4 -5.691 c 1.449 -1.457 2.956 -2.265 4.45 -2.19 c 3.034 0.151 5.693 3.648 7.849 8.237 a 86.948 86.948 0 0 1 5.993 19.489 c 0.775 5.173 0.62 9.515 -1.073 12.763 c -1.62 3.107 -4.533 5.136 -9.206 5.839 v 5.708 q 3.882 -0.489 7.622 -0.6 a 71.035 71.035 0 0 1 7.152 0.138 V 147.744 h -6.835 a 1.5 1.5 0 0 1 -1.5 -1.5 V 136.63 h -29.076 v 9.614 A 1.5 1.5 0 0 1 3956.088 147.744 Z" stroke-linecap="round" />
</g>
		<g transform="matrix(2.14 0 0 2.14 -174.47 81.21)"  >
<path style="stroke: none; stroke-width: 1; stroke-dasharray: none; stroke-linecap: butt; stroke-dashoffset: 0; stroke-linejoin: miter; stroke-miterlimit: 4; fill: rgb(26,24,24); fill-rule: evenodd; opacity: 1;"  transform=" translate(-3770.23, -195.85)" d="M 3744 169.749 h 58.009 a 1.5 1.5 0 0 1 1.5 1.5 v 9.262 a 1.5 1.5 0 0 1 -1.5 1.5 h -4.056 v 23.258 a 1.5 1.5 0 0 1 -1.389 1.5 a 127.132 127.132 0 0 0 -22.854 5.008 a 161.539 161.539 0 0 0 -24.344 10.009 a 1.5 1.5 0 0 1 -0.768 0.157 h 0 q -1.248 -0.081 -2.321 -0.125 q -1.2 -0.049 -2.306 -0.072 a 1.5 1.5 0 0 1 -1.465 -1.5 h -0.006 V 182.011 h -4.057 a 1.5 1.5 0 0 1 -1.5 -1.5 v -9.262 a 1.5 1.5 0 0 1 1.5 -1.5 Z m 52.453 3 h -56.51 v 6.262 H 3744 a 1.5 1.5 0 0 1 1.5 1.5 v 38.283 q 0.453 0.015 0.894 0.033 q 1.046 0.044 1.988 0.1 a 164.352 164.352 0 0 1 24.437 -10.014 a 130.916 130.916 0 0 1 22.134 -4.965 V 180.511 a 1.5 1.5 0 0 1 1.5 -1.5 h 4.056 v -6.262 Z" stroke-linecap="round" />
</g>
		<g transform="matrix(2.14 0 0 2.14 -249.3 -33.79)"  >
<path style="stroke: none; stroke-width: 1; stroke-dasharray: none; stroke-linecap: butt; stroke-dashoffset: 0; stroke-linejoin: miter; stroke-miterlimit: 4; fill: rgb(26,24,24); fill-rule: evenodd; opacity: 1;"  transform=" translate(-3735.21, -141.87)" d="M 3712.981 113.385 h 5.318 v -8.814 a 1.5 1.5 0 0 1 1.5 -1.5 h 4.982 V 97.625 a 1.5 1.5 0 0 1 1.5 -1.5 h 4.3 V 58.962 a 1.5 1.5 0 0 1 1.5 -1.5 h 6.251 a 1.5 1.5 0 0 1 1.5 1.5 V 96.125 h 4.3 a 1.5 1.5 0 0 1 1.5 1.5 v 5.446 h 4.983 a 1.5 1.5 0 0 1 1.5 1.5 v 8.814 h 5.318 a 1.5 1.5 0 0 1 1.5 1.5 V 216.324 a 1.5 1.5 0 0 1 -1.007 1.416 q -2.067 0.91 -4.2 1.916 q -2.172 1.024 -4.356 2.127 a 1.5 1.5 0 0 1 -0.768 0.157 h 0 a 101.153 101.153 0 0 0 -10.675 -0.136 a 92.681 92.681 0 0 0 -10.226 0.988 a 1.5 1.5 0 0 1 -1.7 -1.26 a 1.535 1.535 0 0 1 -0.017 -0.223 h 0 v -7.585 a 1.5 1.5 0 0 1 1.5 -1.5 h 12.069 l -7.66 -18.349 l -7.143 -17.11 l -7.142 17.11 l -3.241 7.762 a 1.5 1.5 0 0 1 -2.88 -0.574 h 0 V 114.885 a 1.5 1.5 0 0 1 1.5 -1.5 Z m 24.83 105.431 a 104 104 0 0 1 10.576 0.111 q 2.047 -1.027 4.063 -1.978 q 1.734 -0.817 3.485 -1.6 V 116.385 h -5.318 a 1.5 1.5 0 0 1 -1.5 -1.5 v -8.814 h -4.983 a 1.5 1.5 0 0 1 -1.5 -1.5 V 99.125 h -4.3 a 1.5 1.5 0 0 1 -1.5 -1.5 V 60.462 h -3.251 V 97.625 a 1.5 1.5 0 0 1 -1.5 1.5 h -4.3 v 5.446 a 1.5 1.5 0 0 1 -1.5 1.5 H 3721.3 v 8.814 a 1.5 1.5 0 0 1 -1.5 1.5 h -5.318 v 77.2 l 0.357 -0.856 l 8.463 -20.273 a 1.994 1.994 0 0 1 1.3 -1.041 a 1.551 1.551 0 0 1 1.529 0.892 l 8.526 20.422 l 8.488 20.335 a 1.5 1.5 0 0 1 -1.346 2.163 H 3728.98 v 4.355 q 4.313 -0.577 8.831 -0.764 Z m -15.55 4.985 a 1.5 1.5 0 0 0 1.252 -1.479 v -8.6 a 1.5 1.5 0 0 0 -1.5 -1.5 h -9.032 a 1.5 1.5 0 0 0 -1.5 1.5 v 11.068 h 0.006 a 1.475 1.475 0 0 0 0.076 0.469 a 1.494 1.494 0 0 0 1.887 0.949 q 2.173 -0.72 4.4 -1.331 q 2.1 -0.575 4.409 -1.079 Z m -5.193 -1.8 q 1.755 -0.48 3.445 -0.873 v -5.9 h -6.032 v 7.522 Q 3715.768 222.352 3717.068 222 Z" stroke-linecap="round" />
</g>
		<g transform="matrix(2.14 0 0 2.14 5.29 149.59)"  >
<path style="stroke: none; stroke-width: 1; stroke-dasharray: none; stroke-linecap: butt; stroke-dashoffset: 0; stroke-linejoin: miter; stroke-miterlimit: 4; fill: rgb(26,24,24); fill-rule: evenodd; opacity: 1;"  transform=" translate(-3854.09, -227.87)" d="M 4032.106 249.81 q -1.69 -1.569 -3.445 -3 q -2.049 -1.674 -4.19 -3.162 v 6.166 Z m -1.558 -5.325 a 78.355 78.355 0 0 1 6.231 5.694 a 1.5 1.5 0 0 1 -0.984 2.632 H 4022.97 a 1.5 1.5 0 0 1 -1.5 -1.5 V 240.855 h 0.005 a 1.5 1.5 0 0 1 2.292 -1.265 a 68.877 68.877 0 0 1 6.781 4.9 Z M 4016 238.71 a 57.579 57.579 0 0 0 -16.642 -5.032 a 69.661 69.661 0 0 0 -19.137 0.01 v 8.072 a 1.5 1.5 0 0 1 -1.5 1.5 h -5.467 a 1.5 1.5 0 0 1 -1.5 -1.5 v -8.328 c -11.893 -8.608 -26.433 -13.809 -41.292 -15.678 c -15.348 -1.93 -31.024 -0.306 -44.468 4.785 V 229.1 a 1.5 1.5 0 0 1 1.308 1.409 l 1.089 12.759 h 3.165 a 1.5 1.5 0 0 1 1.5 1.5 v 5.045 H 4016 v -11.1 Z m -16.22 -8 a 60.526 60.526 0 0 1 18.285 5.673 a 1.5 1.5 0 0 1 0.935 1.39 v 13.535 a 1.5 1.5 0 0 1 -1.5 1.5 H 3891.56 a 1.5 1.5 0 0 1 -1.5 -1.5 v -5.046 h -3.041 a 1.5 1.5 0 0 1 -1.494 -1.376 l -1.094 -12.805 a 1.5 1.5 0 0 1 -1.434 -1.5 v -9.073 h 0 a 1.5 1.5 0 0 1 0.952 -1.394 c 14.1 -5.558 30.676 -7.366 46.877 -5.329 c 15.566 1.958 30.807 7.467 43.218 16.611 a 1.5 1.5 0 0 1 0.711 1.276 v 7.584 h 2.466 v -7.876 h 0 a 1.5 1.5 0 0 1 1.282 -1.483 a 73.37 73.37 0 0 1 21.276 -0.188 Z m -122.5 -7.591 l 0.223 -0.114 a 1.5 1.5 0 0 1 2.229 1.311 v 6.266 a 1.5 1.5 0 0 1 -1.433 1.5 l -1.09 12.761 a 1.5 1.5 0 0 1 -1.5 1.421 h -3.042 v 5.046 a 1.5 1.5 0 0 1 -1.5 1.5 h -182.94 a 1.5 1.5 0 0 1 -1.5 -1.5 v -13.8 h 0 a 1.492 1.492 0 0 1 0.629 -1.219 a 96.413 96.413 0 0 1 16.457 -9.526 a 89.637 89.637 0 0 1 17.8 -5.892 a 1.539 1.539 0 0 1 0.393 -0.052 a 1.5 1.5 0 0 1 1.5 1.5 v 12.729 h 2.467 v -13.74 h 0 a 1.5 1.5 0 0 1 1.277 -1.483 a 95.843 95.843 0 0 1 10.554 -1.012 a 104.042 104.042 0 0 1 10.578 0.112 c 25.231 -12.676 48.241 -17.2 69.617 -15.735 c 21.2 1.454 40.766 8.8 59.274 19.929 Z m -0.548 3.124 a 1.523 1.523 0 0 1 -0.357 -0.182 c -18.3 -11.106 -37.634 -18.447 -58.568 -19.883 c -20.965 -1.437 -43.579 3.046 -68.436 15.6 a 1.5 1.5 0 0 1 -0.768 0.157 h 0 a 101.416 101.416 0 0 0 -10.675 -0.136 q -4.526 0.186 -8.948 0.8 v 13.944 a 1.5 1.5 0 0 1 -1.5 1.5 h -5.467 a 1.5 1.5 0 0 1 -1.5 -1.5 V 224.2 a 86.57 86.57 0 0 0 -15.464 5.294 a 93.327 93.327 0 0 0 -15.32 8.784 V 249.81 h 179.94 v -5.045 a 1.5 1.5 0 0 1 1.5 -1.5 h 3.166 l 1.093 -12.8 a 1.5 1.5 0 0 1 1.3 -1.364 v -2.852 Z m -196.66 19.716 q -1.066 0.954 -2.14 1.96 q -0.993 0.93 -1.971 1.888 h 4.111 v -3.848 Z m -4.192 -0.22 q 2.232 -2.091 4.621 -4.107 a 1.5 1.5 0 0 1 2.571 1.05 v 8.626 a 1.5 1.5 0 0 1 -1.5 1.5 h -9.205 v -0.005 a 1.5 1.5 0 0 1 -1.079 -2.533 Q 3673.559 247.919 3675.88 245.742 Z" stroke-linecap="round" />
</g>
		<g transform="matrix(2.14 0 0 2.14 359.36 105.94)"  >
<path style="stroke: none; stroke-width: 1; stroke-dasharray: none; stroke-linecap: butt; stroke-dashoffset: 0; stroke-linejoin: miter; stroke-miterlimit: 4; fill: rgb(26,24,24); fill-rule: evenodd; opacity: 1;"  transform=" translate(-4020.24, -207.39)" d="M 4024.471 226.2 v 25.111 a 1.5 1.5 0 0 1 -1.5 1.5 H 4017.5 a 1.5 1.5 0 0 1 -1.5 -1.5 V 226.2 h -13.341 a 1.5 1.5 0 0 1 -1.5 -1.5 a 1.469 1.469 0 0 1 0.08 -0.485 L 4018.8 163.05 a 1.5 1.5 0 0 1 2.883 0 l 17.575 61.24 a 1.5 1.5 0 0 1 -1.442 1.909 h -13.341 Z m -3 23.61 V 224.7 a 1.5 1.5 0 0 1 1.5 -1.5 h 12.853 l -15.586 -54.307 L 4004.652 223.2 H 4017.5 a 1.5 1.5 0 0 1 1.5 1.5 v 25.11 Z" stroke-linecap="round" />
</g>
		<g transform="matrix(2.14 0 0 2.14 -271.66 100.17)"  >
<path style="stroke: none; stroke-width: 1; stroke-dasharray: none; stroke-linecap: butt; stroke-dashoffset: 0; stroke-linejoin: miter; stroke-miterlimit: 4; fill: rgb(26,24,24); fill-rule: evenodd; opacity: 1;"  transform=" translate(-3724.75, -204.71)" d="M 3726.129 172.3 l 0 0.005 a 1.5 1.5 0 0 0 -2.768 -0.005 l -8.525 20.422 l -8.488 20.335 a 1.5 1.5 0 0 0 1.346 2.163 h 12.817 v 21.326 a 1.5 1.5 0 0 0 1.5 1.5 h 5.467 a 1.5 1.5 0 0 0 1.5 -1.5 V 215.225 H 3741.8 v 0 a 1.478 1.478 0 0 0 0.575 -0.114 a 1.5 1.5 0 0 0 0.808 -1.958 l -8.525 -20.423 l -8.524 -20.417 l 0 -0.005 Z m 5.76 21.571 l 7.66 18.349 H 3727.48 a 1.5 1.5 0 0 0 -1.5 1.5 v 21.326 h -2.467 V 213.725 a 1.5 1.5 0 0 0 -1.5 -1.5 h -12.068 l 7.659 -18.349 l 7.142 -17.11 Z" stroke-linecap="round" />
</g>
		<g transform="matrix(2.14 0 0 2.14 264.85 113.46)"  >
<path style="stroke: none; stroke-width: 1; stroke-dasharray: none; stroke-linecap: butt; stroke-dashoffset: 0; stroke-linejoin: miter; stroke-miterlimit: 4; fill: rgb(26,24,24); fill-rule: evenodd; opacity: 1;"  transform=" translate(-3975.99, -210.94)" d="M 3980.225 224.959 v 16.8 a 1.5 1.5 0 0 1 -1.5 1.5 h -5.467 a 1.5 1.5 0 0 1 -1.5 -1.5 V 224.867 c -4.532 -0.816 -7.471 -2.94 -9.131 -6.1 c -1.748 -3.326 -1.975 -7.721 -1.089 -12.871 a 65.7 65.7 0 0 1 2.624 -10.034 a 62.162 62.162 0 0 1 4.051 -9.354 a 25.661 25.661 0 0 1 4 -5.691 c 1.449 -1.457 2.956 -2.265 4.45 -2.19 c 3.034 0.151 5.693 3.648 7.849 8.237 a 86.948 86.948 0 0 1 5.993 19.489 c 0.775 5.173 0.62 9.515 -1.073 12.763 c -1.62 3.107 -4.533 5.136 -9.206 5.839 Z m -3 15.3 V 223.634 h 0.006 a 1.5 1.5 0 0 1 1.36 -1.488 c 4.332 -0.391 6.892 -1.937 8.181 -4.409 c 1.366 -2.62 1.454 -6.368 0.768 -10.946 a 83.235 83.235 0 0 0 -5.735 -18.658 c -1.717 -3.657 -3.588 -6.429 -5.282 -6.514 a 3.472 3.472 0 0 0 -2.189 1.312 a 22.667 22.667 0 0 0 -3.494 5.011 a 59.122 59.122 0 0 0 -3.841 8.9 a 62.786 62.786 0 0 0 -2.507 9.565 c -0.777 4.52 -0.63 8.282 0.785 10.973 c 1.34 2.546 3.923 4.2 8.082 4.7 a 1.5 1.5 0 0 1 1.4 1.5 V 240.26 Z" stroke-linecap="round" />
</g>
		<g transform="matrix(2.14 0 0 2.14 5.05 210.09)"  >
<path style="stroke: none; stroke-width: 1; stroke-dasharray: none; stroke-linecap: butt; stroke-dashoffset: 0; stroke-linejoin: miter; stroke-miterlimit: 4; fill: rgb(26,24,24); fill-rule: evenodd; opacity: 1;"  transform=" translate(-3853.98, -256.24)" d="M 3672.271 249.8 h 363.41 a 1.5 1.5 0 0 1 1.5 1.5 v 9.884 a 1.5 1.5 0 0 1 -1.5 1.5 h -363.41 a 1.5 1.5 0 0 1 -1.5 -1.5 V 251.3 a 1.5 1.5 0 0 1 1.5 -1.5 Z m 361.91 3 h -360.41 v 6.884 h 360.41 Z" stroke-linecap="round" />
</g>
		<g transform="matrix(2.14 0 0 2.14 -356.75 101.37)"  >
<path style="stroke: none; stroke-width: 1; stroke-dasharray: none; stroke-linecap: butt; stroke-dashoffset: 0; stroke-linejoin: miter; stroke-miterlimit: 4; fill: rgb(26,24,24); fill-rule: evenodd; opacity: 1;"  transform=" translate(-3684.9, -205.24)" d="M 3680.072 220.947 c -6.568 -0.955 -10.793 -3.814 -13.148 -8.164 c -2.444 -4.514 -2.765 -10.559 -1.541 -17.682 a 91.043 91.043 0 0 1 3.626 -13.858 a 85.86 85.86 0 0 1 5.591 -12.913 a 35.047 35.047 0 0 1 5.461 -7.78 c 1.9 -1.908 3.845 -2.967 5.745 -2.872 c 3.956 0.2 7.5 4.916 10.41 11.113 a 120.32 120.32 0 0 1 8.281 26.931 c 1.072 7.158 0.852 13.133 -1.518 17.546 c -2.292 4.27 -6.473 6.989 -13.25 7.788 v 30.255 a 1.5 1.5 0 0 1 -1.5 1.5 h -6.657 a 1.5 1.5 0 0 1 -1.5 -1.5 V 220.947 Z m -10.511 -9.583 c 2.017 3.727 5.871 6.112 12.051 6.762 a 1.5 1.5 0 0 1 1.46 1.5 V 249.81 h 3.657 V 219.7 h 0 a 1.5 1.5 0 0 1 1.387 -1.494 c 6.45 -0.489 10.277 -2.723 12.224 -6.351 c 2.024 -3.769 2.171 -9.14 1.19 -15.694 a 116.54 116.54 0 0 0 -8.023 -26.1 c -2.474 -5.265 -5.227 -9.26 -7.843 -9.391 c -0.988 -0.049 -2.182 0.684 -3.484 1.994 a 32.184 32.184 0 0 0 -4.957 7.1 a 82.7 82.7 0 0 0 -5.38 12.456 a 87.957 87.957 0 0 0 -3.508 13.39 C 3667.223 202.085 3667.463 207.488 3669.561 211.364 Z" stroke-linecap="round" />
</g>
		<g transform="matrix(2.14 0 0 2.14 -132.38 170.18)"  >
<path style="stroke: none; stroke-width: 1; stroke-dasharray: none; stroke-linecap: butt; stroke-dashoffset: 0; stroke-linejoin: miter; stroke-miterlimit: 4; fill: rgb(26,24,24); fill-rule: evenodd; opacity: 1;"  transform=" translate(-3789.94, -237.54)" d="M 3760.86 230.774 h 2.014 V 223.76 a 1.5 1.5 0 0 1 1.5 -1.5 h 51.136 a 1.5 1.5 0 0 1 1.5 1.5 v 7.014 h 2.015 a 1.5 1.5 0 0 1 1.5 1.5 v 19.037 a 1.5 1.5 0 0 1 -1.5 1.5 h -6.314 a 1.5 1.5 0 0 1 -1.5 -1.5 v -8.185 h -42.536 v 8.185 a 1.5 1.5 0 0 1 -1.5 1.5 h -6.314 a 1.5 1.5 0 0 1 -1.5 -1.5 V 232.274 a 1.5 1.5 0 0 1 1.5 -1.5 Z m 3.514 3 h -2.014 V 249.81 h 3.314 v -8.184 a 1.5 1.5 0 0 1 1.5 -1.5 h 45.537 a 1.5 1.5 0 0 1 1.5 1.5 v 8.184 h 3.314 V 233.774 h -2.015 a 1.5 1.5 0 0 1 -1.5 -1.5 V 225.26 h -48.136 v 7.014 A 1.5 1.5 0 0 1 3764.374 233.774 Z" stroke-linecap="round" />
</g>
		<g transform="matrix(2.14 0 0 2.14 -23.26 175.04)"  >
<path style="stroke: none; stroke-width: 1; stroke-dasharray: none; stroke-linecap: butt; stroke-dashoffset: 0; stroke-linejoin: miter; stroke-miterlimit: 4; fill: rgb(26,24,24); fill-rule: evenodd; opacity: 1;"  transform=" translate(-3841.09, -239.82)" d="M 3845.476 249.81 l 1.989 -19.989 h -12.749 l 1.989 19.989 Z m 5.13 -21.342 l -2.277 22.873 a 1.5 1.5 0 0 1 -1.5 1.47 h -11.477 v -0.005 a 1.5 1.5 0 0 1 -1.489 -1.349 l -2.275 -22.867 a 1.5 1.5 0 0 1 1.476 -1.769 h 16.053 v 0.005 c 0.049 0 0.1 0 0.147 0.007 A 1.5 1.5 0 0 1 3850.606 228.468 Z" stroke-linecap="round" />
</g>
		<g transform="matrix(2.14 0 0 2.14 157.52 162.66)"  >
<path style="stroke: none; stroke-width: 1; stroke-dasharray: none; stroke-linecap: butt; stroke-dashoffset: 0; stroke-linejoin: miter; stroke-miterlimit: 4; fill: rgb(26,24,24); fill-rule: evenodd; opacity: 1;"  transform=" translate(-3925.67, -234.01)" d="M 3963.3 249.81 c -0.218 -0.338 -0.445 -0.679 -0.676 -1.017 c -1.06 -1.556 -2.173 -3.014 -2.791 -3.755 v -0.006 c -5.872 -7.04 -14.574 -13.812 -25.3 -18.813 a 87.17 87.17 0 0 0 -32.17 -8.015 a 88.3 88.3 0 0 0 -8.859 1.91 q -0.985 0.267 -1.958 0.555 a 77.3 77.3 0 0 1 27.913 5.708 a 64.069 64.069 0 0 1 24.609 17.519 c 0.721 0.858 1.822 2.3 2.782 3.713 c 0.517 0.761 1 1.523 1.374 2.2 Z m 1.8 -2.705 a 33.549 33.549 0 0 1 2.148 3.531 l 1.1 2.175 h -22.012 l -0.4 -0.9 a 18.917 18.917 0 0 0 -1.556 -2.629 c -0.907 -1.337 -1.932 -2.679 -2.594 -3.467 a 61.047 61.047 0 0 0 -23.461 -16.675 a 75.049 75.049 0 0 0 -30.383 -5.484 c -0.307 0.006 -0.647 0.017 -1.023 0.03 h -0.006 c -0.292 0.01 -0.638 0.025 -1.028 0.043 l -0.6 0.03 h 0 l -0.71 0.038 l -1.577 0.084 v -3.391 l 0.955 -0.376 a 82.724 82.724 0 0 1 8.785 -2.9 a 91.353 91.353 0 0 1 9.324 -1.995 l 0.31 -0.017 a 90.15 90.15 0 0 1 33.435 8.292 c 11.119 5.186 20.178 12.251 26.324 19.619 l 0 0 C 3962.8 243.911 3963.981 245.462 3965.1 247.1 Z" stroke-linecap="round" />
</g>
</g>
</g>
<g transform="matrix(1 0 0 1 284 322)"  >
<line style="stroke: rgb(0,0,0); stroke-width: 2; stroke-dasharray: none; stroke-linecap: butt; stroke-dashoffset: 0; stroke-linejoin: miter; stroke-miterlimit: 4; fill: rgb(0,0,0); fill-rule: nonzero; opacity: 1;"  x1="0" y1="3" x2="0" y2="-3" />
</g>
<g transform="matrix(1 0 0 1 214 165)"  >
<line style="stroke: rgb(0,0,0); stroke-width: 2; stroke-dasharray: none; stroke-linecap: butt; stroke-dashoffset: 0; stroke-linejoin: miter; stroke-miterlimit: 4; fill: rgb(0,0,0); fill-rule: nonzero; opacity: 1;"  x1="0" y1="0" x2="0" y2="0" />
</g>
<g transform="matrix(1 0 0 1 214 165)"  >
<line style="stroke: rgb(0,0,0); stroke-width: 2; stroke-dasharray: none; stroke-linecap: butt; stroke-dashoffset: 0; stroke-linejoin: miter; stroke-miterlimit: 4; fill: rgb(0,0,0); fill-rule: nonzero; opacity: 1;"  x1="0" y1="0" x2="0" y2="0" />
</g>
<g transform="matrix(1 0 0 1 340 214)"  >
<line style="stroke: rgb(0,0,0); stroke-width: 2; stroke-dasharray: none; stroke-linecap: butt; stroke-dashoffset: 0; stroke-linejoin: miter; stroke-miterlimit: 4; fill: rgb(0,0,0); fill-rule: nonzero; opacity: 1;"  x1="0" y1="0" x2="0" y2="0" />
</g>
</svg>